<?xml version="1.0" encoding="utf-8"?>
<!-- Generator: Adobe Illustrator 19.2.1, SVG Export Plug-In . SVG Version: 6.00 Build 0)  -->
<svg version="1.1" id="Ebene_1" xmlns="http://www.w3.org/2000/svg" xmlns:xlink="http://www.w3.org/1999/xlink" x="0px" y="0px"
	 viewBox="0 0 300 300" style="enable-background:new 0 0 300 300;" xml:space="preserve">
<style type="text/css">
	.st0{fill:#FFFFFF;}
</style>
<g>
	<path class="st0" d="M108.6,92.6c-0.8-0.8-1.9-1.3-3.1-1.2c-1.2,0-2.2,0.5-3,1.4c-25.1,27.7-11.5,87.5-10,93.4l-25.2,25.2
		c-0.8,0.8-1.2,1.8-1.2,3c0,1.1,0.4,2.2,1.2,3l15.2,15.2c0.8,0.8,1.9,1.2,3,1.2s2.1-0.4,3-1.2l25.2-25.2c12.3,3.2,27.6,5,41.2,5
		c16.3,0,38.5-2.6,52.3-15.1c0.8-0.8,1.3-1.9,1.4-3c0-1.1-0.4-2.3-1.2-3.1L108.6,92.6z"/>
	<path class="st0" d="M145,117.5c0.8,0.8,1.9,1.2,3,1.2s2.1-0.4,3-1.2l31.2-31.2c2.2-2.2,3.4-5.2,3.4-8.3c0-3.1-1.2-6.1-3.4-8.3
		c-2.2-2.2-5.2-3.4-8.3-3.4s-6.1,1.2-8.3,3.4l-31.2,31.2c-1.6,1.6-1.6,4.3,0,5.9L145,117.5z"/>
	<path class="st0" d="M230.5,118c-2.2-2.2-5.2-3.4-8.3-3.4s-6.1,1.2-8.3,3.4l-31.3,31.2c-0.8,0.8-1.2,1.9-1.2,3s0.4,2.2,1.2,3
		l10.6,10.6c0.8,0.8,1.9,1.2,3,1.2s2.1-0.4,3-1.2l31.3-31.2C235.1,130,235.1,122.6,230.5,118L230.5,118z"/>
</g>
</svg>
