<?xml version="1.0" encoding="utf-8"?>
<!-- Generator: Adobe Illustrator 19.2.1, SVG Export Plug-In . SVG Version: 6.00 Build 0)  -->
<svg version="1.1" id="Ebene_1" xmlns="http://www.w3.org/2000/svg" xmlns:xlink="http://www.w3.org/1999/xlink" x="0px" y="0px"
	 viewBox="0 0 57.8 52.7" style="enable-background:new 0 0 57.8 52.7;" xml:space="preserve">
<style type="text/css">
	.st0{fill:#F15A22;}
</style>
<path class="st0" d="M31.7,18.9H20.5c-0.8,0-1.5,0.7-1.5,1.4c0,0.8,0.7,1.5,1.5,1.5h11.2c0.8,0,1.5-0.6,1.5-1.5
	C33.2,19.5,32.5,18.9,31.7,18.9"/>
<path class="st0" d="M33.2,25.8c0-0.8-0.7-1.5-1.5-1.5H20.5c-0.8,0-1.5,0.6-1.5,1.5c0,0.8,0.7,1.5,1.5,1.5h11.2
	C32.5,27.2,33.2,26.6,33.2,25.8"/>
<path class="st0" d="M26.1,32.7c0.8,0,1.5-0.6,1.5-1.4c0-0.8-0.7-1.5-1.5-1.5h-5.6c-0.8,0-1.5,0.6-1.5,1.5c0,0.8,0.7,1.4,1.5,1.4
	H26.1z"/>
<path class="st0" d="M37.3,37.6l-1.6,1v3.6H16.4V16.1h19.3v5.7l3-5v-2.2c0-0.8-0.7-1.4-1.5-1.4H14.9c-0.8,0-1.5,0.7-1.5,1.4v29
	c0,0.8,0.7,1.5,1.5,1.5h22.3c0.8,0,1.5-0.7,1.5-1.5v-8L38,36.9C37.9,37.1,37.6,37.4,37.3,37.6"/>
<path class="st0" d="M33.5,37c-0.2-0.2-0.5-0.4-0.8-0.5c-0.3-0.2-0.6-0.3-0.9-0.4l0.1-1.7c0.4,0.1,1,0.2,1.7,0.6
	c0.7,0.4,1.2,0.8,1.4,1.1L33.5,37z M46.1,19.9c0-0.1-0.3-1.3-2.2-2.4c-1.9-1.1-3.1-0.7-3.2-0.7c-0.2,0.1-0.3,0.2-0.4,0.3l-9.3,15.7
	c-0.1,0.1-0.1,0.2-0.1,0.3l-0.3,5.7c0,0.3,0.1,0.5,0.4,0.7c0.2,0.1,0.5,0.1,0.8,0l4.9-3.1c0.1-0.1,0.2-0.1,0.2-0.2L46,20.4
	C46.1,20.3,46.2,20.1,46.1,19.9"/>
<path class="st0" d="M23.8,39.4c0.1,0.3,0.4,0.4,0.6,0.5c0.2,0.1,0.5-0.1,0.7-0.2c1.1-0.5,2.7,0.1,3.9,0.1c0.7,0,0.7-1.1,0-1.1
	c-1.4,0-2.6-0.3-4-0.1c0-0.1,0-0.2-0.1-0.3c-0.3-0.4-0.6-0.6-0.9-0.5c0,0,0-0.1-0.1-0.2c-0.1-0.1-0.2-0.2-0.4-0.2
	c0.4-0.7,0.6-1.4,0.4-1.9c-0.1-0.2-0.3-0.3-0.5-0.3c-0.7,0-1.4,0.7-1.9,1.2c-1.2,1.1-2.3,2.4-3.3,3.7c-0.4,0.6,0.5,1.1,1,0.5
	c0.9-1.1,1.9-2.3,2.9-3.3c-0.2,0.4-0.5,0.8-0.8,1.2c-0.4,0.6,0.5,1.1,1,0.6c0.1-0.1,0.2-0.3,0.4-0.3c0,0.1-0.1,0.1-0.1,0.2
	c0,0,0,0,0,0c0,0,0,0.1-0.1,0.1c-0.3,0.6,0.7,0.9,1,0.4c0.1-0.1,0.2-0.2,0.2-0.4C23.8,39.1,23.8,39.2,23.8,39.4"/>
</svg>
