<?xml version="1.0" encoding="utf-8"?>
<!-- Generator: Adobe Illustrator 19.2.1, SVG Export Plug-In . SVG Version: 6.00 Build 0)  -->
<svg version="1.1" id="Ebene_1" xmlns="http://www.w3.org/2000/svg" xmlns:xlink="http://www.w3.org/1999/xlink" x="0px" y="0px"
	 viewBox="0 0 300 300" style="enable-background:new 0 0 300 300;" xml:space="preserve">
<style type="text/css">
	.st0{fill:#FFFFFF;}
</style>
<g>
	<path class="st0" d="M224.2,235.8V64.1c0-5.5-4.5-10-10-10H85.8c-5.5,0-10,4.5-10,10V236c0,5.5,4.5,10,10,10h128.4
		C219.7,245.8,224.2,241.4,224.2,235.8L224.2,235.8z M116.7,222.9c0,2.8-2.2,5-5,5h-11.5c-2.8,0-5-2.2-5-5v-11.5c0-2.8,2.2-5,5-5
		h11.5c2.8,0,5,2.2,5,5V222.9z M116.7,193.3c0,2.8-2.2,5-5,5h-11.5c-2.8,0-5-2.2-5-5v-11.5c0-2.8,2.2-5,5-5h11.5c2.8,0,5,2.2,5,5
		V193.3z M116.7,163.8c0,2.8-2.2,5-5,5h-11.5c-2.8,0-5-2.2-5-5v-11.5c0-2.8,2.2-5,5-5h11.5c2.8,0,5,2.2,5,5V163.8z M116.7,134.1
		c0,2.8-2.2,5-5,5h-11.5c-2.8,0-5-2.2-5-5v-11.5c0-2.8,2.2-5,5-5h11.5c2.8,0,5,2.2,5,5V134.1z M146.1,222.9c0,2.8-2.2,5-5,5h-11.5
		c-2.8,0-5-2.2-5-5v-11.5c0-2.8,2.2-5,5-5h11.5c2.8,0,5,2.2,5,5V222.9z M146.1,193.3c0,2.8-2.2,5-5,5h-11.5c-2.8,0-5-2.2-5-5v-11.5
		c0-2.8,2.2-5,5-5h11.5c2.8,0,5,2.2,5,5V193.3z M146.1,163.8c0,2.8-2.2,5-5,5h-11.5c-2.8,0-5-2.2-5-5v-11.5c0-2.8,2.2-5,5-5h11.5
		c2.8,0,5,2.2,5,5V163.8z M146.1,134.1c0,2.8-2.2,5-5,5h-11.5c-2.8,0-5-2.2-5-5v-11.5c0-2.8,2.2-5,5-5h11.5c2.8,0,5,2.2,5,5V134.1z
		 M175.5,222.9c0,2.8-2.2,5-5,5H159c-2.8,0-5-2.2-5-5v-11.5c0-2.8,2.2-5,5-5h11.5c2.8,0,5,2.2,5,5V222.9L175.5,222.9z M175.5,193.3
		c0,2.8-2.2,5-5,5H159c-2.8,0-5-2.2-5-5v-11.5c0-2.8,2.2-5,5-5h11.5c2.8,0,5,2.2,5,5V193.3L175.5,193.3z M175.5,163.8
		c0,2.8-2.2,5-5,5H159c-2.8,0-5-2.2-5-5v-11.5c0-2.8,2.2-5,5-5h11.5c2.8,0,5,2.2,5,5V163.8L175.5,163.8z M175.5,134.1
		c0,2.8-2.2,5-5,5H159c-2.8,0-5-2.2-5-5v-11.5c0-2.8,2.2-5,5-5h11.5c2.8,0,5,2.2,5,5V134.1L175.5,134.1z M204.9,222.9
		c0,2.8-2.2,5-5,5h-11.5c-2.8,0-5-2.2-5-5v-41.1c0-2.8,2.2-5,5-5h11.5c2.8,0,5,2.2,5,5V222.9z M204.9,163.8c0,2.8-2.2,5-5,5h-11.5
		c-2.8,0-5-2.2-5-5v-11.5c0-2.8,2.2-5,5-5h11.5c2.8,0,5,2.2,5,5V163.8z M204.9,134.1c0,2.8-2.2,5-5,5h-11.5c-2.8,0-5-2.2-5-5v-11.5
		c0-2.8,2.2-5,5-5h11.5c2.8,0,5,2.2,5,5V134.1z M204.9,94.1c0,2.8-2.2,5-5,5h-99.8c-2.8,0-5-2.2-5-5V76.8c0-2.8,2.2-5,5-5h99.8
		c2.8,0,5,2.2,5,5V94.1z"/>
</g>
</svg>
