<?xml version="1.0" encoding="utf-8"?>
<!-- Generator: Adobe Illustrator 19.2.1, SVG Export Plug-In . SVG Version: 6.00 Build 0)  -->
<svg version="1.1" id="Layer_1" xmlns="http://www.w3.org/2000/svg" xmlns:xlink="http://www.w3.org/1999/xlink" x="0px" y="0px"
	 viewBox="0 0 474 52" style="enable-background:new 0 0 474 52;" xml:space="preserve">
<style type="text/css">
	.st0{fill:#D9D9D9;}
	.st1{fill:#F05A22;}
	.st2{fill:#414042;}
</style>
<g>
	<polyline class="st0" points="75.2,16.5 96.5,38.3 49.2,44.2 24.3,16.5 74.9,16.6 24.7,16.6 	"/>
	<g>
		<polygon class="st0" points="84.4,16.6 117.9,16.6 137,33.5 104.8,37.5 		"/>
	</g>
</g>
<g>
	<polyline class="st1" points="76.6,4.1 97.8,25.9 50.6,31.8 25.7,4.1 76.2,4.2 26,4.2 	"/>
	<g>
		<polygon class="st1" points="85.7,4.2 119.2,4.2 138.3,21.1 106.1,25.1 		"/>
	</g>
</g>
<g>
	<path class="st2" d="M150,5.5h14.3c6.1,0,9.3,2.8,9.3,8c0,5.2-3.2,8.7-9,8.7h-10.5v11.1H150V5.5z M164,18.5c4.1,0,5.4-2.2,5.4-5
		c0-2.6-1.6-4.5-4.7-4.5h-10.6v9.5H164z"/>
	<path class="st2" d="M177.8,5.5h21.5v3.6h-17.4v8.2h16.5v3.6h-16.5v12.4h-4.1V5.5z"/>
	<path class="st2" d="M220.6,25.1H207l-3.5,8.1H199l12.5-27.7h4.7l12.6,27.7h-4.7L220.6,25.1z M213.8,9.3l-5.2,12.3h10.5L213.8,9.3z
		"/>
	<path class="st2" d="M232.5,5.5h4.1v24.2h16.9v3.6h-21V5.5z"/>
	<path class="st2" d="M255.8,29.5l19.8-20.5h-18.4V5.5H281v3.6l-19.9,20.6h20.2v3.6h-25.5V29.5z"/>
	<path class="st1" d="M304.5,13.6c-0.3-1.9-1.8-3.2-6-3.2c-3.1,0-4.8,0.9-4.8,2.7c0,0.9,0.7,1.5,2.1,1.7c2.3,0.4,9.4,1.4,12.2,1.9
		c5.2,0.9,8.3,3,8.3,7.9c0,9.4-12.2,9.5-16,9.5c-9.4,0-16.2-1.7-16.7-9.4h11c0.2,2.1,1.4,3.4,6.2,3.4c2.3,0,4.9-0.5,4.9-2.9
		c0-1.5-1.2-2-4.4-2.5l-9.2-1.4c-5.7-0.9-7.9-3.7-7.9-7.8c0-3.7,2.3-8.8,14.4-8.8c10.1,0,16.1,2.4,16.7,9H304.5z"/>
	<path class="st1" d="M337.1,4.6c9.8,0,18.1,3.2,18.1,14.7c0,11.5-8.3,14.7-18.1,14.7c-9.8,0-18.1-3.2-18.1-14.7
		C319.1,7.9,327.3,4.6,337.1,4.6z M337.1,27.9c5,0,8.3-2.7,8.3-8.5c0-5.8-3.3-8.5-8.3-8.5c-4.9,0-8.3,2.7-8.3,8.5
		C328.9,25.2,332.2,27.9,337.1,27.9z"/>
	<path class="st1" d="M360,5.5h9.2v21.3h16.9v6.4H360V5.5z"/>
	<path class="st1" d="M399.9,5.5h11.3l11.9,27.7h-9.9l-1.7-4.5h-12.1l-1.7,4.5h-9.9L399.9,5.5z M405.5,12.5L405.5,12.5L401.6,23h7.8
		L405.5,12.5z"/>
	<path class="st1" d="M426.3,5.5h22.2c6.8,0,9.3,3.1,9.3,7.7c0,3.7-1.9,5.7-4.4,6.3v0.1c1.7,0.6,3.1,2,3.3,5
		c0.4,5.5,0.6,7.2,1.7,8.6h-10.1c-0.5-1.2-0.5-2.8-0.5-4.1c0-4.4-1.4-5.1-3.8-5.1h-8.5v9.2h-9.2V5.5z M435.5,17.8h8.9
		c2.3,0,3.5-1.2,3.5-3.1c0-1.8-1.2-3-3.5-3h-8.9V17.8z"/>
</g>
</svg>
