<?xml version="1.0" encoding="utf-8"?>
<!-- Generator: Adobe Illustrator 20.1.0, SVG Export Plug-In . SVG Version: 6.00 Build 0)  -->
<svg version="1.1" id="Ebene_1" xmlns="http://www.w3.org/2000/svg" xmlns:xlink="http://www.w3.org/1999/xlink" x="0px" y="0px"
	 viewBox="0 0 234 256" style="enable-background:new 0 0 234 256;" xml:space="preserve">
<style type="text/css">
	.st0{fill:#E2574C;}
	.st1{fill:#B53629;}
	.st2{fill:#FFFFFF;}
</style>
<g>
	<path class="st0" d="M23.5,5h131.4l69.6,69.4v162.6c0,8.5-6.9,15.5-15.5,15.5H23.5c-8.5,0-15.5-6.9-15.5-15.5V20.5
		C8,11.9,14.9,5,23.5,5L23.5,5z M23.5,5"/>
	<path class="st1" d="M224.3,74.6h-53.9c-8.5,0-15.5-6.9-15.5-15.5v-54L224.3,74.6z M224.3,74.6"/>
	<path class="st2" d="M166.5,122.2c2.6,0,3.9-2.3,3.9-4.4c0-2.3-1.3-4.5-3.9-4.5h-14.8c-2.9,0-4.5,2.4-4.5,5v36.3c0,3.2,1.8,5,4.3,5
		c2.5,0,4.3-1.8,4.3-5v-9.9h8.9c2.8,0,4.2-2.3,4.2-4.5c0-2.2-1.4-4.4-4.2-4.4h-8.9v-13.5H166.5z M116.6,113.3h-10.8c-2.9,0-5,2-5,5
		v36.3c0,3.7,3,4.9,5.1,4.9h11.3c13.4,0,22.3-8.8,22.3-22.4C139.5,122.7,131.2,113.3,116.6,113.3L116.6,113.3z M117.1,150.6h-6.6
		v-28.3h5.9c9,0,12.9,6,12.9,14.3C129.4,144.4,125.5,150.6,117.1,150.6L117.1,150.6z M77.6,113.3H66.9c-3,0-4.7,2-4.7,5v36.3
		c0,3.2,1.9,5,4.5,5c2.6,0,4.5-1.8,4.5-5V144H78c8.3,0,15.1-5.9,15.1-15.3C93.1,119.5,86.5,113.3,77.6,113.3L77.6,113.3z
		 M77.4,135.5h-6.2v-13.7h6.2c3.8,0,6.2,3,6.2,6.8C83.6,132.6,81.2,135.5,77.4,135.5L77.4,135.5z M77.4,135.5"/>
</g>
</svg>
