<?xml version="1.0" encoding="utf-8"?>
<!-- Generator: Adobe Illustrator 20.1.0, SVG Export Plug-In . SVG Version: 6.00 Build 0)  -->
<svg version="1.1" id="Ebene_1" xmlns="http://www.w3.org/2000/svg" xmlns:xlink="http://www.w3.org/1999/xlink" x="0px" y="0px"
	 viewBox="0 0 464.1 456.7" style="enable-background:new 0 0 464.1 456.7;" xml:space="preserve">
<style type="text/css">
	.st0{fill:#FEFEFE;}
	.st1{fill:#F6F6F6;}
	.st2{fill:#EFEFEF;}
	.st3{fill:#E0E0E0;}
	.st4{fill:#3465DC;}
	.st5{fill:#656B78;}
	.st6{fill:#1D3B80;}
	.st7{fill:#374C7B;}
	.st8{fill:#D53347;}
	.st9{fill:#D94A5B;}
	.st10{fill:#D12237;}
	.st11{fill:#FDFDFD;}
	.st12{fill:#033FD0;}
	.st13{fill:#678AE2;}
	.st14{fill:#E8A5AB;}
	.st15{fill:#95A3C4;}
	.st16{fill:#7588B8;}
	.st17{fill:#8092BD;}
	.st18{fill:#697EB2;}
	.st19{fill:#D32D41;}
	.st20{fill:#CF142B;}
	.st21{fill:#E82244;}
	.st22{fill:#0135B6;}
	.st23{fill:#032780;}
	.st24{fill:#D51B34;}
	.st25{fill:#012D9D;}
	.st26{fill:#E68692;}
	.st27{fill:#DF6877;}
	.st28{fill:#576EA9;}
	.st29{fill:#DD5D6D;}
</style>
<g>
	<path class="st0" d="M235.1,0.9C107.3,0.2,12.2,103.4,6.1,215.1c-3.6,65,16.6,122.2,60.9,170.1c42.3,45.7,95.3,71.2,157.4,73.4
		c138.4,4.9,234.7-103.2,239.5-218.4C469.5,103.9,358.4-0.4,235.1,0.9z"/>
	<path class="st1" d="M235.1,0.9c123.2-1.3,234.3,103,228.7,239.3c-4.8,115.2-101.1,223.4-239.5,218.4
		c-62.1-2.2-115.1-27.7-157.4-73.4c-44.3-47.8-64.5-105-60.9-170.1C12.2,103.4,107.3,0.2,235.1,0.9z M10,229
		c1.5,128.5,100.2,222,216,225.5c133.7,4.1,232.6-100.5,233.5-222.1c1-128.4-98.8-223-216.4-227.3C109.2,0.3,10.4,108.5,10,229z"/>
	<path class="st2" d="M10,229C10.4,108.5,109.2,0.3,243.2,5.1C360.7,9.4,460.5,104,459.5,232.4c-0.9,121.6-99.8,226.1-233.5,222.1
		C110.2,451,11.5,357.5,10,229z M13.8,229.2C12.8,353.6,113,446,223.9,450.8c61.2,2.6,115.2-16.6,160.4-58
		C429,351.9,453,300.4,455.8,240c3-64.6-18.8-120.8-64.1-166.4c-40.9-41.2-91.2-63.3-150.1-64.8C178.5,7.2,124.1,28.4,79.4,72.4
		C35.9,115.2,14.2,168,13.8,229.2z"/>
	<path class="st3" d="M13.8,229.2c0.4-61.2,22.1-114,65.6-156.8c44.7-44,99.1-65.2,162.2-63.6c58.8,1.5,109.1,23.6,150.1,64.8
		c45.4,45.6,67.2,101.8,64.1,166.4c-2.8,60.4-26.8,111.9-71.5,152.8c-45.2,41.4-99.2,60.6-160.4,58C113,446,12.8,353.6,13.8,229.2z
		 M92.7,67.5l-0.1,0.1c-0.3,0.3-0.6,0.6-0.9,0.8c0,0-0.2,0.1-0.2,0.1c-0.3,0.3-0.6,0.5-0.8,0.8l-0.3,0.2c-0.2,0.2-0.5,0.5-0.7,0.7
		c0,0-0.3,0.2-0.3,0.2c-4.9,5-9.9,9.9-14.8,14.9l-0.2,0.2c-0.3,0.3-0.5,0.6-0.8,0.8l-0.1,0.1c-0.5,0.5-0.9,1-1.4,1.5l0,0
		c-1.2,1.4-2.4,2.9-3.5,4.3l-0.2,0.3c-0.2,0.3-0.5,0.6-0.7,0.8c0,0-0.1,0.1-0.1,0.1c-0.4,0.5-0.9,1-1.3,1.5
		c-0.2,0.1-0.3,0.3-0.4,0.5c-0.4,0.6-0.9,1.2-1.3,1.8l-0.2,0.2c-0.2,0.3-0.5,0.6-0.7,0.9l-0.1,0.1c-0.3,0.4-0.6,0.7-0.8,1.1l0,0
		c-0.7,1-1.4,1.9-2.1,2.9l-0.1,0.1c-0.4,0.3-0.9,0.5-1.1,0.9c-24.2,33.9-37.9,71.6-40.3,113.1c-2.3,38.7,5.2,75.5,22.7,110.2
		c3.5,6.8,7.4,13.4,11.2,20.1c0.4-0.2,0.7-0.3,1.1-0.5c0-0.8,0-1.6,0-2.4c1.3-0.6,2.6-1.2,4-1.8c1.4,3,2.7,6,4.1,9
		c-0.5,0.4-1.1,0.9-1.6,1.3c-1-0.2-2.1-0.4-3.1-0.6c5.1,8,10.3,15.5,16.6,22.1c60.2,62.9,132.9,85.5,217.3,63.9
		c60.7-15.5,105.3-53.2,135-108.4c0.9-1.7,1.2-3.7,1.8-5.6l-0.1,0c2.7-5.6,5.4-11.1,7.9-16.7c0.1-0.2-0.9-0.9-1.4-1.4
		c-1.8-0.7-3.7-1.4-5.5-2.1c-0.4-0.6-0.8-1.2-1.2-1.8c4.5-1.1,3.7-5.4,5.3-8.3c1.5,0.6,3.1,1.2,4.6,1.7c2.5,1.7,2.9,1.7,3.6-1.7
		c2.4-11.5,5.2-22.9,6.7-34.5c1.6-12.6,2.6-25.3,2.8-38c0.1-8.4-1.7-16.8-2.6-25.1c-0.5,0-1,0-1.5,0c-0.2,1.1-0.4,2.2-0.5,3.3
		c-1.3,0.1-2.7,0.2-4,0.3c-1.4-0.2-2.7-0.4-4.1-0.6c-0.7-6.6-1.3-13.3-2-19.9c0.3-0.2,0.7-0.3,1-0.5c2,0.1,3.9,0.3,5.9,0.4
		c0.3,0.8,0.6,1.5,1,2.3c0.9-1.9,0.8-3.7,0.4-5.3c-2-6.5-3.5-13.2-6.2-19.4c-5.6-12.8-11.7-25.3-17.7-37.8c-1.5-3.1-1.7-2.9-4.2-2
		c-1.7,1.3-3.4,2.6-5.2,3.8c-0.3,0-0.7-0.1-1-0.1c-1.6-2.9-3.2-5.8-4.9-8.7c0.3-0.4,0.6-0.7,0.9-1.1c2-1,4-2,6-2.9
		c-0.5-1.1-1-2.2-1.4-3.3l-0.1-0.1c-0.7-0.9-1.4-1.9-2-2.8c0,0-0.1,0-0.1,0c-0.3-0.3-0.5-0.7-0.8-1l-0.1-0.2
		c-0.7-0.9-1.4-1.8-2.1-2.7l0,0c-0.3-0.4-0.5-0.7-0.8-1.1l-0.1-0.1c-0.7-0.9-1.5-1.8-2.2-2.8c0,0,0,0,0,0c-0.3-0.4-0.7-0.9-1-1.3
		c0-0.2-0.1-0.4-0.3-0.4c-0.4-0.5-0.9-1-1.3-1.5c0,0-0.1-0.2-0.1-0.2c-1.1-1.3-2.2-2.5-3.3-3.8c-0.2-0.3-0.5-0.5-0.7-0.8
		c-0.4-0.4-0.8-0.7-1.1-1.1c0,0,0-0.1,0-0.1c-0.3-0.3-0.6-0.6-0.9-0.9c0,0-0.1-0.1-0.1-0.1c-0.3-0.3-0.6-0.6-0.8-0.9
		c0,0-0.1-0.2-0.1-0.2c-0.3-0.3-0.5-0.6-0.8-0.9c0,0-0.2-0.2-0.2-0.2c-0.3-0.3-0.5-0.5-0.8-0.8l-0.2-0.2c-0.3-0.3-0.5-0.5-0.8-0.8
		c0,0-0.2-0.2-0.2-0.2c-0.3-0.3-0.5-0.5-0.8-0.8c0,0-0.2-0.2-0.2-0.2c-0.3-0.3-0.5-0.5-0.8-0.8c0,0-0.2-0.2-0.2-0.2
		c-0.3-0.3-0.5-0.5-0.8-0.8c0,0-0.2-0.2-0.2-0.2c-0.3-0.3-0.5-0.5-0.8-0.8c0,0-0.2-0.2-0.2-0.2c-0.3-0.3-0.5-0.5-0.8-0.8l-0.2-0.2
		c-0.3-0.3-0.5-0.5-0.8-0.8c0,0-0.2-0.2-0.2-0.2c-0.3-0.3-0.6-0.5-0.8-0.8c0,0-0.2-0.2-0.2-0.2c-0.3-0.3-0.6-0.5-0.9-0.8l-0.1-0.1
		c-0.3-0.3-0.6-0.6-0.9-0.9l-0.1-0.1c-0.3-0.3-0.6-0.6-1-0.9c0,0-0.1,0-0.1,0c-0.3-0.3-0.7-0.6-1-0.9l0,0c-1.2-1.1-2.4-2.1-3.6-3.2
		l-0.3-0.2c-0.3-0.2-0.6-0.5-0.8-0.7l-0.2-0.2c-0.3-0.3-0.7-0.5-1-0.8l-0.1,0c-0.4-0.3-0.7-0.6-1.1-0.9c0,0,0,0,0,0
		c-0.9-0.7-1.8-1.4-2.7-2.2c0,0-0.2-0.1-0.2-0.1c-0.3-0.3-0.7-0.5-1-0.8l-0.2,0.2c0,0,0.1-0.2,0.1-0.2c-0.4-0.3-0.7-0.6-1.1-0.9
		c0,0,0,0,0,0c-0.9-0.7-1.9-1.4-2.8-2.2c0,0-0.1-0.1-0.1-0.1c-2.3-1.6-4.6-3.3-6.9-4.9c0,0-0.1,0-0.1,0c-0.4-0.3-0.8-0.5-1.1-0.8
		l0,0c-0.6-0.4-1.2-0.8-1.8-1.2c0,0,0-0.1,0-0.1c-1-0.6-2-1.3-3-1.9l-0.3,0.2c0,0,0.3-0.2,0.3-0.2c-1.4-0.9-2.8-1.8-4.2-2.7l0,0
		c-12.7-8.5-26.4-14.8-41-19.2c-0.7-0.2-1.4-0.5-2-0.7c-3.7-1.1-7.3-2.2-11-3.3c-0.7-0.2-1.4-0.4-2-0.6c-23.5-6.9-47.6-8.6-71.9-6.7
		c-11.2,0.9-22.2,3.5-33.3,5.4c-0.6,0.1-1.2,0.2-1.8,0.4c-1.1,0.3-2.1,0.6-3.2,0.8c-0.7,0.2-1.4,0.4-2.1,0.5
		c-7,2.1-14.2,3.7-20.8,6.6c-10,4.3-19.6,9.6-29.3,14.4c0,0-0.1,0-0.1,0c-1.7,0.9-3.3,1.9-5,2.8c0,0-0.2,0.1-0.2,0.1
		c-1.6,1-3.2,2.1-4.8,3.1l0.3,0.3l-0.3-0.3c-1,0.6-2,1.3-3,1.9c0,0-0.1,0.1-0.1,0.1c-1.3,0.9-2.7,1.8-4,2.7l-0.2,0.2
		c-0.9,0.7-1.8,1.3-2.8,2l-0.1,0.1c-1,0.7-1.9,1.4-2.9,2.1l0,0c-0.4,0.3-0.7,0.6-1.1,0.8l-0.1,0.1c-0.3,0.2-0.6,0.5-0.9,0.7
		l-0.2,0.1c-0.5,0.4-1.1,0.9-1.6,1.3c0,0,0,0,0,0c-0.4,0.3-0.7,0.6-1.1,0.9l0,0.3c0,0-0.1-0.2-0.1-0.2c-0.3,0.3-0.7,0.5-1,0.8
		c0,0-0.2,0.1-0.2,0.1c-0.3,0.2-0.6,0.5-0.8,0.7l-0.3,0.2c-1.2,1-2.4,2-3.7,3.1l-0.1,0.1C93.3,66.9,93,67.2,92.7,67.5z"/>
	<path class="st4" d="M60.5,352.6c0.5-0.4,1.1-0.9,1.6-1.3c1.3-0.4,2.6-0.9,3.9-1.3c5.4,9.2,10.1,18.2,22.6,20.6
		c19.4,3.7,38.4,9.6,57.8,13.9c13.3,3,26.9,5,40.4,7.4c0,3,0,6,0,9c-13.1-0.3-26.2-0.1-39.2-1.1c-10.3-0.8-20.5-3-30.7-4.7
		c-7.3-1.2-14.6-2.7-21.8-4c-7.3-7.1-15-13.8-21.9-21.3C68.3,364.5,64.6,358.3,60.5,352.6z"/>
	<path class="st5" d="M60.5,352.6c4.1,5.7,7.8,11.9,12.5,17c6.9,7.5,14.6,14.3,21.9,21.3c7.2,5.7,14.1,11.9,21.7,17
		c6.9,4.7,14.6,8.2,22,12.2c5.3,2.7,10.3,6,15.8,7.9c10.7,3.7,21.7,6.6,32.6,9.8c6.7,1.3,13.3,2.6,20,3.9
		c16.2,0.3,32.4,0.9,48.6,0.8c4.5,0,8.9-1.8,13.4-2.8c6.8-1.2,13.5-2.5,20.3-3.7c1.3-0.2,2.7-0.2,3.9-0.7
		c13.7-5.5,27.3-11,40.9-16.5c2.2-1.1,4.6-2,6.6-3.4c12.2-8.8,24.2-17.7,36.4-26.5c1.3-1,2.9-1.7,4-2.9c8.8-9.9,17.6-19.8,26.2-29.8
		c1.4-1.7,2-4,3-6c0.7-0.4,1.7-0.5,2.1-1.1c4.8-8.4,9.5-16.8,14.3-25.2c0.5,0,1.1,0,1.6,0c-0.6,1.9-0.9,3.9-1.8,5.6
		c-29.7,55.2-74.2,92.8-135,108.4C206.9,459.5,134.2,437,74,374c-6.3-6.6-11.5-14.1-16.6-22.1C58.5,352.2,59.5,352.4,60.5,352.6z"/>
	<path class="st6" d="M406,110.8c-0.3,0.4-0.6,0.7-0.9,1.1c-0.4,0.1-0.8,0.2-1.1,0.3c-0.3,0.2-0.6,0.4-0.9,0.6c-3.7,2-7.4,4-11.1,6
		c-1.3,0.5-2.7,0.9-4,1.4c-1.4-4.8-2.8-9.6-4.2-14.4c-2.9-6.1-5.8-12.1-8.7-18.2c-0.8-1.2-1.6-2.5-2.5-3.6c-6-7.1-12-14.2-18.1-21.3
		c-3.2-2.8-6.4-5.6-9.5-8.4c0.7-4.9,3.1-1.4,4.3-0.6c20.9,13.4,38.6,30.2,53.3,50.1C404.1,106,404.9,108.5,406,110.8z"/>
	<path class="st7" d="M406,110.8c-1.1-2.3-1.9-4.9-3.4-6.9c-14.7-19.9-32.4-36.7-53.3-50.1c-1.1-0.7-3.6-4.3-4.3,0.6
		c-5.5-3.5-11-7-16.5-10.6c-12.4-8-25.8-13.6-40-17.2c-0.1-0.3-0.2-0.6-0.5-0.8c0.1-1,0.2-2,0.3-3c0.6-0.6,1.1-1.2,1.7-1.8
		c0.7,0.2,1.4,0.4,2,0.6c3.7,1.1,7.3,2.2,11,3.3c0.7,0.2,1.4,0.5,2,0.7c1.3,0.9,2.6,2,4,2.7c10.6,5,21.2,10,31.9,15
		c1.6,0.7,3.4,1,5.1,1.5c0,0,0,0,0,0c1.4,0.9,2.8,1.8,4.2,2.7l-0.3,0.2c0,0,0.3-0.2,0.3-0.2c1,0.6,2,1.3,3,1.9c0,0,0,0.1,0,0.1
		c0.6,0.4,1.2,0.8,1.8,1.2c0,0,0,0,0,0c0.4,0.3,0.8,0.5,1.1,0.8c0,0,0.1,0,0.1,0c2.3,1.6,4.6,3.3,7,4.9c0,0,0.1,0.1,0.1,0.1
		c0.9,0.7,1.9,1.4,2.8,2.2c0,0,0,0,0,0c0.4,0.3,0.7,0.6,1.1,0.9c0,0-0.1,0.2-0.1,0.2s0.2-0.2,0.2-0.2c0.3,0.3,0.7,0.5,1,0.8
		c0,0,0.2,0.1,0.2,0.1c0.9,0.7,1.8,1.4,2.7,2.2c0,0,0,0,0,0c0.4,0.3,0.7,0.6,1.1,0.9c0,0,0.1,0,0.1,0.1c0.3,0.3,0.7,0.5,1,0.8
		c0,0,0.2,0.2,0.2,0.2c0.3,0.2,0.6,0.5,0.8,0.7c0,0,0.3,0.2,0.3,0.2c1.2,1.1,2.4,2.1,3.6,3.2c0,0,0,0,0,0c0.3,0.3,0.7,0.6,1,0.9
		c0,0,0.1,0,0.1,0c0.3,0.3,0.6,0.6,1,0.9c0,0,0.1,0.1,0.1,0.1c0.3,0.3,0.6,0.6,0.9,0.9c0,0,0.1,0.1,0.1,0.1c0.3,0.3,0.6,0.5,0.9,0.8
		c0,0,0.2,0.2,0.2,0.2c0.3,0.3,0.6,0.5,0.8,0.8c0,0,0.2,0.2,0.2,0.2c0.3,0.3,0.5,0.5,0.8,0.8c0,0,0.2,0.2,0.2,0.2
		c0.3,0.3,0.5,0.5,0.8,0.8c0,0,0.2,0.2,0.2,0.2c0.3,0.3,0.5,0.5,0.8,0.8c0,0,0.2,0.2,0.2,0.2c0.3,0.3,0.5,0.5,0.8,0.8
		c0,0,0.2,0.2,0.2,0.2c0.3,0.3,0.5,0.5,0.8,0.8c0,0,0.2,0.2,0.2,0.2c0.3,0.3,0.5,0.5,0.8,0.8c0,0,0.2,0.2,0.2,0.2
		c0.3,0.3,0.5,0.5,0.8,0.8c0,0,0.2,0.2,0.2,0.2c0.3,0.3,0.5,0.5,0.8,0.8c0,0,0.2,0.2,0.2,0.2c0.3,0.3,0.5,0.6,0.8,0.9
		c0,0,0.1,0.2,0.1,0.2c0.3,0.3,0.6,0.6,0.8,0.9c0,0,0.1,0.1,0.1,0.1c0.3,0.3,0.6,0.6,0.9,0.9c0,0,0,0.1,0,0.1
		c0.4,0.4,0.8,0.7,1.1,1.1c0.2,0.3,0.5,0.5,0.7,0.8c1.1,1.3,2.2,2.5,3.3,3.8c0,0,0.1,0.2,0.1,0.2c0.4,0.5,0.9,1,1.3,1.5
		c0.2,0.1,0.3,0.2,0.3,0.4c0.3,0.4,0.7,0.9,1,1.3c0,0,0,0,0,0c0.7,0.9,1.5,1.8,2.2,2.8c0,0,0.1,0.1,0,0.1c0.3,0.4,0.5,0.7,0.8,1.1
		c0,0,0,0,0,0c0.7,0.9,1.4,1.8,2.1,2.7c0,0,0.1,0.2,0.1,0.2c0.3,0.3,0.5,0.7,0.8,1c0,0,0.1,0,0.1,0c0.7,0.9,1.4,1.9,2,2.8
		c0,0,0.1,0.1,0.1,0.1c0.5,1.1,1,2.2,1.4,3.3C410,108.9,408,109.9,406,110.8z"/>
	<path class="st7" d="M65.9,95.5c0-0.2,0.1-0.4,0.4-0.5c0.4-0.5,0.9-1,1.3-1.5c0,0,0.1-0.1,0.1-0.1c0.2-0.3,0.5-0.6,0.7-0.8
		c0,0,0.2-0.3,0.2-0.3c1.2-1.4,2.4-2.9,3.5-4.3c0,0,0,0,0,0c0.5-0.5,0.9-1,1.4-1.5c0,0,0.1-0.1,0.1-0.1c0.3-0.3,0.5-0.6,0.8-0.8
		c0,0,0.2-0.2,0.2-0.2c4.9-5,9.9-9.9,14.8-14.9c0,0,0.3-0.2,0.3-0.2c0.2-0.2,0.5-0.5,0.7-0.7c0,0,0.3-0.2,0.3-0.2
		c0.3-0.3,0.6-0.5,0.8-0.8c0,0,0.2-0.1,0.2-0.1c0.3-0.3,0.6-0.6,0.9-0.8c0,0,0.1-0.1,0.1-0.1c0.3-0.3,0.7-0.6,1-0.9
		c0,0,0.1-0.1,0.1-0.1c1.2-1,2.4-2,3.7-3.1c0,0,0.3-0.2,0.3-0.2c0.3-0.2,0.6-0.5,0.8-0.7c0,0,0.2-0.1,0.2-0.1c0.3-0.3,0.7-0.5,1-0.8
		l0.1,0.2c0,0,0-0.3,0-0.3c0.4-0.3,0.7-0.6,1.1-0.9c0,0,0,0,0,0c0.5-0.4,1.1-0.9,1.6-1.3c0,0,0.2-0.1,0.2-0.1
		c0.3-0.2,0.6-0.5,0.9-0.7c0,0,0.1-0.1,0.1-0.1c0.4-0.3,0.7-0.6,1.1-0.9c0,0,0,0,0,0c1-0.7,1.9-1.4,2.9-2.1c0,0,0.1-0.1,0.1-0.1
		c0.9-0.7,1.8-1.3,2.7-2c0,0,0.2-0.2,0.2-0.2c1.3-0.9,2.7-1.8,4-2.7c0,0,0.1-0.1,0.1-0.1c1-0.6,2-1.3,3-1.9c0,0,0.3,0.3,0.3,0.3
		s-0.3-0.3-0.3-0.3c1.6-1,3.2-2.1,4.8-3.1c0,0,0.2-0.1,0.2-0.1c1.7-0.9,3.3-1.9,5-2.8c0,0,0.1,0,0.1,0c1.4-0.3,2.8-0.5,4.2-1.1
		c14.3-5.9,28.6-11.9,42.9-17.9c1.1-0.5,2.1-1.3,3.2-2c0.7-0.2,1.4-0.4,2.1-0.5c1.1-0.3,2.1-0.6,3.1-0.8c0.6-0.1,1.2-0.2,1.8-0.4
		c0.8,0.4,1.5,0.8,2.3,1.2c-0.1,1.3-0.2,2.6-0.4,3.9c-4.1,1.2-8.3,2.4-12.4,3.7c-18.2,5.6-34.6,14.6-50.1,25.4
		c-1.9,0.4-4.2,0.3-5.7,1.2c-16.4,10.3-30.8,23.1-43.2,38c-4,4.9-7,10.6-10.5,15.9c-1.6-0.8-3.3-1.5-4.9-2.3
		c0.2-1.4,0.4-2.8,0.5-4.3c0,0,0.1-0.1,0.1-0.1c0.7-1,1.4-1.9,2.1-2.9c0,0,0,0,0,0c0.3-0.4,0.6-0.7,0.8-1.1c0,0,0.1-0.1,0.1-0.1
		c0.2-0.3,0.5-0.6,0.7-0.9c0,0,0.2-0.2,0.2-0.2C65,96.7,65.4,96.1,65.9,95.5z"/>
	<path class="st5" d="M60.5,102.6c-0.2,1.4-0.4,2.8-0.5,4.3c-4.8,7.6-9.7,15.2-14.5,22.9c-0.6,1-0.5,2.5-0.7,3.7
		c-1,1.2-2.3,2.3-3,3.6c-2.3,4.8-4.5,9.8-6.7,14.7c-0.7,3.3-1.4,6.6-2.1,9.9c-2,5.8-4.1,11.5-6.1,17.3c-1.3,6.8-2.6,13.6-3.9,20.4
		c-3.1,20.2-3.3,40.4-0.1,60.7c1.4,6.8,2.8,13.7,4.1,20.5c1.8,5.8,3.6,11.6,5.5,17.4c2.1,6.1,4,12.3,6.4,18.2
		c1.5,3.6,3.8,6.8,5.7,10.3c3.1,5.9,6.2,11.8,9.3,17.7c0,0.8,0,1.6,0,2.4c-0.4,0.2-0.7,0.3-1.1,0.5c-3.7-6.7-7.7-13.3-11.2-20.1
		c-17.6-34.6-25-71.5-22.7-110.2c2.4-41.5,16.1-79.3,40.3-113.1C59.7,103.1,60.2,102.9,60.5,102.6z"/>
	<path class="st8" d="M438,199c1.4,0.2,2.7,0.4,4.1,0.6c0,1.2,0,2.3,0,3.5c-0.3,10.5-0.5,21-1,31.4c-0.4,8.4-1.2,16.7-1.8,25.1
		c-1.1,0.2-2.1,0.3-3.2,0.5c-2-0.1-4-0.3-6-0.4c0.3-2.6,0.5-5.2,0.9-7.8c1.7-11.4,3.8-22.7,5-34.1c0.6-6-0.5-12.1-0.8-18.2
		C436,199.4,437,199.2,438,199z"/>
	<path class="st9" d="M439.2,259.7c0.6-8.4,1.4-16.7,1.8-25.1c0.5-10.5,0.7-21,1-31.4c0-1.2,0-2.3,0-3.5c1.3-0.1,2.7-0.2,4-0.3
		c0.8,6.7,2.2,13.4,2.1,20.1c-0.2,13.5-1.1,27-1.8,40.5C444,259.9,441.6,259.8,439.2,259.7z"/>
	<path class="st5" d="M446.4,260c0.6-13.5,1.6-27,1.8-40.5c0.1-6.7-1.4-13.4-2.1-20.1c0.2-1.1,0.4-2.2,0.5-3.3c0.5,0,1,0,1.5,0
		c0.9,8.4,2.7,16.8,2.6,25.1c-0.2,12.7-1.1,25.4-2.8,38c-1.5,11.6-4.3,23-6.7,34.5c-0.7,3.5-1.1,3.4-3.6,1.7
		c1.5-4.9,2.9-9.9,4.4-14.8C443.5,273.7,445,266.9,446.4,260z"/>
	<path class="st5" d="M187.2,21c-0.8-0.4-1.5-0.8-2.3-1.2c11.1-1.9,22.1-4.5,33.3-5.4c24.3-2,48.3-0.2,71.9,6.7
		c-0.6,0.6-1.1,1.2-1.7,1.8c-6.8-1.4-13.5-2.8-20.3-4.2c-0.6-0.3-1.2-0.7-1.8-0.8c-15-0.7-30-1.5-45-1.9c-4.7-0.1-9.4,1.1-14.2,1.8
		C200.5,18.9,193.8,19.9,187.2,21z"/>
	<path class="st6" d="M437,178.7c-0.3,0.2-0.7,0.3-1,0.5c-3.3,0-6.7,0.1-10,0.1c-3.3,0-6.7,0-10,0c-2.3-0.1-4.7-0.3-8.2-0.5
		c3.5-2,5.9-3.3,8.3-4.7c3.3-1.7,6.7-3.3,10-5c2.3-1.1,4.6-2.2,6.9-3.3c0.3,0,0.7,0.1,1,0.1C435,170.2,436,174.4,437,178.7z"/>
	<path class="st10" d="M410,120.6c0.3,0,0.7,0.1,1,0.1c3.1,5.7,6.2,11.5,9.3,17.2c-1.9,1.2-3.9,2.4-5.8,3.6c-1.5,0.5-2.9,1-4.4,1.5
		c-2.6-5.6-5.2-11.3-7.9-16.9c-0.1-0.3-0.9-0.3-1.4-0.5C403.9,124.1,406.9,122.4,410,120.6z"/>
	<path class="st2" d="M426,179.2c3.3,0,6.7-0.1,10-0.1c0.7,6.6,1.3,13.3,2,19.9c-1,0.2-2,0.4-2.9,0.6c-2.3-0.2-4.7-0.4-7-0.6
		C427.3,192.4,426.7,185.8,426,179.2z"/>
	<path class="st2" d="M66,350c-1.3,0.4-2.6,0.9-3.9,1.3c-1.4-3-2.7-6-4.1-9c0.4-0.4,0.8-0.8,1.2-1.2c1.9-1,3.9-2,5.8-3
		c3-1.3,6-2.6,9-3.9c1.4,3,2.7,6.1,4.1,9.1C74.1,345.6,70.1,347.8,66,350z"/>
	<path class="st8" d="M427.8,302c0.4,0.6,0.8,1.2,1.2,1.8c-2.4,5.9-4.8,11.7-7.2,17.6c-0.6-0.1-1.3-0.3-1.9-0.4
		c-1.7-1-3.3-2.1-5-3.1c1.1-3.6,2.3-7.2,3.4-10.8c0.8-2.6,1.7-5.3,2.6-7.9C423.3,300.1,425.6,301,427.8,302z"/>
	<path class="st2" d="M427.8,302c-2.3-0.9-4.6-1.9-6.8-2.8c-1.7-1.1-3.3-2.1-5-3.2c0.7-3.3,1.3-6.6,2-9.8c4.6,2,9.2,4.1,13.7,6.1
		c0.5,0.5,0.9,0.9,1.4,1.4C431.5,296.5,432.3,300.9,427.8,302z"/>
	<path class="st5" d="M416.1,116.9c2.5-1,2.7-1.1,4.2,2c6,12.5,12.2,25.1,17.7,37.8c2.7,6.2,4.3,12.9,6.2,19.4
		c0.5,1.6,0.5,3.4-0.4,5.3c-0.3-0.8-0.6-1.5-1-2.3c-1.7-5.1-3.3-10.2-5-15.3c-3.9-9.5-7.9-18.9-11.8-28.4
		C422.8,129.2,419.5,123.1,416.1,116.9z"/>
	<path class="st2" d="M410,120.6c-3,1.7-6.1,3.4-9.1,5.2c-1.6,0.6-3.2,1.2-4.9,1.8c-1.3-2.9-2.6-5.8-4-8.7c3.7-2,7.4-4,11.1-6
		c0.3-0.2,0.6-0.4,0.9-0.6c0.4-0.1,0.8-0.2,1.1-0.3C406.7,114.8,408.4,117.7,410,120.6z"/>
	<path class="st8" d="M416.1,116.9c3.3,6.1,6.7,12.3,10,18.4c-1.4,0.8-2.7,1.7-4.1,2.5c-0.6,0-1.1,0.1-1.7,0.1
		c-3.1-5.7-6.2-11.5-9.3-17.2C412.7,119.5,414.4,118.2,416.1,116.9z"/>
	<path class="st9" d="M59.2,341c-0.4,0.4-0.8,0.8-1.2,1.2c-1.3,0.6-2.6,1.2-3.9,1.8c-3.1-5.9-6.2-11.8-9.3-17.7
		c1.1-0.7,2.2-1.4,3.3-2.1c0.6-0.1,1.3-0.2,1.9-0.3C53.1,329.6,56.2,335.3,59.2,341z"/>
	<path class="st9" d="M421.9,321.4c2.4-5.9,4.8-11.7,7.2-17.6c1.8,0.7,3.7,1.4,5.5,2.1c-2.2,6-4.3,12.1-6.5,18.1c0,0,0.1,0,0.1,0
		c-0.5,0-1.1,0-1.6,0C425,323.1,423.5,322.2,421.9,321.4z"/>
	<path class="st4" d="M433.1,293.6c-0.5-0.5-0.9-0.9-1.4-1.4c1.1-3.8,2.2-7.6,3.4-11.4c2.3-0.1,4.7-0.2,7-0.2
		c-1.5,4.9-2.9,9.9-4.4,14.8C436.2,294.8,434.6,294.2,433.1,293.6z"/>
	<path class="st5" d="M177.9,21.5c-1.1,0.7-2,1.5-3.2,2c-14.3,6-28.6,12-42.9,17.9c-1.3,0.5-2.8,0.7-4.2,1.1
		c9.8-4.8,19.4-10.1,29.3-14.4C163.7,25.2,170.9,23.6,177.9,21.5z"/>
	<path class="st7" d="M437.9,163.8c1.7,5.1,3.3,10.2,5,15.3c-2-0.1-3.9-0.3-5.9-0.4c-1-4.2-2-8.5-3-12.7
		C435.3,165.2,436.6,164.5,437.9,163.8z"/>
	<path class="st5" d="M346.1,44.8c-1.7-0.5-3.5-0.8-5.1-1.5c-10.7-4.9-21.3-9.9-31.9-15c-1.4-0.7-2.7-1.8-4-2.7
		C319.7,30,333.4,36.3,346.1,44.8z"/>
	<path class="st5" d="M89.3,70.4c-4.9,5-9.9,9.9-14.8,14.9C79.5,80.3,84.4,75.4,89.3,70.4z"/>
	<path class="st5" d="M428.1,324c2.2-6,4.3-12.1,6.5-18.1c0.5,0.5,1.5,1.2,1.4,1.4C433.4,312.9,430.7,318.4,428.1,324z"/>
	<path class="st5" d="M303,24.9c-3.7-1.1-7.3-2.2-11-3.3C295.7,22.7,299.4,23.8,303,24.9z"/>
	<path class="st5" d="M363.3,56.4c-2.3-1.6-4.6-3.3-7-4.9C358.7,53.1,361,54.8,363.3,56.4z"/>
	<path class="st5" d="M127.6,42.5c-1.7,0.9-3.3,1.9-5,2.8C124.3,44.4,126,43.5,127.6,42.5z"/>
	<path class="st5" d="M72.1,88c-1.2,1.4-2.4,2.9-3.5,4.3C69.7,90.8,70.9,89.4,72.1,88z"/>
	<path class="st5" d="M122.5,45.5c-1.6,1-3.2,2.1-4.8,3.1C119.3,47.5,120.9,46.5,122.5,45.5z"/>
	<path class="st5" d="M114.7,50.5c-1.3,0.9-2.7,1.8-4,2.7C112,52.3,113.3,51.4,114.7,50.5z"/>
	<path class="st5" d="M378.3,68.6c-1.2-1.1-2.4-2.1-3.6-3.2C375.8,66.5,377.1,67.5,378.3,68.6z"/>
	<path class="st5" d="M97.4,63.4c-1.2,1-2.4,2-3.7,3.1C94.9,65.5,96.1,64.4,97.4,63.4z"/>
	<path class="st5" d="M399.5,90.3c-1.1-1.3-2.2-2.5-3.3-3.8C397.3,87.8,398.4,89,399.5,90.3z"/>
	<path class="st5" d="M350.3,47.5c-1.4-0.9-2.8-1.8-4.2-2.7C347.5,45.7,348.9,46.6,350.3,47.5z"/>
	<path class="st5" d="M183.1,20.1c-1,0.3-2.1,0.6-3.1,0.8C181,20.7,182.1,20.4,183.1,20.1z"/>
	<path class="st5" d="M371.2,62.6c-0.9-0.7-1.8-1.4-2.7-2.2C369.4,61.2,370.3,61.9,371.2,62.6z"/>
	<path class="st5" d="M62.7,99.6c-0.7,1-1.4,1.9-2.1,2.9C61.3,101.6,62,100.6,62.7,99.6z"/>
	<path class="st5" d="M410.4,104.4c-0.7-0.9-1.4-1.9-2-2.8C409.1,102.5,409.7,103.5,410.4,104.4z"/>
	<path class="st5" d="M366.2,58.7c-0.9-0.7-1.9-1.4-2.8-2.2C364.3,57.2,365.3,57.9,366.2,58.7z"/>
	<path class="st5" d="M110.4,53.4c-0.9,0.7-1.8,1.3-2.7,2C108.6,54.8,109.5,54.1,110.4,53.4z"/>
	<path class="st5" d="M117.7,48.6c-1,0.6-2,1.3-3,1.9C115.7,49.8,116.7,49.2,117.7,48.6z"/>
	<path class="st5" d="M353.3,49.4c-1-0.6-2-1.3-3-1.9C351.3,48.2,352.3,48.8,353.3,49.4z"/>
	<path class="st5" d="M404.4,96.4c-0.7-0.9-1.5-1.8-2.2-2.8C403,94.6,403.7,95.5,404.4,96.4z"/>
	<path class="st5" d="M412,107.9c-0.5-1.1-1-2.2-1.4-3.3C411,105.7,411.5,106.8,412,107.9z"/>
	<path class="st5" d="M407.5,100.4c-0.7-0.9-1.4-1.8-2.1-2.7C406,98.5,406.7,99.5,407.5,100.4z"/>
	<path class="st5" d="M107.6,55.5c-1,0.7-1.9,1.4-2.9,2.1C105.7,56.9,106.7,56.2,107.6,55.5z"/>
	<path class="st5" d="M400.9,92c-0.5-0.5-0.9-1-1.3-1.5C400,91,400.5,91.5,400.9,92z"/>
	<path class="st5" d="M67.5,93.5c-0.4,0.5-0.9,1-1.3,1.5C66.6,94.5,67.1,94,67.5,93.5z"/>
	<path class="st5" d="M355.2,50.7c-0.6-0.4-1.2-0.8-1.8-1.2C354,49.9,354.6,50.3,355.2,50.7z"/>
	<path class="st5" d="M102.4,59.4c-0.5,0.4-1.1,0.9-1.6,1.3C101.4,60.3,101.9,59.8,102.4,59.4z"/>
	<path class="st5" d="M73.5,86.5c-0.5,0.5-0.9,1-1.4,1.5C72.6,87.5,73,87,73.5,86.5z"/>
	<path class="st5" d="M65.9,95.5c-0.4,0.6-0.9,1.2-1.3,1.8C65,96.7,65.4,96.1,65.9,95.5z"/>
	<path class="st5" d="M74.4,85.5c-0.3,0.3-0.5,0.6-0.8,0.8C73.9,86.1,74.1,85.8,74.4,85.5z"/>
	<path class="st5" d="M395.5,85.7c-0.4-0.4-0.8-0.7-1.1-1.1C394.7,84.9,395.1,85.3,395.5,85.7z"/>
	<path class="st5" d="M394.3,84.5c-0.3-0.3-0.6-0.6-0.9-0.9C393.7,83.9,394,84.2,394.3,84.5z"/>
	<path class="st5" d="M393.3,83.5c-0.3-0.3-0.6-0.6-0.8-0.9C392.8,82.9,393.1,83.2,393.3,83.5z"/>
	<path class="st5" d="M374.4,65.2c-0.3-0.2-0.6-0.5-0.8-0.7C373.8,64.7,374.1,65,374.4,65.2z"/>
	<path class="st5" d="M373.3,64.4c-0.3-0.3-0.7-0.5-1-0.8C372.7,63.8,373,64.1,373.3,64.4z"/>
	<path class="st5" d="M392.4,82.4c-0.3-0.3-0.6-0.6-0.8-0.9C391.8,81.8,392.1,82.1,392.4,82.4z"/>
	<path class="st5" d="M372.3,63.5c-0.4-0.3-0.7-0.6-1.1-0.9C371.6,62.9,371.9,63.2,372.3,63.5z"/>
	<path class="st5" d="M98.5,62.5c-0.3,0.2-0.6,0.5-0.8,0.7C97.9,63,98.2,62.8,98.5,62.5z"/>
	<path class="st5" d="M391.4,81.3c-0.3-0.3-0.5-0.5-0.8-0.8C390.8,80.8,391.1,81.1,391.4,81.3z"/>
	<path class="st5" d="M390.4,80.3c-0.3-0.3-0.5-0.5-0.8-0.8C389.8,79.8,390.1,80,390.4,80.3z"/>
	<path class="st5" d="M389.4,79.3c-0.3-0.3-0.5-0.5-0.8-0.8C388.9,78.8,389.1,79,389.4,79.3z"/>
	<path class="st5" d="M99.7,61.6c-0.3,0.3-0.7,0.5-1,0.8C99,62.1,99.4,61.9,99.7,61.6z"/>
	<path class="st5" d="M388.4,78.3c-0.3-0.3-0.5-0.5-0.8-0.8C387.9,77.8,388.1,78,388.4,78.3z"/>
	<path class="st5" d="M387.4,77.3c-0.3-0.3-0.5-0.5-0.8-0.8C386.9,76.8,387.1,77,387.4,77.3z"/>
	<path class="st5" d="M386.4,76.3c-0.3-0.3-0.5-0.5-0.8-0.8C385.8,75.8,386.1,76,386.4,76.3z"/>
	<path class="st5" d="M100.8,60.7c-0.4,0.3-0.7,0.6-1.1,0.9C100.1,61.3,100.5,61,100.8,60.7z"/>
	<path class="st5" d="M368.3,60.4c-0.3-0.3-0.7-0.5-1-0.8C367.7,59.8,368,60.1,368.3,60.4z"/>
	<path class="st5" d="M385.4,75.3c-0.3-0.3-0.5-0.5-0.8-0.8C384.8,74.8,385.1,75,385.4,75.3z"/>
	<path class="st5" d="M384.4,74.3c-0.3-0.3-0.5-0.5-0.8-0.8C383.8,73.8,384.1,74,384.4,74.3z"/>
	<path class="st5" d="M383.4,73.3c-0.3-0.3-0.6-0.5-0.8-0.8C382.8,72.8,383.1,73,383.4,73.3z"/>
	<path class="st5" d="M367.3,59.6c-0.4-0.3-0.7-0.6-1.1-0.9C366.6,59,366.9,59.3,367.3,59.6z"/>
	<path class="st5" d="M103.6,58.5c-0.3,0.2-0.6,0.5-0.9,0.7C103,59,103.3,58.8,103.6,58.5z"/>
	<path class="st5" d="M104.8,57.6c-0.4,0.3-0.7,0.6-1.1,0.9C104,58.2,104.4,57.9,104.8,57.6z"/>
	<path class="st5" d="M381.3,71.4c-0.3-0.3-0.6-0.6-0.9-0.9C380.7,70.8,381,71.1,381.3,71.4z"/>
	<path class="st5" d="M408.3,101.6c-0.3-0.3-0.5-0.7-0.8-1C407.8,100.9,408.1,101.2,408.3,101.6z"/>
	<path class="st5" d="M382.4,72.4c-0.3-0.3-0.6-0.5-0.9-0.8C381.7,71.8,382.1,72.1,382.4,72.4z"/>
	<path class="st5" d="M63.6,98.6c-0.3,0.4-0.6,0.7-0.8,1.1C63,99.3,63.3,98.9,63.6,98.6z"/>
	<path class="st5" d="M64.4,97.5c-0.2,0.3-0.5,0.6-0.7,0.9C63.9,98.2,64.1,97.9,64.4,97.5z"/>
	<path class="st5" d="M405.3,97.6c-0.3-0.3-0.6-0.7-0.8-1.1C404.7,96.9,405,97.3,405.3,97.6z"/>
	<path class="st5" d="M356.3,51.5c-0.4-0.3-0.8-0.5-1.1-0.8C355.5,50.9,355.9,51.2,356.3,51.5z"/>
	<path class="st5" d="M380.3,70.5c-0.3-0.3-0.6-0.6-1-0.9C379.7,69.9,380,70.2,380.3,70.5z"/>
	<path class="st5" d="M402.2,93.7c-0.3-0.4-0.7-0.9-1-1.3C401.5,92.8,401.9,93.3,402.2,93.7z"/>
	<path class="st5" d="M90.4,69.5c-0.2,0.2-0.5,0.5-0.7,0.7C89.9,70,90.1,69.7,90.4,69.5z"/>
	<path class="st5" d="M379.3,69.5c-0.3-0.3-0.7-0.6-1-0.9C378.6,68.9,379,69.2,379.3,69.5z"/>
	<path class="st5" d="M91.5,68.5c-0.3,0.3-0.6,0.5-0.8,0.8C90.9,69,91.2,68.8,91.5,68.5z"/>
	<path class="st5" d="M92.6,67.5c-0.3,0.3-0.6,0.6-0.9,0.8C92,68.1,92.3,67.8,92.6,67.5z"/>
	<path class="st5" d="M93.7,66.6c-0.3,0.3-0.6,0.6-1,0.9C93,67.2,93.3,66.9,93.7,66.6z"/>
	<path class="st5" d="M68.3,92.5c-0.2,0.3-0.5,0.6-0.7,0.8C67.9,93.1,68.1,92.8,68.3,92.5z"/>
	<path class="st11" d="M78.1,343.3c-1.4-3-2.7-6.1-4.1-9.1c5.7-3,11.4-6,17.1-9c11.3-5.6,22.7-11.2,34-16.8
		c18.2-9,36.4-17.9,54.6-26.9c-0.2-0.4-0.3-0.8-0.5-1.2c-13.6,0-27.2,0-40.8,0c-1.4,0-3,0.5-4.3,1.1c-8.1,4.1-16.2,8.3-24.2,12.4
		c-10.7,5.4-21.3,10.7-32,16.1c-4.3,2-8.7,3.9-13,5.9c-0.5-2-0.9-4.1-1.6-6.1c-2.8-7.5-5.7-14.9-8.6-22.4c3.7-2,7.5-4,12.2-6.6
		c-3.2-0.3-4.9-0.5-6.7-0.6c-2.6-0.2-5.2-0.3-7.2-0.5c-1.8-6.8-3.5-13.1-5.1-19.4c2.3-0.2,4.7-0.3,7-0.5c7.7,0,15.3,0,23,0
		c2,0.1,4,0.2,6,0.2c39,0,77.9,0,116.9,0c2,0,3.9,0,6.3,0c0,3.2,0,5.8,0,8.4c0.1,25.5,0.2,50.9,0.3,76.4c0,6.7,0.1,13.3,0.1,20
		c0.1,10.1,0.1,20.1,0.2,30.2c0,4.3,0.1,8.6,0.1,12.9c-0.2,2.6-0.4,5.3-0.5,7.9c-6.4-1-12.9-2-19.3-3c-0.4-3.7-0.7-7.3-1.1-11
		c-0.1-0.4-0.1-0.7-0.2-1.1c0-3,0-6,0-9c0-3.3,0-6.6,0-10c0.1-4.7,0.1-9.3,0.2-14c0-1,0-2-0.1-3.1c0-1-0.1-2-0.1-3
		c0-5.7,0-11.3,0-17c0-18.3,0-36.7,0-55.6c-2.1,1-3.6,1.7-5.1,2.4c-15.3,7.7-30.7,15.3-46,23c-2.3,1.2-4.5,2.6-6.8,3.9
		c-5.3,2.7-10.7,5.3-16,8c-6.7,3.3-13.3,6.7-20,10C88,338.9,83.1,341.1,78.1,343.3z"/>
	<path class="st12" d="M78.1,343.3c4.9-2.2,9.8-4.4,14.8-6.6c1.5,1.5,2.9,3.2,4.6,4.4c6.6,4.4,13.2,8.8,20,13
		c21.4,13.3,44.7,22.2,69.3,27.8c0,3.3,0,6.6,0,10c-13.5-2.4-27-4.4-40.4-7.4c-19.3-4.3-38.3-10.2-57.8-13.9
		C76.1,368.2,71.4,359.1,66,350C70.1,347.8,74.1,345.6,78.1,343.3z"/>
	<path class="st13" d="M186.7,400.8c0.1,0.4,0.1,0.7,0.2,1.1c0,5,0,10,0,15.1c-0.1,1.6-0.1,3.3-0.2,4.9c-5.3-0.3-10.5-0.6-15.8-1
		c-8.5-0.6-17.1-1.4-25.6-1.9c-2.2-0.1-4.5,0.7-6.7,1.1c-7.4-4-15.1-7.5-22-12.2c-7.6-5.1-14.5-11.3-21.7-17
		c7.3,1.4,14.5,2.8,21.8,4c10.2,1.7,20.4,3.9,30.7,4.7C160.5,400.7,173.7,400.5,186.7,400.8z"/>
	<path class="st4" d="M410.2,350.3c-1,2-1.6,4.4-3,6c-8.6,10-17.4,19.9-26.2,29.8c-1.1,1.2-2.7,1.9-4,2.9c-2.6,0.3-5.3,0.3-7.8,1.1
		c-10.6,3.2-20.9,7.9-31.7,9.6c-16.1,2.5-32.4,3-48.7,4.3c0-4,0-8,0-12c0.4-0.3,0.7-0.6,1.1-1c7.3-1.2,14.8-1.9,22-3.7
		c22.1-5.5,44-12.1,66.3-17.1c13.3-2.9,19.2-12.8,25.8-22.6c0.9,0.1,1.9,0.3,2.8,0.4C408,348.8,409.1,349.5,410.2,350.3z"/>
	<path class="st13" d="M288.9,403.9c16.2-1.3,32.6-1.8,48.7-4.3c10.8-1.7,21.1-6.4,31.7-9.6c2.5-0.7,5.2-0.7,7.8-1.1
		c-12.1,8.9-24.2,17.8-36.4,26.5c-2,1.4-4.4,2.3-6.6,3.4c-2.8-0.3-5.5-1.1-8.2-0.9c-12.3,0.8-24.6,1.9-36.9,3
		c-0.2-2.7-0.4-5.4-0.6-8.1C288.5,409.9,288.7,406.9,288.9,403.9z"/>
	<path class="st14" d="M269,439.8c-4.5,1-8.9,2.8-13.4,2.8c-16.2,0-32.4-0.5-48.6-0.8c0-2.3,0-4.6,0.1-6.9c0-2.7,0-5.4,0-8
		c0.3-1.3,0.6-2.6,0.8-3.9c19.7,0,39.3-0.1,59-0.1c0.4,1.7,0.8,3.3,1.2,5C268.4,431.9,268.7,435.8,269,439.8z"/>
	<path class="st15" d="M138.6,420.1c2.2-0.4,4.5-1.2,6.7-1.1c8.5,0.5,17.1,1.2,25.6,1.9c5.3,0.4,10.5,0.7,15.8,1
		c0.1,0.7,0.3,1.3,0.4,2c0,2.7-0.1,5.3-0.1,8c0,2,0,4,0,6c-10.9-3.2-21.9-6.2-32.6-9.8C148.9,426.1,143.9,422.8,138.6,420.1z"/>
	<path class="st15" d="M288.9,421c12.3-1,24.6-2.1,36.9-3c2.7-0.2,5.5,0.6,8.2,0.9c-13.6,5.5-27.2,11-40.9,16.5
		c-1.2,0.5-2.6,0.5-3.9,0.7c-0.3-3.4-0.5-6.9-0.8-10.3C288.6,424.2,288.8,422.6,288.9,421z"/>
	<path class="st3" d="M288.5,425.8c0.3,3.4,0.5,6.9,0.8,10.3c-6.8,1.2-13.5,2.5-20.3,3.7c-0.3-4-0.6-8-0.9-12
		c1.9,0.1,3.9,0.4,5.7,0.2C278.7,427.4,283.6,426.6,288.5,425.8z"/>
	<path class="st3" d="M410.2,350.3c-1.1-0.7-2.2-1.5-3.3-2.2c1.6-3.2,3.3-6.3,4.9-9.5c2.8-5.9,5.5-11.8,8.2-17.7
		c0.6,0.1,1.3,0.3,1.9,0.4c1.5,0.9,3.1,1.7,4.6,2.6c-4.7,8.4-9.4,16.8-14.3,25.2C412,349.7,410.9,349.9,410.2,350.3z"/>
	<path class="st3" d="M187,437.8c0-2,0-4,0-6c6.7,1,13.4,2,20,3c0,2.3,0,4.6-0.1,6.9C200.4,440.5,193.7,439.2,187,437.8z"/>
	<path class="st11" d="M392,118.9c1.3,2.9,2.6,5.8,4,8.7c-2.3,1.4-4.7,2.8-7,4.2c-10.4,5.1-20.7,10.3-31.1,15.4
		c-20.8,10.2-41.5,20.5-62.3,30.7c13.4,1.1,26.4,1.2,39.3,1c2.7,0,5.6-0.8,8-2c15.1-7.5,30-15.3,45-23c6-2.7,12-5.4,18-8.1
		c0.3,0.9,0.6,1.9,0.9,2.8c3.1,8.5,6.1,16.9,9.2,25.4c-2.4,1.4-4.9,2.7-8.3,4.7c3.6,0.2,5.9,0.4,8.2,0.5c1,6.5,2,13.1,3,19.6
		c-2,0.2-3.9,0.4-5.9,0.6c-16.7,0-33.3,0.1-50,0.1c-1.8-0.2-3.6-0.4-5.4-0.4c-18.8,0-37.6,0-56.4,0c-10.8,0-21.6-0.2-32.4-0.3
		c-0.3-7-0.6-14-0.9-21c-0.1-7.7-0.1-15.3-0.2-23c0-8,0-16,0-24c0-10.7,0-21.3,0-32c0-17,0-34,0-51c0.3-4,0.6-8,0.9-12
		c6.4,1.3,12.8,2.7,19.3,4c0.2,3,0.4,6.1,0.6,9.1c0,9,0,18,0,27c0,7.3,0,14.6,0,22c0,6.3,0,12.7,0,19c0,17.5,0,35.1,0,53.3
		c2.6-1.3,4.6-2.1,6.5-3.1c18-9.2,36.1-18.5,54.1-27.6c11.2-5.7,22.5-11.1,33.7-16.7c1.7-0.8,3.4-1.7,5-2.5
		C389.4,119.8,390.7,119.4,392,118.9z"/>
	<path class="st16" d="M288.6,97.9c0-7.3,0-14.6,0-22c1.8,0.3,3.6,0.8,5.4,0.9c13.4,0.7,26.8,1.3,40.2,2c11.3,0.6,22.2,3.2,32.8,7.3
		c2.5,1,5.5,1,8.2,1.5c2.9,6.1,5.8,12.1,8.7,18.2c-1.8-0.3-3.6-0.4-5.3-1c-10.3-3.4-20.8-5.1-31.6-5c-13.4,0.1-26.9,0.2-40.3-0.1
		C300.6,99.7,294.6,98.6,288.6,97.9z"/>
	<path class="st17" d="M375.1,87.7c-2.7-0.5-5.7-0.5-8.2-1.5c-10.6-4.2-21.4-6.8-32.8-7.3c-13.4-0.7-26.8-1.3-40.2-2
		c-1.8-0.1-3.6-0.6-5.4-0.9c0-9,0-18,0-27c2.9,0.6,5.7,1.5,8.7,1.8c16.9,2.1,33.5,5.1,49.6,10.8c2.4,0.9,5.2,0.8,7.7,1.2
		c6,7.1,12.1,14.1,18.1,21.3C373.6,85.2,374.3,86.5,375.1,87.7z"/>
	<path class="st18" d="M288.6,97.9c6,0.7,12,1.8,18,1.9c13.4,0.3,26.9,0.2,40.3,0.1c10.8-0.1,21.3,1.6,31.6,5c1.7,0.6,3.5,0.7,5.3,1
		c1.4,4.8,2.8,9.6,4.2,14.4c-1.7,0.8-3.4,1.7-5,2.5c-0.9-1-1.8-2.6-2.9-2.7c-7.2-0.9-14.5-2-21.7-2.1c-19.8-0.3-39.6,0-59.4-0.1
		c-3.5,0-6.9-0.6-10.3-0.9C288.6,110.6,288.6,104.3,288.6,97.9z"/>
	<path class="st15" d="M354.6,62.8c-2.6-0.4-5.3-0.3-7.7-1.2c-16.1-5.8-32.7-8.7-49.6-10.8c-2.9-0.4-5.8-1.2-8.7-1.8
		c-0.2-3-0.4-6.1-0.5-9.1c0.2-4.4,0.3-8.8,0.5-13.2c14.3,3.6,27.7,9.1,40,17.2c5.5,3.6,11,7.1,16.5,10.6
		C348.2,57.2,351.4,60,354.6,62.8z"/>
	<path class="st3" d="M404,112.3c-0.3,0.2-0.6,0.4-0.9,0.6C403.4,112.7,403.7,112.5,404,112.3z"/>
	<path class="st1" d="M288.5,26.7c-0.2,4.4-0.3,8.8-0.5,13.2c-6.4-1.3-12.8-2.7-19.3-4c0-4.4,0-8.8-0.1-13.1
		c6.4,1.1,12.9,2.1,19.3,3.2C288.3,26.1,288.4,26.4,288.5,26.7z"/>
	<path class="st3" d="M288,25.9c-6.4-1.1-12.9-2.1-19.3-3.2c-0.3-0.3-0.6-0.6-0.9-0.9c0.1-1,0.2-2.1,0.3-3.1
		c6.8,1.4,13.5,2.8,20.3,4.2C288.3,23.9,288.1,24.9,288,25.9z"/>
	<path class="st15" d="M124.3,54c15.5-10.8,31.9-19.9,50.1-25.4c4.1-1.3,8.3-2.5,12.4-3.7c0,0,0.3,0,0.3,0s0.3,0,0.3,0
		c-0.1,3.7-0.1,7.4-0.2,11c-0.1,5-0.3,10-0.4,15c-9.6,1.2-19.4,1.7-28.9,3.7c-13.7,2.9-27.1,6.9-40.7,10.3c-0.9,0.2-2.1-0.7-3.2-1.1
		C117.4,60.5,120.8,57.2,124.3,54z"/>
	<path class="st6" d="M124.3,54c-3.4,3.3-6.9,6.5-10.3,9.8c-3,2.9-6.5,5.5-9,8.8c-4.4,5.9-8.2,12.2-12.3,18.3c-1.6,3-3.1,6-4.7,9
		c-1.4,3.9-2.6,7.9-4.2,11.7c-0.8,2-2,3.7-3.1,5.6c-0.9-0.3-1.7-0.6-2.6-0.9c-4-2-8-4-11.9-6c-0.4-0.4-0.9-0.7-1.3-1.1
		c3.5-5.3,6.5-11.1,10.5-15.9c12.4-14.9,26.8-27.6,43.2-38C120.1,54.2,122.3,54.4,124.3,54z"/>
	<path class="st3" d="M64.9,109.1c0.4,0.4,0.9,0.7,1.3,1.1c-2.1,3.4-4.3,6.7-6.2,10.2c-2.8,5.3-5.3,10.8-8,16.2
		c-1.7-0.6-3.3-1.2-5-1.8c-0.7-0.4-1.5-0.9-2.2-1.3c0.2-1.2,0.1-2.7,0.7-3.7c4.7-7.7,9.6-15.3,14.5-22.9
		C61.6,107.6,63.3,108.4,64.9,109.1z"/>
	<path class="st3" d="M187.2,21c6.7-1,13.3-2.1,20-3.1c0,0.9,0.1,1.9,0.1,2.8c-0.1,0.4-0.2,0.8-0.2,1.2c-6.6,1-13.1,2-19.7,3l-0.3,0
		c0,0-0.3,0-0.3,0C186.9,23.6,187,22.3,187.2,21z"/>
	<path class="st8" d="M23.1,260c-3.2-20.2-3.1-40.4,0.1-60.7c3,0.1,5.9,0.2,8.9,0.4c0.7,12.2,1,24.4,2.1,36.6
		c0.7,7.8,2.5,15.6,3.9,23.4c-4,0.1-8,0.3-12,0.4C25,260.1,24.1,260.1,23.1,260z"/>
	<path class="st3" d="M32,199.7c-3-0.1-5.9-0.2-8.9-0.4c1.3-6.8,2.6-13.6,3.9-20.4c2.7-0.1,5.3-0.1,8-0.2c0.4,0.1,0.7,0.3,1.1,0.4
		c-0.7,6.6-1.4,13.2-2.1,19.8C33.3,199.3,32.7,199.5,32,199.7z"/>
	<path class="st3" d="M48.1,324.3c-1.1,0.7-2.2,1.4-3.3,2.1c-1.9-3.4-4.2-6.7-5.7-10.3c-2.4-6-4.3-12.1-6.4-18.2
		c1.4-0.5,2.7-1,4.1-1.6C40.5,305.7,44.3,315,48.1,324.3z"/>
	<path class="st7" d="M35,178.8c-2.7,0.1-5.3,0.1-8,0.2c2-5.8,4.1-11.5,6.1-17.3c1.7,1,3.3,2.1,5,3.1C37,169.5,36,174.1,35,178.8z"
		/>
	<path class="st4" d="M36.7,296.4c-1.4,0.5-2.7,1-4.1,1.6c-1.8-5.8-3.6-11.6-5.5-17.4c0.6-0.2,1.2-0.3,1.8-0.5
		c1.6,0.2,3.3,0.5,4.9,0.7c1,4.9,2.1,9.8,3.1,14.8C37.1,295.8,37,296.1,36.7,296.4z"/>
	<path class="st8" d="M44.8,133.5c0.7,0.4,1.5,0.9,2.2,1.3c-2.4,6.1-4.8,12.1-7.2,18.2c-1.5-0.4-3.1-0.8-4.6-1.2
		c2.2-4.9,4.4-9.9,6.7-14.7C42.5,135.7,43.8,134.7,44.8,133.5z"/>
	<path class="st3" d="M35.2,151.8c1.5,0.4,3.1,0.8,4.6,1.2c0.4,0.4,0.9,0.9,1.3,1.3c-0.9,4.4-3.9,9.1,1.9,12.4
		c-1.6-0.6-3.3-1.3-4.9-1.9c-1.7-1-3.3-2.1-5-3.1C33.8,158.4,34.5,155.1,35.2,151.8z"/>
	<path class="st3" d="M29,280c-0.6,0.2-1.2,0.3-1.8,0.5c-1.4-6.8-2.8-13.7-4.1-20.5c1,0.1,2,0.1,3,0.2C27,266.8,28,273.4,29,280z"/>
	<path class="st19" d="M413.1,199.6c2-0.2,3.9-0.4,5.9-0.6c3,0,6,0,9,0c2.3,0.2,4.7,0.4,7,0.6c0.3,6.1,1.4,12.2,0.8,18.2
		c-1.1,11.4-3.3,22.7-5,34.1c-0.4,2.6-0.6,5.2-0.9,7.8c-2.7,0.2-5.3,0.3-8,0.5c-0.3-0.2-0.7-0.3-1-0.5c0-1.9-0.4-3.9-0.1-5.8
		c1.8-9.9,4.4-19.7,5.6-29.7c0.9-7.8,0.2-15.8,0.2-24.2c-4.5,0-8.6,0-12.8,0C413.6,200,413.3,199.8,413.1,199.6z"/>
	<path class="st1" d="M422,260.3c2.7-0.2,5.3-0.3,8-0.5c2,0.1,4,0.3,6,0.4c-1,6.7-2,13.4-3.1,20.2c-4.7,0-9.3,0-14,0
		c0.1-3.2-0.2-6.5,0.3-9.6C419.8,267.2,421.1,263.8,422,260.3z"/>
	<path class="st3" d="M433,280.4c1-6.7,2-13.4,3.1-20.2c1.1-0.2,2.1-0.3,3.2-0.5c2.4,0.1,4.8,0.2,7.2,0.3
		c-1.4,6.9-2.9,13.7-4.3,20.6c-2.3,0.1-4.7,0.2-7,0.2C434.4,280.7,433.7,280.5,433,280.4z"/>
	<path class="st8" d="M207.3,20.6c0-0.9-0.1-1.9-0.1-2.8c4.7-0.6,9.5-1.9,14.2-1.8c15,0.4,30,1.2,45,1.9c0.6,0,1.2,0.5,1.8,0.8
		c-0.1,1-0.2,2.1-0.3,3.1c-12.1-0.9-24.1-2.2-36.2-2.6C223.5,19,215.4,20.1,207.3,20.6z"/>
	<path class="st1" d="M416.1,174.1c-3.1-8.5-6.1-16.9-9.2-25.4c-0.3-0.9-0.6-1.9-0.9-2.8c1.4-0.9,2.7-1.8,4.1-2.7
		c1.5-0.5,2.9-1,4.4-1.5c0.9,1.3,2.2,2.5,2.8,3.9c3,7.8,5.9,15.7,8.8,23.6C422.8,170.8,419.4,172.4,416.1,174.1z"/>
	<path class="st2" d="M426.1,169.1c-2.9-7.9-5.8-15.8-8.8-23.6c-0.6-1.5-1.8-2.6-2.8-3.9c1.9-1.2,3.9-2.4,5.8-3.6
		c0.6,0,1.1-0.1,1.7-0.1c3.7,9.3,7.3,18.6,11,27.9C430.7,166.9,428.4,168,426.1,169.1z"/>
	<path class="st1" d="M428,199c-3,0-6,0-9,0c-1-6.5-2-13.1-3-19.6c3.3,0,6.7,0,10,0C426.7,185.8,427.3,192.4,428,199z"/>
	<path class="st3" d="M433,165.8c-3.7-9.3-7.3-18.6-11-27.9c1.4-0.8,2.7-1.7,4.1-2.5c3.9,9.5,7.9,18.9,11.8,28.4
		c-1.3,0.7-2.6,1.4-3.9,2.2C433.7,165.9,433.3,165.8,433,165.8z"/>
	<path class="st20" d="M410.1,143.1c-1.4,0.9-2.7,1.8-4.1,2.7c-6,2.7-12,5.4-18,8.1c0-1.4,0-2.8,0-4.1c0.3-6,0.6-12.1,1-18.1
		c2.3-1.4,4.7-2.8,7-4.2c1.6-0.6,3.2-1.2,4.9-1.8c0.5,0.2,1.2,0.2,1.4,0.5C404.9,131.9,407.5,137.5,410.1,143.1z"/>
	<path class="st21" d="M91.1,325.2c-5.7,3-11.4,6-17.1,9c-3,1.3-6,2.6-9,3.9c-1-2.5-1.9-5.2-3-7.6c-1.6-3.4-3.4-6.6-5.1-9.9
		c2.7-1.6,5.4-3.2,8.1-4.7c4.3-2,8.7-3.9,13-5.9c1.2,1.1,2.5,2.1,3.5,3.3C84.8,317.2,87.9,321.2,91.1,325.2z"/>
	<path class="st8" d="M56.9,320.5c1.7,3.3,3.6,6.6,5.1,9.9c1.2,2.5,2,5.1,3,7.6c-1.9,1-3.9,2-5.8,3c-3.1-5.7-6.1-11.4-9.2-17.1
		c1.4-0.9,2.7-1.8,4.1-2.6C55,321.1,56,320.8,56.9,320.5z"/>
	<path class="st21" d="M416,296c1.7,1.1,3.3,2.1,5,3.2c-0.9,2.6-1.7,5.3-2.6,7.9c-1.1,3.6-2.3,7.2-3.4,10.8c-0.7,0-1.3-0.1-2-0.1
		c-3-1.6-6-3.1-9-4.7c-2-1.2-4.1-2.4-6.1-3.6c0.7-1.6,1.2-3.4,2.3-4.8c3.1-3.7,6.6-7.2,9.9-10.8C412,294.6,414,295.3,416,296z"/>
	<path class="st2" d="M413,317.7c0.7,0,1.3,0.1,2,0.1c1.7,1,3.3,2.1,5,3.1c-2.7,5.9-5.4,11.8-8.2,17.7c-1.5,3.2-3.2,6.3-4.9,9.5
		c-0.9-0.1-1.9-0.3-2.8-0.4c-1.8-1.2-3.6-2.4-5.4-3.6c4.5-7.2,9-14.3,13.3-21.5C412.9,321.2,412.7,319.4,413,317.7z"/>
	<path class="st11" d="M397.9,309.5c2,1.2,4.1,2.4,6.1,3.6c-2.6,5.3-5.1,10.7-7.7,16c-1.8,3.7-3.6,7.4-5.3,11
		c-1.3-0.5-2.6-1-3.9-1.5c-0.8-0.5-1.5-1.1-2.3-1.6c-2.2-0.7-4.5-1.5-6.7-2.2c-1.9-1.2-3.6-2.5-5.6-3.5c-4.4-2.2-9-4.2-13.4-6.3
		c-4-2-8-4-12-6c-19.3-9.9-38.5-19.9-58.3-30.1c0,20.2,0,39.1,0,58c0,1.3,0,2.7,0,4c0,0.7,0,1.3,0,2c0,4.3,0,8.7,0,13
		c0.1,8.7,0.1,17.4,0.2,26.1c0,4,0,8,0,12c-0.2,3-0.4,5.9-0.6,8.9c-6.7,1-13.4,2-20.1,3.1c-0.1-2.7-0.2-5.4-0.3-8
		c0.1-0.3,0.1-0.6,0.1-0.9c0-4.4,0-8.7,0-13.1c0-9.7,0-19.3-0.1-29c0-6,0-12,0-18c0-28.8,0-57.7,0-86.8c2.9,0,4.7,0,6.5,0
		c33.3,0,66.5,0,99.8,0c8,0,15.9-0.2,23.9-0.3c7.7,0,15.3,0,23,0c0.3,0.2,0.7,0.3,1,0.5c-0.9,3.5-2.2,6.9-2.7,10.5
		c-0.5,3.2-0.2,6.4-0.3,9.6c-2.9,0-5.8-0.1-8.7-0.1c-0.6,0.1-1.3,0.3-1.9,0.4c0.6,0.4,1.1,0.8,1.7,1.2c2.6,1.4,5.3,2.8,7.9,4.2
		c-0.7,3.3-1.3,6.6-2,9.8c-2-0.7-4-1.4-5.9-2.1c-6-3.1-11.9-6.2-17.9-9.3c-5.7-4.5-12.3-4.6-19.2-4.4c-6.8,0.2-13.6,0-20.5,0
		c-3.9,0-7.7,0-11.6,0c-0.1,0.4-0.1,0.8-0.2,1.2c13.1,6.4,26.2,12.8,39.3,19.2C386,303.5,391.9,306.5,397.9,309.5z"/>
	<path class="st12" d="M418,286.1c-2.6-1.4-5.3-2.8-7.9-4.2c0.1-0.5,0.2-1.1,0.3-1.6c2.9,0,5.8,0.1,8.7,0.1c4.7,0,9.3,0,14,0
		c0.7,0.1,1.4,0.3,2.1,0.4c-1.1,3.8-2.2,7.6-3.4,11.4C427.1,290.2,422.5,288.2,418,286.1z"/>
	<path class="st2" d="M54.1,321.3c-1.4,0.9-2.7,1.8-4.1,2.6c-0.6,0.1-1.3,0.2-1.9,0.3c-3.8-9.3-7.6-18.6-11.4-27.9
		c0.2-0.3,0.3-0.5,0.3-0.9c2.3-0.9,4.6-1.9,6.9-2.8c0.7,2.4,1.2,4.8,2,7C48.6,307,51.4,314.1,54.1,321.3z"/>
	<path class="st20" d="M398,259.8c-8,0.1-15.9,0.2-23.9,0.3c-33.3,0-66.5,0-99.8,0c-1.8,0-3.6,0-6.5,0c0,29.1,0,58,0,86.8
		c-3.6-0.6-7.3-1.7-10.9-1.8c-3.9-0.2-7.9,0.8-11.8,0.8c-12.5-0.2-25.1-0.6-37.6-1c-0.1-25.5-0.2-50.9-0.3-76.4c0-2.6,0-5.2,0-8.4
		c-2.4,0-4.4,0-6.3,0c-39,0-77.9,0-116.9,0c-2,0-4-0.2-6-0.2c0-2.5,0.7-5.4-0.2-7.5c-3.7-8.4-8.6-16.4-11.8-25
		c-3.4-9-5.3-18.6-7.9-27.9c16.3,0,32.6,0,49,0c4.7,4.8,9.3,9.7,14,14.5c7.3,5,14.7,10,22,15c1.1,0.9,2.2,2,3.5,2.7
		c23.1,11.9,47.9,18.5,73.7,20.1c20.5,1.3,41.1,0.1,61.2-4.9c16-4,31.5-9.3,45.6-17.9c6.7-4.7,13.3-9.3,20-14
		c3.5-2.7,7.1-5.1,10.4-8.1c2.2-2,3.8-4.7,5.7-7.2c16.7,0,33.3-0.1,50-0.1c0.2,0.3,0.5,0.4,0.8,0.5c1.1,17.2-6.1,32-13.6,46.7
		C398.1,251.1,395.5,254.8,398,259.8z"/>
	<path class="st22" d="M186.7,381.9c-24.6-5.6-47.8-14.4-69.3-27.8c-6.7-4.2-13.4-8.6-20-13c-1.7-1.2-3.1-2.9-4.6-4.4
		c6.7-3.3,13.3-6.7,20-10c0.6,0.9,1.1,2,1.9,2.6c21.8,15.7,45.8,26.4,71.9,32.6c0,1,0.1,2,0.1,3c0,1,0,2,0.1,3.1
		C186.9,372.6,186.8,377.2,186.7,381.9z"/>
	<path class="st21" d="M267.8,364.9c0,9.7,0,19.3,0.1,29c-0.3,0.3-0.7,0.7-1,1c-9.1,0.4-18.2,1-27.3,1c-10.6,0-21.2-0.5-31.8-0.8
		c-0.1-10.1-0.1-20.1-0.2-30.2c7.7,0.3,15.5,1,23.2,0.9C243.2,365.8,255.5,365.2,267.8,364.9z"/>
	<path class="st23" d="M128.9,318.7c2.3-1.3,4.5-2.8,6.8-3.9c15.3-7.7,30.6-15.4,46-23c1.5-0.7,3-1.4,5.1-2.4c0,18.9,0,37.2,0,55.6
		c-0.8,0-1.7,0.1-2.5-0.1c-18.7-5-36.3-12.5-52.7-22.8C130.5,321.2,129.8,319.8,128.9,318.7z"/>
	<path class="st24" d="M267.8,364.9c-12.3,0.3-24.7,0.9-37,0.9c-7.7,0-15.5-0.6-23.2-0.9c0-6.7-0.1-13.3-0.1-20
		c12.5,0.3,25.1,0.8,37.6,1c3.9,0.1,7.9-0.9,11.8-0.8c3.7,0.1,7.3,1.2,10.9,1.8C267.8,352.9,267.8,358.9,267.8,364.9z"/>
	<path class="st25" d="M128.9,318.7c0.9,1.1,1.6,2.5,2.7,3.3c16.4,10.4,34,17.8,52.7,22.8c0.8,0.2,1.7,0.1,2.5,0.1
		c0,5.7,0,11.3,0,17c-26.1-6.2-50.2-16.8-71.9-32.6c-0.8-0.6-1.3-1.8-1.9-2.6C118.2,324,123.6,321.3,128.9,318.7z"/>
	<path class="st24" d="M58,199.4c2.6,9.3,4.6,18.9,7.9,27.9c3.2,8.6,8.1,16.6,11.8,25c0.9,2.1,0.2,5,0.2,7.5c-7.7,0-15.3,0-23,0
		c-0.2-2.6,0.2-5.4-0.6-7.8c-5.5-17.1-9.8-34.3-8.4-52.5c0.3-0.1,0.7-0.3,1-0.4C50.7,199.1,54.3,199.3,58,199.4z"/>
	<path class="st10" d="M110,293.8c8.1-4.2,16.1-8.4,24.2-12.4c1.3-0.6,2.8-1.1,4.3-1.1c13.6-0.1,27.2,0,40.8,0
		c0.2,0.4,0.3,0.8,0.5,1.2c-18.2,9-36.4,17.9-54.6,26.9c-1-1.6-1.8-3.5-3.1-4.7C118.2,300.2,114,297.1,110,293.8z"/>
	<path class="st26" d="M267.8,407.8c0.1,2.7,0.2,5.4,0.3,8c-0.4,2.3-0.8,4.6-1.3,7c-19.7,0-39.3,0.1-59,0.1
		c-0.2-2.4-0.4-4.7-0.6-7.1c0.2-2.6,0.4-5.3,0.5-7.9C227.9,407.9,247.8,407.9,267.8,407.8z"/>
	<path class="st24" d="M110,293.8c4,3.2,8.2,6.4,12.1,9.8c1.4,1.2,2.1,3.1,3.1,4.7c-11.3,5.6-22.7,11.2-34,16.8c-3.2-4-6.3-8-9.6-12
		c-1-1.2-2.3-2.2-3.5-3.3C88.7,304.6,99.3,299.2,110,293.8z"/>
	<path class="st27" d="M267.8,407.8c-20,0-40,0.1-59.9,0.1c0-4.3-0.1-8.6-0.1-12.9c10.6,0.3,21.2,0.8,31.8,0.8
		c9.1,0,18.2-0.7,27.3-1c0.3,4,0.7,8.1,1,12.1C268,407.2,267.9,407.5,267.8,407.8z"/>
	<path class="st10" d="M46,199.4c-1.4,18.2,2.8,35.4,8.4,52.5c0.8,2.4,0.4,5.2,0.6,7.8c-2.3,0.2-4.7,0.3-7,0.5c-2-0.2-4-0.4-6-0.5
		c-1-9.5-2.4-19-2.9-28.6C38.6,220.6,39,210,39,199.4C41.3,199.4,43.7,199.4,46,199.4z"/>
	<path class="st1" d="M54.1,321.3c-2.7-7.2-5.5-14.3-8.1-21.6c-0.8-2.3-1.3-4.7-2-7c1.4-0.9,2.7-1.8,4.1-2.7
		c2.2-0.9,4.5-1.8,6.7-2.7c2.9,7.5,5.8,14.9,8.6,22.4c0.7,2,1.1,4.1,1.6,6.1c-2.7,1.6-5.4,3.2-8.1,4.7C56,320.8,55,321.1,54.1,321.3
		z"/>
	<path class="st1" d="M207.3,415.8c0.2,2.4,0.4,4.7,0.6,7.1c-0.3,1.3-0.6,2.6-0.8,3.9c-6.6-1-13.3-2-19.9-3c-0.1-0.7-0.3-1.3-0.4-2
		c0.1-1.6,0.1-3.3,0.2-4.9c0.4-1.3,0.7-2.7,1.1-4C194.4,413.9,200.9,414.9,207.3,415.8z"/>
	<path class="st1" d="M42,259.7c2,0.2,4,0.4,6,0.5c1.7,6.3,3.3,12.5,5.1,19.4c2,0.1,4.6,0.3,7.2,0.5c-5.5,0.2-10.9,0.5-16.4,0.7
		c-0.7-0.1-1.3-0.3-2-0.4c-1-6.7-2-13.4-3-20.1C40,260.1,41,259.9,42,259.7z"/>
	<path class="st22" d="M44,280.8c5.5-0.2,10.9-0.5,16.4-0.7c1.8,0.2,3.5,0.3,6.7,0.6c-4.8,2.6-8.5,4.6-12.2,6.6
		c-2.2,0.9-4.5,1.8-6.7,2.7C46.7,286.9,45.3,283.9,44,280.8z"/>
	<path class="st2" d="M188,412.9c-0.4,1.3-0.7,2.7-1.1,4c0-5,0-10,0-15.1C187.3,405.5,187.6,409.2,188,412.9z"/>
	<path class="st2" d="M187,367.9c0-1,0-2-0.1-3.1C186.9,365.9,186.9,366.9,187,367.9z"/>
	<path class="st12" d="M387,338.6c1.3,0.5,2.6,1,3.9,1.5c0.6,0.3,1.2,0.6,1.7,0.9c1.4,0.9,2.9,1.8,4.3,2.6c0.6,0.1,1.1,0.3,1.7,0.4
		c1.8,1.2,3.6,2.4,5.4,3.6c-6.6,9.8-12.5,19.6-25.8,22.6c-22.3,4.9-44.2,11.5-66.3,17.1c-7.2,1.8-14.6,2.5-22,3.7
		c0-3.9,0-7.8,0-11.5c2.5-0.6,4.1-1,5.7-1.4c27.5-7.4,52.3-20.4,75.4-36.9c2.6-1.8,4.7-4.3,7-6.5c2.2,0.7,4.5,1.5,6.7,2.2
		C385.5,337.5,386.3,338.1,387,338.6z"/>
	<path class="st22" d="M378.1,334.8c-2.3,2.2-4.4,4.7-7,6.5c-23.1,16.5-47.9,29.5-75.4,36.9c-1.6,0.4-3.2,0.8-5.7,1.4
		c0,3.7,0,7.6,0,11.5c-0.4,0.3-0.7,0.6-1.1,1c-0.1-8.7-0.1-17.4-0.2-26.1c0.6-1.8,1.3-3.5,2.1-5.6c21.4-6.1,41.8-15.3,60.5-28.1
		c2.9-2,5.1-4.8,7.7-7.2c4.5,2.1,9,4.1,13.4,6.3C374.4,332.3,376.2,333.6,378.1,334.8z"/>
	<path class="st1" d="M266.9,422.9c0.4-2.3,0.8-4.6,1.3-7c6.7-1,13.4-2,20.1-3.1c0.2,2.7,0.4,5.4,0.6,8.1c-0.1,1.6-0.3,3.2-0.4,4.8
		c-4.9,0.8-9.8,1.7-14.7,2.3c-1.9,0.2-3.8-0.1-5.7-0.2C267.7,426.2,267.3,424.5,266.9,422.9z"/>
	<path class="st2" d="M187.2,423.9c6.6,1,13.3,2,19.9,3c0,2.7,0,5.4,0,8c-6.7-1-13.4-2-20-3C187.1,429.2,187.1,426.6,187.2,423.9z"
		/>
	<path class="st8" d="M121,213.9c-4.7-4.8-9.3-9.7-14-14.5c25.1-0.1,50.2-0.1,75.3-0.2c8.3,0,16.6-0.2,24.9-0.3c0.7,0,1.3,0,2,0
		c19.3,0,38.7-0.1,58-0.1c0.6,0,1.2,0.1,1.8,0.1c10.8,0.1,21.6,0.3,32.4,0.3c18.8,0,37.6,0,56.4,0c1.8,0,3.6,0.3,5.4,0.4
		c-1.9,2.4-3.5,5.1-5.7,7.2c-3.2,2.9-6.9,5.4-10.4,8.1c-1.7-0.3-3.4-1-5.2-1C268.2,213.9,194.6,213.9,121,213.9z"/>
	<path class="st26" d="M267.8,47.9c0,17,0,34,0,51c-8.3,0.3-16.6,0.9-24.9,0.9c-11.8-0.1-23.6-0.7-35.3-1.1c0-17,0.1-34,0.1-50.9
		c4.4,0.4,8.9,1,13.3,1c7.6-0.1,15.2-0.7,22.7-0.8C251.8,47.8,259.8,47.9,267.8,47.9z"/>
	<path class="st28" d="M288.6,116.9c3.4,0.3,6.9,0.9,10.3,0.9c19.8,0.1,39.6-0.1,59.4,0.1c7.2,0.1,14.5,1.2,21.7,2.1
		c1.1,0.1,1.9,1.8,2.9,2.7c-11.2,5.5-22.5,11-33.7,16.7c-18.1,9.1-36.1,18.4-54.1,27.6c-1.9,1-3.9,1.9-6.5,3.1
		C288.6,152,288.6,134.5,288.6,116.9z"/>
	<path class="st9" d="M267.1,198.8c-19.3,0-38.7,0.1-58,0.1c-0.7,0-1.3,0-2,0c0.1-14.7,0.2-29.4,0.3-44c20.1,0,40.3,0,60.4,0
		c0.1,7.7,0.1,15.3,0.2,23c-0.3,1.2-0.9,2.4-0.9,3.5C267,187.2,267.1,193,267.1,198.8z"/>
	<path class="st27" d="M207.6,98.7c11.8,0.4,23.6,1,35.3,1.1c8.3,0.1,16.6-0.6,24.9-0.9c0,10.7,0,21.3,0,32c-1.9,0.3-3.9,1-5.8,0.9
		c-18.2-0.2-36.4-0.6-54.6-0.9C207.5,120.2,207.6,109.4,207.6,98.7z"/>
	<path class="st14" d="M267.8,47.9c-8,0-16.1-0.1-24.1,0c-7.6,0.2-15.2,0.8-22.7,0.8c-4.4,0-8.9-0.6-13.3-1
		c-0.2-4.3-0.5-8.6-0.7-12.9c0-4.3,0-8.7,0-13c0.1-0.4,0.2-0.8,0.2-1.2c8.1-0.5,16.2-1.6,24.3-1.4c12.1,0.4,24.2,1.7,36.2,2.6
		c0.3,0.3,0.6,0.6,0.9,0.9c0,4.4,0,8.8,0,13.1C268.5,39.9,268.1,43.9,267.8,47.9z"/>
	<path class="st29" d="M207.4,130.9c18.2,0.3,36.4,0.7,54.6,0.9c1.9,0,3.9-0.6,5.8-0.9c0,8,0,16,0,24c-20.1,0-40.3,0-60.4,0
		C207.4,146.9,207.4,138.9,207.4,130.9z"/>
	<path class="st9" d="M388,149.9c0,1.4,0,2.8,0,4.1c-15,7.7-30,15.4-45,23c-2.4,1.2-5.3,1.9-8,2c-13,0.2-25.9,0.1-39.3-1
		c20.8-10.2,41.5-20.5,62.3-30.7c1.7,0.9,3.4,2.5,5.2,2.5C371.4,150,379.7,149.9,388,149.9z"/>
	<path class="st29" d="M388,149.9c-8.3,0-16.6,0.2-24.9-0.1c-1.8-0.1-3.5-1.6-5.2-2.5c10.4-5.1,20.7-10.3,31.1-15.4
		C388.6,137.8,388.3,143.9,388,149.9z"/>
	<path class="st3" d="M267.1,198.8c0-5.8-0.1-11.6-0.1-17.4c0-1.2,0.6-2.4,0.9-3.5c0.3,7,0.6,14,0.9,21
		C268.4,198.9,267.8,198.9,267.1,198.8z"/>
	<path class="st11" d="M207.4,130.9c0,8,0,16,0,24c-0.1,14.7-0.2,29.4-0.3,44c-8.3,0.1-16.6,0.3-24.9,0.3
		c-25.1,0.1-50.2,0.1-75.3,0.2c-16.3,0-32.6,0-49,0c-3.7-0.1-7.3-0.3-11-0.4c0.7-6.6,1.3-13.1,2-19.7c5.7-0.1,11.4-0.2,17.1-0.2
		c0.5,0,1.1-0.1,1.6-0.1c-0.5-0.4-1.1-0.7-1.6-1.1c-0.4-0.1-0.7-0.2-1.1-0.3c-0.3-0.2-0.6-0.5-1-0.7c-3.4-1.8-6.8-3.6-10.3-5.4
		c0.7-3.2,1.5-6.3,2.2-9.5c2,0.8,3.9,1.6,5.9,2.5c9.5,4.6,19,9.2,28.5,13.8c3.1,0.2,6.2,0.7,9.2,0.7c11.5,0.1,23,0,34.5,0
		c0.1-0.4,0.2-0.8,0.3-1.2c-17.3-8.5-34.7-16.9-52-25.4c-5.8-3.1-11.6-6.2-17.4-9.3c1.3-3.2,2.4-6.5,4-9.5c3-5.9,6.2-11.6,9.3-17.4
		c0.9,0.3,1.7,0.6,2.6,0.9c4.1,2,8.1,4,12.2,6c30.7,15.4,61.4,30.9,92.2,46.2c0.5,0.2,1.2,0.1,1.8,0.2c0-16.7,0-33.2,0-49.7
		c0-9.3,0-18.7,0-28c0-4,0-8,0-12c0-9.7,0-19.3,0-29c0.1-5,0.3-10,0.4-15c1.8-0.2,3.5-0.6,5.3-0.7c4.8-0.2,9.7-0.2,14.5-0.4
		c0.2,4.3,0.5,8.6,0.7,12.9c0,17-0.1,34-0.1,50.9C207.6,109.4,207.5,120.2,207.4,130.9z"/>
	<path class="st17" d="M186.8,50.9c0,9.7,0,19.3,0,29c-16.3,0.3-32.6,0.2-48.8,1.2c-9.6,0.6-19.2,2.8-28.7,4.7
		c-5.6,1.2-11.1,3.3-16.6,5c4.1-6.1,7.9-12.4,12.3-18.3c2.5-3.3,5.9-5.9,9-8.8c1.1,0.4,2.3,1.3,3.2,1.1c13.6-3.4,27-7.4,40.7-10.3
		C167.4,52.6,177.1,52.1,186.8,50.9z"/>
	<path class="st1" d="M207,34.9c-4.8,0.1-9.7,0.2-14.5,0.4c-1.8,0.1-3.6,0.4-5.3,0.7c0.1-3.7,0.1-7.4,0.2-11c6.6-1,13.1-2,19.7-3
		C207,26.2,207,30.6,207,34.9z"/>
	<path class="st18" d="M186.8,91.9c0,9.3,0,18.7,0,28c-4.1,0.3-8.2,0.9-12.3,0.9c-25.5,0.1-50.9,0-76.4,0.1c-1.7,0-3.5,1.4-5.2,2.2
		c-4.1-2-8.1-4-12.2-6c1-1.9,2.3-3.6,3.1-5.6c1.5-3.8,2.8-7.8,4.2-11.7c1.6-0.2,3.5,0.1,4.9-0.5c14.1-6.2,29.3-6.2,44.2-7.2
		C153.5,91,170.2,91.9,186.8,91.9z"/>
	<path class="st16" d="M186.8,91.9c-16.6,0-33.2-0.9-49.7,0.2c-14.8,1-30.1,1-44.2,7.2c-1.4,0.6-3.2,0.4-4.9,0.5c1.6-3,3.1-6,4.7-9
		c5.5-1.7,10.9-3.9,16.6-5c9.5-2,19.1-4.1,28.7-4.7c16.2-1,32.5-0.8,48.8-1.2C186.8,83.9,186.8,87.9,186.8,91.9z"/>
	<path class="st2" d="M78.1,116.2c-3.1,5.8-6.3,11.5-9.3,17.4c-1.5,3.1-2.7,6.3-4,9.5c-0.6-0.1-1.1-0.2-1.7-0.4c-3-1.5-6-3-9-4.6
		c-0.7-0.5-1.4-1.1-2.1-1.6c2.7-5.4,5.2-10.9,8-16.2c1.8-3.5,4.1-6.8,6.2-10.2C70.2,112.2,74.2,114.2,78.1,116.2z"/>
	<path class="st19" d="M52,136.6c0.7,0.5,1.4,1.1,2.1,1.6c-2.8,5.9-5.6,11.9-8.4,17.8c-1.5-0.6-3.1-1.1-4.6-1.7
		c-0.4-0.4-0.9-0.9-1.3-1.3c2.4-6.1,4.8-12.1,7.2-18.2C48.7,135.4,50.4,136,52,136.6z"/>
	<path class="st19" d="M42,259.7c-1,0.2-2,0.3-3,0.5c-0.3-0.2-0.7-0.3-1-0.5c-1.3-7.8-3.2-15.5-3.9-23.4
		c-1.1-12.2-1.5-24.4-2.1-36.6c0.7-0.2,1.3-0.5,2-0.7c1.7,0.1,3.4,0.3,5,0.4c0,10.6-0.4,21.2,0.1,31.7C39.6,240.7,41,250.2,42,259.7
		z"/>
	<path class="st2" d="M38,259.7c0.3,0.2,0.7,0.3,1,0.5c1,6.7,2,13.4,3,20.1c-2.7,0.1-5.4,0.3-8.1,0.4c-1.6-0.2-3.3-0.5-4.9-0.7
		c-1-6.6-2-13.3-3-19.9C30,260,34,259.9,38,259.7z"/>
	<path class="st1" d="M39,199.4c-1.7-0.1-3.4-0.3-5-0.4c0.7-6.6,1.4-13.2,2.1-19.8c4.3,0,8.7,0.1,13,0.1c-0.7,6.6-1.3,13.1-2,19.7
		c-0.3,0.1-0.7,0.3-1,0.4C43.7,199.4,41.3,199.4,39,199.4z"/>
	<path class="st6" d="M49,179.3c-4.3,0-8.7-0.1-13-0.1c-0.4-0.1-0.7-0.3-1.1-0.4c1-4.7,2.1-9.3,3.1-14c1.6,0.6,3.3,1.3,4.9,1.9
		c3.6,1.6,7.2,3.1,10.8,4.7c3.4,1.8,6.8,3.6,10.3,5.4c0.3,0.2,0.6,0.5,1,0.7c0.4,0.1,0.7,0.2,1.1,0.3c0,0.4,0,0.8,0,1.2
		C60.4,179.1,54.7,179.2,49,179.3z"/>
	<path class="st12" d="M33.9,280.8c2.7-0.1,5.4-0.3,8.1-0.4c0.7,0.1,1.3,0.3,2,0.4c1.4,3.1,2.7,6.1,4.1,9.2
		c-1.4,0.9-2.7,1.8-4.1,2.7c-2.3,0.9-4.6,1.9-6.9,2.8C36,290.6,35,285.7,33.9,280.8z"/>
	<path class="st2" d="M53.8,171.4c-3.6-1.6-7.2-3.1-10.8-4.7c-5.8-3.4-2.8-8.1-1.9-12.4c1.5,0.6,3.1,1.1,4.6,1.7
		c2.7,1.3,5.4,2.7,8,4c0.7,0.6,1.5,1.3,2.2,1.9C55.3,165.1,54.5,168.3,53.8,171.4z"/>
	<path class="st24" d="M398,259.8c-2.5-5,0.1-8.7,2.3-13c7.5-14.6,14.7-29.5,13.6-46.7c4.1,0,8.2,0,12.8,0c0,8.3,0.7,16.4-0.2,24.2
		c-1.2,10-3.8,19.8-5.6,29.7c-0.3,1.9,0,3.9,0.1,5.8C413.3,259.8,405.7,259.8,398,259.8z"/>
	<path class="st24" d="M392.1,284.6c6,3.1,11.9,6.2,17.9,9.3c-3.3,3.6-6.7,7.1-9.9,10.8c-1.1,1.3-1.6,3.2-2.3,4.8
		c-6-3-11.9-5.9-17.9-8.9c0.5-1.2,0.7-2.6,1.4-3.5C384.9,292.8,388.5,288.7,392.1,284.6z"/>
	<path class="st1" d="M392.7,341c-0.6-0.3-1.2-0.6-1.7-0.9c1.8-3.7,3.6-7.4,5.3-11c2.6-5.3,5.1-10.7,7.7-16c3,1.6,6,3.1,9,4.7
		c-0.3,1.6-0.2,3.5-0.9,4.8c-4.3,7.2-8.9,14.3-13.3,21.5c-0.6-0.1-1.1-0.3-1.7-0.4C395.6,342.8,394.1,341.9,392.7,341z"/>
	<path class="st23" d="M288.7,346.9c0-18.9,0-37.8,0-58c19.8,10.2,39,20.2,58.3,30.1c-0.9,1.3-1.6,3-2.9,3.7
		c-10.7,5.9-21.3,12.1-32.4,17.1C304.4,343.1,296.4,344.6,288.7,346.9z"/>
	<path class="st25" d="M288.7,346.9c7.7-2.3,15.7-3.8,23-7.1c11.1-5,21.7-11.2,32.4-17.1c1.3-0.7,1.9-2.5,2.9-3.7c4,2,8,4,12,6
		c-2.6,2.4-4.8,5.2-7.7,7.2c-18.7,12.8-39.1,21.9-60.5,28.1c-0.8,2.1-1.4,3.8-2.1,5.6c0-4.3,0-8.7,0-13c0-0.7,0-1.3,0-2
		C288.7,349.6,288.7,348.2,288.7,346.9z"/>
	<path class="st10" d="M392.1,284.6c-3.6,4.1-7.2,8.2-10.7,12.4c-0.8,0.9-1,2.3-1.4,3.5c-13.1-6.4-26.2-12.8-39.3-19.2
		c0.1-0.4,0.1-0.8,0.2-1.2c3.9,0,7.7,0,11.6,0c6.8,0,13.7,0.2,20.5,0C379.8,280,386.4,280.1,392.1,284.6z"/>
	<path class="st1" d="M267.9,406.9c-0.3-4-0.7-8.1-1-12.1c0.3-0.3,0.7-0.7,1-1C267.9,398.2,267.9,402.6,267.9,406.9z"/>
	<path class="st15" d="M410.3,280.3c-0.1,0.5-0.2,1.1-0.3,1.6c-0.6-0.4-1.1-0.8-1.7-1.2C409,280.6,409.7,280.4,410.3,280.3z"/>
	<path class="st23" d="M288.7,350.9c0,0.7,0,1.3,0,2C288.7,352.2,288.7,351.6,288.7,350.9z"/>
	<path class="st1" d="M387,338.6c-0.8-0.5-1.5-1.1-2.3-1.6C385.5,337.5,386.3,338.1,387,338.6z"/>
	<path class="st10" d="M327,228.9c-14.1,8.7-29.6,14-45.6,17.9c-20.1,5-40.7,6.2-61.2,4.9c-25.8-1.6-50.6-8.2-73.7-20.1
		c-1.3-0.7-2.3-1.8-3.5-2.7c1.7-0.3,3.4-1,5.2-1c57.9-0.1,115.8-0.1,173.7,0C323.6,227.9,325.3,228.6,327,228.9z"/>
	<path class="st19" d="M327,228.9c-1.7-0.3-3.4-1-5.2-1c-57.9-0.1-115.8-0.1-173.7,0c-1.7,0-3.4,0.6-5.2,1c-7.3-5-14.7-10-22-15
		c73.6,0,147.3,0,220.9,0c1.7,0,3.4,0.7,5.2,1C340.4,219.6,333.7,224.2,327,228.9z"/>
	<path class="st2" d="M392.7,341c1.4,0.9,2.9,1.8,4.3,2.6C395.6,342.8,394.1,341.9,392.7,341z"/>
	<path class="st28" d="M92.9,123.2c1.7-0.8,3.5-2.2,5.2-2.2c25.5-0.1,50.9-0.1,76.4-0.1c4.1,0,8.2-0.6,12.3-0.9c0,16.5,0,33,0,49.7
		c-0.6-0.1-1.3,0.1-1.8-0.2C154.3,154,123.6,138.6,92.9,123.2z"/>
	<path class="st9" d="M82.3,152.4c17.3,8.5,34.7,16.9,52,25.4c-0.1,0.4-0.2,0.8-0.3,1.2c-11.5,0-23,0.1-34.5,0
		c-3.1,0-6.2-0.5-9.2-0.7c-0.9-2.5-2.1-4.9-2.8-7.4C85.7,164.8,84.1,158.6,82.3,152.4z"/>
	<path class="st20" d="M82.3,152.4c1.7,6.2,3.4,12.3,5.2,18.5c0.7,2.5,1.9,4.9,2.8,7.4c-9.5-4.6-19-9.2-28.5-13.8
		c-1.9-0.9-3.9-1.7-5.9-2.5c-0.7-0.6-1.5-1.3-2.2-1.9c1.4-2.5,2.8-5,4.2-7.6c1.7-3.2,3.5-6.4,5.2-9.7c0.6,0.1,1.1,0.2,1.7,0.4
		C70.7,146.3,76.5,149.3,82.3,152.4z"/>
	<path class="st3" d="M66.1,179.1c0-0.4,0-0.8,0-1.2c0.5,0.4,1.1,0.7,1.6,1.1C67.2,179,66.6,179,66.1,179.1z"/>
	<path class="st3" d="M65,177.6c-0.3-0.2-0.6-0.5-1-0.7C64.4,177.1,64.7,177.3,65,177.6z"/>
	<path class="st10" d="M63.2,142.8c-1.7,3.2-3.4,6.4-5.2,9.7c-1.4,2.5-2.8,5-4.2,7.6c-2.7-1.3-5.4-2.7-8-4
		c2.8-5.9,5.6-11.8,8.4-17.8C57.2,139.8,60.2,141.3,63.2,142.8z"/>
</g>
</svg>
