<?xml version="1.0" encoding="utf-8"?>
<!-- Generator: Adobe Illustrator 19.2.1, SVG Export Plug-In . SVG Version: 6.00 Build 0)  -->
<svg version="1.1" id="Ebene_1" xmlns="http://www.w3.org/2000/svg" xmlns:xlink="http://www.w3.org/1999/xlink" x="0px" y="0px"
	 viewBox="0 0 300 300" style="enable-background:new 0 0 300 300;" xml:space="preserve">
<style type="text/css">
	.st0{fill:#FFFFFF;}
</style>
<g>
	<g>
		<path class="st0" d="M256.4,159.1l-9.7-14.1c-2.9-24.7-9.9-43.1-21.5-55.8c-13.6-14.9-33-22.2-59.3-22.2c-3.7,0-7.6,0.1-11.6,0.4
			c-44.9,3.3-68.9,55-78.4,81.8c-0.5,0.2-0.9,0.4-1.4,0.6c-21.8,9.6-32.4,20.3-32.4,32.6c0,4.7,2.7,9.6,8.9,16.1
			c4.5,4.7,10.5,10,17.1,14.8c7.7,5.7,27.5,19,43.9,19.7c0.7,0,1.5,0,2.3,0l0,0c25.7,0,107.2-15.2,142-64
			C258.5,166.1,258.5,162.1,256.4,159.1L256.4,159.1z M212.6,169.4c-2.1,1.4-4.2,2.7-6.4,4c-4.7,2.8-9.5,5.3-14.5,7.5
			c-9.4,4.3-19.3,7.9-29.4,10.2c-9.2,2.1-19,3.4-28.4,1.8c-9-1.6-17.9-4.6-26-9c-8-4.3-16.3-9.8-22.1-16.9c3.6,1.6,7.3,3.1,11,4.6
			c2.4-8.2,5.1-16.3,8.5-24.2c3.2-7.7,7-15,12.5-21.3c6.5-7.4,14.5-13.6,23-18.6c7.1-4.2,14.7-7.5,22.8-9.2
			c-3.2,1.2-21.4,11.4-37.7,36.4c-10.6,16.3-12.3,31.5-13.2,41.3c-0.1,1-0.1,0.9,1,1.2c0.6,0.2,1.3,0.3,1.9,0.5
			c1.2,0.3,2.3,0.6,3.5,0.9c2.4,0.6,4.9,1.1,7.3,1.6c14.8,3.2,34.4-0.5,46.6-3.2c12.3-2.7,24.5-5.9,36.7-8.7c0,0,0.1,0,0.4-0.1
			c1.8-0.4,1.4-0.3,0.7-0.2c1.7-0.4,3.4-0.8,5.2-1.1C216,167.5,213,169.1,212.6,169.4L212.6,169.4z"/>
	</g>
</g>
</svg>
