<?xml version="1.0" encoding="utf-8"?>
<!-- Generator: Adobe Illustrator 19.2.1, SVG Export Plug-In . SVG Version: 6.00 Build 0)  -->
<svg version="1.1" id="Ebene_1" xmlns="http://www.w3.org/2000/svg" xmlns:xlink="http://www.w3.org/1999/xlink" x="0px" y="0px"
	 viewBox="0 0 300 300" style="enable-background:new 0 0 300 300;" xml:space="preserve">
<style type="text/css">
	.st0{fill:#F15A22;}
	.st1{fill:#FFFFFF;}
</style>
<g>
	<g>
		<path class="st0" d="M151,86.6c-9.2,0.1-17.1,1.5-24.8,4.3c-36.5,13.6-53.1,55.6-35.5,90c16,31.2,54.5,44.5,86.8,30
			c29-13,44.2-43.8,37-74.5C207.6,107.6,180.5,86.7,151,86.6z M203.1,74.8c7.1-13.4,14.1-26.5,21.2-39.8c-3.7-1.9-7.3-3.7-10.9-5.6
			c-2.8,5.2-5.4,10.2-8.1,15.2c-4.1,7.7-8.2,15.4-12.3,23.1c-0.4,0.7-1,1.4,0.3,2C196.5,71.4,199.7,73,203.1,74.8z M196.8,229.7
			c-3.5,2.3-6.9,4.4-10.4,6.5c8.3,12.7,16.5,25.2,24.7,37.8c3.6-2.3,7-4.4,10.4-6.5C213.2,254.9,205.1,242.4,196.8,229.7z M78,32.8
			c8.3,12.7,16.5,25.2,24.7,37.9c3.5-2.2,6.9-4.3,10.4-6.5c-8.3-12.7-16.5-25.2-24.7-37.8C84.8,28.5,81.5,30.5,78,32.8z M66.3,187.2
			c-13,8.2-25.7,16.2-38.6,24.2c2.3,3.5,4.4,6.8,6.7,10.2c12.9-8.1,25.7-16.2,38.6-24.3C70.6,193.9,68.5,190.7,66.3,187.2z
			 M233.2,113.1c12.9-8.1,25.7-16.2,38.6-24.3c-2.3-3.5-4.5-6.8-6.7-10.1c-13,8.2-25.7,16.2-38.6,24.2
			C228.9,106.4,230.9,109.7,233.2,113.1z M271.9,216.8c-13.7-7-27.1-13.9-40.7-20.8c-2,3.7-3.8,7.2-5.7,10.7
			c13.7,7,27.1,13.9,40.7,20.8C268.1,223.8,269.9,220.4,271.9,216.8z M96.4,225.5c-7.1,13.3-14.1,26.5-21.2,39.8
			c3.7,1.9,7.2,3.7,10.9,5.6c7.1-13.3,14.1-26.5,21.2-39.8C103.6,229.2,100.1,227.4,96.4,225.5z M68.3,104.3c2-3.7,3.7-7.1,5.7-10.7
			c-13.6-7-27.1-13.9-40.7-20.8c-2,3.7-3.8,7.2-5.7,10.7C41.3,90.5,54.7,97.4,68.3,104.3z"/>
		<path class="st0" d="M9.7,142c0.8,0.1,1.6,0.1,2.3,0.1c13.7,0,27.5,0,41.2,0c2.3,0,2.3,0,2.3,2.3c0,2.5,0,5,0,7.5
			c0,2.3,0,2.3-2.3,2.3c-13.7,0-27.5,0-41.2,0c-0.8,0-1.6,0.1-2.3,0.1C9.7,150.2,9.7,146.1,9.7,142z"/>
		<path class="st0" d="M290.3,154.3c-2,0-3.9-0.1-5.8-0.1c-12.6,0-25.1,0-37.7,0c-2.3,0-2.3,0-2.3-2.3c0-2.5,0-5,0-7.5
			c0-2.3,0-2.3,2.3-2.3c13.7,0,27.5,0,41.2,0c0.8,0,1.6-0.1,2.3-0.1C290.3,146.1,290.3,150.2,290.3,154.3z"/>
		<path class="st0" d="M156,13.1c0.1,0.6,0.1,1.2,0.1,1.8c0,13.6,0,27.2,0,40.9c0,2.3,0,2.3-2.3,2.3c-2.7,0-5.3-0.1-8,0.1
			c-1.6,0.1-2-0.5-2-2c0.1-11.2,0-22.5,0-33.7c0-3.1,0.1-6.2,0.1-9.3C148,13.1,152,13.1,156,13.1z"/>
		<path class="st0" d="M144,286.9c-0.1-0.6-0.1-1.2-0.1-1.8c0-13.6,0-27.2,0-40.9c0-2.3,0-2.3,2.3-2.3c2.7,0,5.3,0.1,8-0.1
			c1.6-0.1,2,0.5,2,2c-0.1,11.2,0,22.5,0,33.7c0,3.1-0.1,6.2-0.1,9.3C152,286.9,148,286.9,144,286.9z"/>
		<path class="st0" d="M151,86.6c29.5,0,56.6,20.9,63.4,49.8c7.3,30.7-8,61.4-37,74.5c-32.2,14.5-70.8,1.2-86.8-30
			c-17.6-34.4-1-76.4,35.5-90C133.9,88.1,141.9,86.7,151,86.6z"/>
		<path class="st0" d="M203.1,74.8c-3.5-1.8-6.7-3.4-9.9-5.1c-1.2-0.6-0.6-1.3-0.3-2c4.1-7.7,8.2-15.4,12.3-23.1
			c2.7-5,5.3-10,8.1-15.2c3.6,1.8,7.2,3.7,10.9,5.6C217.3,48.3,210.2,61.5,203.1,74.8z"/>
		<path class="st0" d="M196.8,229.7c8.3,12.7,16.4,25.1,24.7,37.9c-3.4,2.2-6.8,4.2-10.4,6.5c-8.2-12.6-16.4-25.1-24.7-37.8
			C189.9,234.1,193.3,232,196.8,229.7z"/>
		<path class="st0" d="M78,32.8c3.5-2.2,6.8-4.3,10.4-6.5c8.2,12.6,16.4,25.1,24.7,37.8c-3.5,2.2-6.8,4.3-10.4,6.5
			C94.5,58,86.3,45.4,78,32.8z"/>
		<path class="st0" d="M66.3,187.2c2.3,3.4,4.4,6.7,6.7,10.1c-12.9,8.1-25.7,16.1-38.6,24.3c-2.2-3.4-4.4-6.7-6.7-10.2
			C40.6,203.3,53.3,195.3,66.3,187.2z"/>
		<path class="st0" d="M233.2,113.1c-2.3-3.5-4.4-6.7-6.7-10.2c12.9-8,25.6-16.1,38.6-24.2c2.2,3.4,4.4,6.6,6.7,10.1
			C258.9,97.1,246.2,105,233.2,113.1z"/>
		<path class="st0" d="M271.9,216.8c-2,3.7-3.8,7.1-5.7,10.7c-13.6-6.9-27-13.8-40.7-20.8c1.9-3.5,3.7-7,5.7-10.7
			C244.7,202.9,258.2,209.8,271.9,216.8z"/>
		<path class="st0" d="M96.4,225.5c3.7,1.9,7.2,3.7,10.9,5.6c-7.1,13.3-14.1,26.5-21.2,39.8c-3.7-1.9-7.2-3.7-10.9-5.6
			C82.3,252,89.3,238.8,96.4,225.5z"/>
		<path class="st0" d="M68.3,104.3c-13.6-7-27-13.8-40.6-20.8c1.9-3.5,3.7-7,5.7-10.7c13.6,7,27,13.8,40.7,20.8
			C72,97.3,70.3,100.7,68.3,104.3z"/>
	</g>
	<g>
		<path class="st1" d="M123,192.3v-6.9l8.9-8.6c21.3-20.3,31-31.1,31.1-43.7c0-8.5-4.1-16.3-16.6-16.3c-7.6,0-13.9,3.9-17.7,7.1
			l-3.6-8c5.8-4.9,14-8.5,23.7-8.5c18,0,25.6,12.3,25.6,24.3c0,15.4-11.2,27.9-28.8,44.9l-6.7,6.2v0.3h37.5v9.4H123z"/>
	</g>
</g>
</svg>
