<?xml version="1.0" encoding="utf-8"?>
<!-- Generator: Adobe Illustrator 19.2.1, SVG Export Plug-In . SVG Version: 6.00 Build 0)  -->
<svg version="1.1" id="Ebene_1" xmlns="http://www.w3.org/2000/svg" xmlns:xlink="http://www.w3.org/1999/xlink" x="0px" y="0px"
	 viewBox="0 0 300 300" style="enable-background:new 0 0 300 300;" xml:space="preserve">
<style type="text/css">
	.st0{fill:#FFFFFF;}
</style>
<g>
	<g>
		<path class="st0" d="M241.3,134.9c-0.4-0.8-1.3-2.3-0.8-3.2c0.4-0.8,0-2.2-1.1-1.9s-1.9-0.4-2.5-0.7c-0.4-0.2-0.9-0.6-1.3-1
			l0.3-0.1l-0.3-0.3c0.2-0.2,0.5-0.5,0.8-0.8c0.4-0.5,0.4-0.8,0-1.7c-0.1-0.3-0.1-0.5-0.2-0.7c-0.1-0.6-0.2-1.1-1-1.3
			c-0.7-0.2-0.7-0.5-0.9-1.3l0-0.1c-0.1-0.6-0.5-0.9-0.8-1.2c-0.2-0.2-0.4-0.4-0.5-0.7c-0.3-0.6-0.3-0.6,0.4-1.2
			c0.6-0.6,1.5-1.9,1.4-2.8c0-0.2-0.1-0.4-0.1-0.5c-0.1-0.4-0.1-0.6,0.1-1c0-0.1,0.1-0.2,0.2-0.3c0.4-0.8,1.1-2,0.2-2.7
			c-1-0.8-1.4-1.4-1.1-1.8c0.3-0.5,0.4-0.7,0.3-0.9c-0.1-0.1-0.2-0.2-0.3-0.2c0,0,0,0,0,0c-0.1,0-0.3-0.1-0.3-0.2l0,0
			c0,0,0,0,0.1-0.1c0.1-0.1,0.2-0.2,0.3-0.3c0.2-0.3,0.1-0.7,0-1c-0.2-0.4-0.5-0.7-0.9-0.8c-0.1,0-0.2,0-0.3,0
			c-0.4-0.1-1.4-0.2-1.5-0.5c0-0.2-0.2-0.5-0.3-0.8c-0.1-0.4-0.3-0.8-0.4-1.2c-0.1-0.4-0.3-0.7-0.4-0.9c-0.2-0.3-0.3-0.4-0.1-0.7
			c0.3-0.6,0.5-0.8,0.8-1.1c0.1-0.1,0.2-0.2,0.4-0.4c0.5-0.6,0.4-1,0.2-1.5c0-0.1-0.1-0.2-0.1-0.2c-0.2-0.5-0.1-1.2,0.2-1.4
			c0.1-0.1,0.2-0.2,0.2-0.4c0-0.5-0.7-1.2-1.4-1.7c-0.2-0.2-0.6-0.3-1-0.5c-0.7-0.3-1.6-0.6-1.9-1.1c-0.2-0.3-0.3-0.6-0.4-0.8
			c-0.2-0.5-0.3-0.9-1-1.1c-0.4-0.1-0.6-0.3-0.9-0.5c-0.2-0.2-0.5-0.4-0.9-0.6c-0.8-0.4-1.4-1.2-1.4-1.2l-0.1-0.1l-0.2,0
			c0,0-0.1,0-0.1,0c-0.5,0-0.9-0.1-1-0.3c0,0-0.1-0.1,0-0.2c0.1-0.3,0.2-0.5,0.3-0.8c0.2-0.4,0.3-0.7,0-1.2c-0.5-1-0.2-1.3,0-1.4
			c1.1-0.7,1.8-1.3,2.2-1.8c0.1-0.1,0.1-0.2,0.2-0.2c0.7-0.8,1.2-1.6,1.2-2.2c0-0.6-0.1-2.1-0.2-2.8c-0.1-0.5,0-0.8,0.5-1.4
			c0.3-0.4,0.7-1,0.7-1.5c0-0.3-0.2-0.5-0.4-0.7c-0.4-0.3-0.5-0.9-0.5-1.3v-0.3h0c-0.1-0.8-0.6-2.4-0.9-2.7c-0.1-0.1-0.2-0.6-0.4-1
			c-0.1-0.4-0.3-0.9-0.4-1.2c-0.1-0.2-0.2-0.3-0.2-0.5c-0.3-0.6-0.6-1.3-0.5-1.9c0.2-0.7-0.2-1.8-0.5-2.6c-0.1-0.2-0.1-0.4-0.2-0.4
			l0,0l0,0c0,0-0.4-0.9-0.5-1.6c0-0.4-0.2-0.7-0.4-1l-0.1-0.1h-0.2h0l0,0c-0.1,0-0.2,0-0.3,0c-0.3,0-0.6,0.1-0.8,0.4l-0.1,0.1
			c-0.2,0.2-0.2,0.3-0.6,0.4c-0.2,0-0.3,0-0.5,0c-0.3,0-0.7-0.1-1.1-0.2c-0.2-0.1-0.3-0.1-0.5-0.2c-0.4-0.1-0.9-0.2-1.1-0.5
			c-0.2-0.2-0.5-0.3-0.7-0.4c-0.2-0.1-0.5-0.2-0.7-0.4c-0.3-0.2-0.3-0.4-0.3-0.5c0,0,0,0,0,0c0.2-0.1,0.2-0.1,0.6-0.1l0.2,0l0.2,0
			c0.4,0,0.7-0.1,1-0.4c0.2-0.2,0.2-0.3,0.3-0.4c0.1-0.2,0.1-0.2,0.4-0.3c0.3,0,0.5,0,0.8,0c0.3,0,0.6,0,1,0c0.2,0,0.5,0,0.9,0
			c0.2,0,0.4,0,0.6,0l0.3,0l0-0.3l-0.1-1.9l0-0.1l-0.1-0.1c-0.1-0.1-1.3-1.4-1.7-1.7c-0.2-0.1-0.4-0.3-0.6-0.6
			c-0.3-0.4-0.7-0.8-1.1-1c-0.1-0.1-0.3-0.2-0.4-0.3c-0.4-0.3-0.8-0.6-1.7-0.8c-0.2,0-0.4-0.1-0.5-0.1c-0.5-0.1-0.5-0.1-1-0.7
			c-0.2-0.4-0.4-0.8-0.6-1.1c-0.3-0.5-0.4-0.9-0.8-0.9c0,0-0.1,0-0.1,0c-0.4,0.1-0.6,0.7-0.7,1.3c-0.1,0-0.2-0.1-0.4-0.2
			c-0.3-0.2-0.6-0.3-0.9-0.3c-0.5,0-0.8,0.3-1.2,0.5c-0.5,0.5-1.5,0.6-1.9,0.6c-0.3,0-0.4,0.1-0.4,0.2c-0.1,0.2,0,0.5,0.1,0.9
			c-0.1-0.1-0.3-0.2-0.6-0.5c-0.8-0.8-0.9-1.2-0.9-1.6c0-0.1,0-0.5-0.6-0.5c-0.1,0-0.2,0-0.3,0c-0.1,0-0.2,0-0.2,0
			c-0.1,0-0.1,0-0.1,0c-0.1-0.1-0.4-0.7-0.5-0.9c-0.1-0.1-0.1-0.2-0.2-0.3c0,0,0,0,0,0c0.1,0,0.2,0.1,0.2,0.1
			c0.3,0.2,0.5,0.3,0.9,0.3c0.1,0,0.3,0,0.4-0.1c0.4-0.2,0.8-0.7,0.9-1.1c0-0.2,0-0.4-0.2-0.6c-0.1-0.1-0.1-0.2-0.2-0.2l-0.2-0.3
			c0,0,0,0,0,0l0.1,0l0-0.1l0,0l0,0c0-0.1,0.1-0.2,0.1-0.3c0.1-0.3,0.1-0.3,0.5-0.5c0.2-0.1,0.3-0.2,0.4-0.2
			c0.2-0.1,0.2-0.1,0.4-0.1c0,0.1,0,0.1-0.1,0.2c0,0.1-0.1,0.2,0,0.3l0.1,0.1l0.1,0c0.2,0,0.3-0.1,0.5-0.4c0.2-0.2,0.4-0.5,0.5-0.6
			c0,0,0,0,0,0c0,0,0,0,0,0.1c0.1,0.1,0.2,0.3,0.4,0.3c0.1,0,0.1,0,0.2,0c0.3,0,0.6-0.2,0.8-0.4c0.1,0.2,0.2,0.3,0.2,0.4
			c-0.4,0.3-0.2,1.1-0.2,1.2l0,0.1l0.1,0.1c0.1,0,0.6,0.3,0.9,0.3c0.3,0,0.5-0.1,0.5-0.4c0.1-0.5,0.1-1,0-1.4c0,0,0,0,0,0
			c0.1-0.1,0.3-0.2,0.4-0.4c0.3-0.6-0.3-1-0.8-1.4c-0.1-0.1-0.2-0.1-0.3-0.2c-0.2-0.2-0.5-0.4-0.8-0.5l-0.1-0.1l-0.1,0
			c-0.1,0-0.2,0-0.2,0c0,0-0.1,0-0.2-0.2l-0.1-0.1l-0.1,0c-0.1,0-0.2-0.1-0.3-0.3l0-0.1l-0.1,0c0,0-0.1,0-0.1,0
			c-0.1-0.1-0.3-0.1-0.4-0.1c-0.2,0-0.4,0.1-0.6,0.2c-0.1,0.1-0.2,0.1-0.3,0.2c0,0-0.1,0-0.1,0c-0.1,0-0.2-0.1-0.3-0.2
			c-0.1-0.1-0.2-0.1-0.3-0.2c-0.2-0.1-0.2-0.3-0.1-0.9l0,0c0.1-0.6-0.2-0.7-0.5-0.8c0,0-0.1,0-0.2,0c-0.2-0.1-0.4-0.1-0.5-0.6
			c-0.1-0.3-0.2-0.6-0.5-0.6c-0.1,0-0.1,0-0.2,0c0,0-0.1,0-0.1,0c-0.1,0-0.3-0.2-0.3-0.6c0-0.3-0.1-0.7-0.5-0.7
			c-0.1,0-0.2,0-0.3,0.1c0,0-0.1,0-0.2,0c-0.1,0-0.2,0.1-0.3,0.1c0.1-0.1,0.2-0.2,0.3-0.3c0.1-0.1,0.2-0.2,0.3-0.3
			c0.1,0,0.3-0.1,0.9-0.9l0.1-0.1l0-0.1c0-0.3,0.1-0.6,0.4-0.8c0.5-0.5,0.4-1.2,0.4-1.2l0-0.2l-0.2,0c0,0-0.2,0-0.4,0
			c-0.3,0-0.8,0-1.3,0.3c-0.3,0.1-0.5,0.2-0.8,0.3c-0.4,0.1-0.7,0.3-1,0.5c-0.5,0.4-0.7,1.1-0.7,1.2l-0.2,0.5l0.5-0.2l0.9-0.3
			c0,0.2,0,0.5-0.2,0.9c-0.2,0.3-0.3,0.6-0.3,0.8l-0.1,0.3l-0.1,0.1c0,0,0,0-0.1,0c-0.1,0-0.2,0-0.2-0.1c-0.1,0-0.2-0.1-0.3-0.1
			c-0.4,0-0.5,0.4-0.5,0.6c-0.1,0.4-0.1,0.7-0.1,1.1l0,0l0,0.2c0,0.1,0,0.4-0.1,0.5c-0.3,0.3-0.6,0.7-0.6,1.3c0,0.4,0.3,0.8,0.7,0.8
			l0.3,0l0-0.1l0,0c0,0,0,0,0.1,0.1c0.2,0.1,0.4,0.4,0.9,0.4c0.3,0,0.6,0.5,0.6,0.8c0,0.1,0,0.2-0.3,0.2c-1,0-1.6,0.1-1.7,0.1h-0.2
			l0,0.3c0,0.2,0,0.4,0,0.6c0,0.7,0.4,0.9,0.8,1.1l0.1,0.1c0.1,0,0.1,0.1,0.2,0.1c0.3,0.2,0.5,0.3,0.7,0.6c0.2,0.3,0.4,0.4,0.7,0.6
			c0.1,0.1,0.2,0.2,0.4,0.3c0.2,0.1,0.3,0.2,0.5,0.2c0.4,0,0.6-0.3,0.8-0.6c0.1-0.1,0.1-0.2,0.2-0.2c0-0.1,0.1-0.1,0.1-0.1
			c0.1,0,0.2,0.1,0.3,0.1c0,0,0.1,0,0.1,0c0.2,0,0.4-0.1,0.8-0.2l-0.2,0.2l-0.1,0.1l0,0.1c-0.5,0.6-1.2,0.9-1.4,0.9l-0.5,0.1
			c-0.2-0.1-0.5-0.1-0.8-0.1l0-0.1c-0.4,0-0.7-0.1-0.8-0.1c-0.7-0.2-1.2-0.5-1.3-0.8c-0.1-0.3-0.5-1.1-0.8-1.5c0-0.1,0-0.5,0.2-1.2
			l0.1-0.2l-0.1-0.1c-0.1-0.3-0.4-0.3-0.7-0.5c-0.6-0.2-0.7-0.3-0.7-0.4c0.1-0.3,0-0.5-0.1-0.6c-0.1-0.2-0.4-0.3-0.8-0.3l-0.1,0
			l0,0.1l-0.3-0.1c-0.2-0.1-0.5-0.1-0.8-0.1c-0.1,0-0.2,0-0.3,0c-0.7,0.1-2.3,0.2-2.9,0.2c-0.2,0-0.5,0-0.8,0
			c-0.4,0-0.9,0.1-1.3,0.1c-0.5,0-0.6,0-0.7-0.1c-0.1-0.1-0.2-0.3-0.3-0.4c-0.2-0.3-0.4-0.6-0.7-0.6c-0.1,0-0.2,0-0.2,0.1
			c-0.5,0.2-0.9,0.8-1.1,1.7c-0.2,0.6-0.3,0.8-0.6,1.2c-0.1,0.1-0.1,0.2-0.2,0.3c-0.5,0.7-0.9,1.4-0.9,2c0,0.3-0.2,0.4-0.5,0.7
			c-0.1,0-0.1,0.1-0.2,0.1c-0.3,0.2-1,0.8-1.6,1.3l-0.6,0.4c-0.6,0.5-1,1.4-1.1,1.7l0,0c-0.1,0.2-0.1,0.2-0.7,0.3
			c-0.2,0-0.5,0-0.7,0c-0.7,0-1.5,0-2.1,0.6c-0.2,0.1-0.3,0.3-0.4,0.4c-0.4,0.3-0.6,0.5-0.8,0.5c-0.1,0-0.1,0-0.2,0
			c-0.2-0.1-0.3-0.2-0.5-0.3c-0.2-0.2-0.5-0.4-1-0.4c-0.1,0-0.3,0-0.4,0c-0.3,0.1-0.5,0.1-0.7,0.1c-0.3,0-0.6,0-0.8,0.5
			c-0.1,0.2-0.3,0.3-0.4,0.5c-0.2,0.2-0.4,0.3-0.4,0.6l0,0.1l0,0.1c0.1,0.2,0.2,0.5,0.1,0.8c-0.1-0.2-0.3-0.4-0.5-0.5
			c-0.1-0.1-0.2-0.1-0.3-0.1c-0.2,0-0.3,0.1-0.4,0.2c0,0-0.1,0.1-0.2,0.2c-0.4,0.3-0.3,0.6-0.3,0.9c0,0.1,0,0.1,0,0.2V54l0.1,0.1
			l0.2,0.2l0.2,0.2l0.2-0.1c0,0,0.1-0.1,0.3-0.2c-0.1,0.1-0.1,0.2-0.2,0.3l0,0.1c-0.1,0.1-0.1,0.2-0.1,0.2c0,0,0,0,0,0
			c0,0,0,0-0.1,0c0,0-0.1,0-0.1,0c-0.1,0-0.2,0-0.3,0c-0.8,0-1.4,0-2,0.7c-0.3,0.4-0.6,0.9-0.4,1.3c0.1,0.2,0.3,0.3,0.5,0.3
			c0.1,0,0.3,0,0.4-0.1c0.4-0.2,0.5-0.2,0.6-0.2c0,0,0,0,0.1,0c0,0,0,0,0,0c0,0.2,0,0.4,0,0.6c0,0.1,0,0.2,0,0.3
			c0,0.3,0,0.8-0.1,0.8c0,0-0.1,0-0.3-0.1c-0.4-0.2-0.7-0.4-0.9-0.5c-0.3-0.2-0.5-0.3-0.8-0.4l-0.5-0.2L167,57l-0.1,0.2
			c-0.2,0.2-0.5,0.5-0.6,0.5c0,0-0.1-0.1-0.2-0.2c-0.3-0.6,0-1,0.1-1.1l0.4-0.4L166,56c-0.5-0.1-1-0.3-1-0.4
			c-0.1-0.5-1.1-0.7-1.5-0.7c-0.3,0-0.8,0.1-1,0.3c-0.4,0.4-1.9,1.4-2.3,1.6c-0.1,0-0.2,0.1-0.3,0.1c0,0-0.1-0.2-0.2-0.3
			c-0.3-0.5-0.8-0.6-1.3-0.7c-0.2,0-0.3-0.1-0.5-0.1c-0.2-0.1-0.5-0.4-0.6-0.8c-0.1-0.2-0.1-0.4,0-0.6c0.4-0.6,0.7-0.8,1.2-0.8
			c0.8,0,1.7-0.5,1.9-1.2c0.1-0.4,0.4-0.5,0.8-0.8l0.1-0.1c1-0.5,1.8-1,2-1.6c0.1-0.6-0.1-1.4-0.3-1.9c0-0.1,0-0.2-0.1-0.3
			c-0.1-0.4-0.1-1.8-0.1-2.3c0-0.1,0-0.2,0-0.4c0-0.1,0-0.1,0-0.2c0.1,0.1,0.2,0.1,0.3,0.1c0.2,0,0.4-0.1,0.5-0.3
			c0.2-0.2,0.2-0.5,0.2-0.8c-0.1-0.4-0.1-0.4,0.4-0.8c0.2-0.1,0.2-0.1,0.3-0.1c0,0,0.1,0,0.1,0.1c0.1,0.1,0.2,0.2,0.5,0.3
			c0.1,0,0.3,0,0.4,0.1c0.3,0,0.4,0.1,0.7,0.3c0.1,0.1,0.3,0.2,0.4,0.2c0.2,0,0.4-0.1,0.4-0.3c0.1-0.3,0-0.8-0.4-1.1
			c-0.3-0.2-0.4-0.5-0.5-0.8c-0.1-0.2-0.2-0.4-0.3-0.6c-0.1-0.1-0.1-0.2-0.2-0.4c-0.1-0.3-0.3-0.8-1-1c-0.8-0.2-1.1-0.3-1.6-0.6
			c-0.2-0.1-0.4-0.2-0.6-0.2c-0.4,0-0.6,0.3-1.1,0.8c-0.4,0.5-0.4,0.7-0.5,0.9c0,0.1,0,0.2-0.1,0.4c-0.2,0.5-0.2,0.7-0.1,1
			c0,0.1,0.1,0.2,0.1,0.3v0.2l0.2,0c0,0,0.1,0,0.2,0c0.2,0,0.7-0.1,1.2-0.4c0.1,0,0.1-0.1,0.1-0.1c0,0,0,0,0,0
			c0,0.1,0.1,0.2,0.2,0.3c0.2,0.2-0.2,0.7-0.3,0.9c0,0-0.1,0.1-0.1,0.1c-0.1,0.1-0.1,0.2-0.1,0.3c-0.2,0-0.3,0-0.4,0
			c-0.2,0-0.3,0-0.5,0c-0.2,0-0.4,0-0.6,0.1c-0.9,0.1-1.6,0.4-2,0.8c-0.2,0.1-0.3,0.4-0.5,0.6c-0.4,0.5-0.8,1-1.4,1c0,0-0.1,0-0.1,0
			c-0.9-0.1-1.3-0.6-1.7-1c-0.1-0.1-0.1-0.1-0.2-0.2c-0.4-0.4-2.1-1-2.8-1.1c-0.5-0.1-0.9-0.3-1.2-0.6c-0.1-0.1-0.3-0.2-0.5-0.3
			c-0.1-0.1-1.1-0.6-1.8-0.6c-0.4,0-0.5,0.1-0.6,0.3c-0.1,0.1-0.4,0.3-0.6,0.4c-0.2,0.1-0.4,0.2-0.5,0.3c0,0,0-0.1-0.1-0.1
			c-0.3-0.4-0.2-0.6-0.2-0.6c0,0,0,0,0.1-0.1c0.2-0.1,0.3-0.2,0.3-0.4c0-0.4-0.5-0.8-0.9-1c-0.1,0-0.2-0.1-0.3-0.1
			c-0.3-0.1-0.5-0.2-0.9-0.2c-0.2,0-0.4,0-0.5,0.1c-0.3,0-1.4,0.1-1.8,0.5c-0.3,0.3-1.1,0.7-1.6,0.7c-0.1,0-0.2,0-0.3-0.1
			c0,0-0.1-0.1-0.1-0.1c0-0.1,0.3-0.4,0.6-0.4l0.1,0c0.6-0.1,1.4-0.3,1.9-1.1c0.4-0.7,0.6-1.5,0.6-2.5c0-0.5,0.1-0.8,0.1-1.2
			c0-0.2,0.1-0.3,0.1-0.6c0-0.2,0-0.5-0.1-0.7c-0.2-0.2-0.4-0.2-0.5-0.2c-0.1,0-0.1,0-0.2,0c-0.1,0-0.3-0.1-0.5-0.1
			c0.1-0.2,0.3-0.5,0.3-0.8c0.1-0.8,0-1.4-0.4-2c-0.3-0.6-1-1-1-1l-0.4-0.3v0.5c0,0,0,0.8-0.4,0.8c-0.6,0-1-0.2-1.4-0.6
			c-0.5-0.5-0.9-0.6-1.6-0.8l-0.1,0c-0.6-0.2-1.5-0.7-1.8-0.8v-0.6v-0.5l-0.4,0.2c-0.1,0-1.3,0.8-1.8,1.2c-0.3,0.2-0.4,0.5-0.6,0.7
			c0,0,0,0,0,0.1c-0.1-0.3-0.2-0.6-0.2-0.9l0-0.2h-0.3c0,0-0.8,0-1.4,0.7c-0.3,0.3-0.6,0.6-0.9,0.6c-0.1,0-0.2,0-0.4-0.2
			c-0.2-0.3-0.2-0.5-0.1-0.7c0-0.2,0-0.5-0.2-0.7c-0.3-0.3-1.1-0.7-1.8-0.7c-0.6,0-1.6,0-2.1-0.3c-0.1-0.1-0.2-0.1-0.2-0.1
			c-0.4-0.2-0.7-0.4-1.3-0.4h-2.7c-0.1,0-0.3,0-0.5,0.1c-0.2,0-0.5,0.1-0.8,0.1c-0.3,0-0.4-0.1-0.5-0.2c-0.2-0.2-0.5-0.4-0.8-0.4
			c-0.4,0-0.7,0.2-0.7,0.2l0,0l0,0c0,0-0.2,0.2-0.3,0.5l-3-0.1c-0.2,0-0.6-0.1-0.7-0.3c-0.1-0.2-0.1-0.3-0.1-0.5
			c0-0.2,0-0.5-0.1-1.1c-0.3-1.2-0.1-1.3-0.1-1.3c0,0,0,0,0.1,0c0,0,0.1,0,0.1,0c0.1,0,0.1,0,0.2,0c0.3,0,0.6-0.1,0.8-0.5
			c0.1-0.1,0.3-0.3,0.4-0.4c0.3-0.2,0.5-0.4,0.5-0.7c0-0.2-0.1-0.3-0.4-0.4c-0.2-0.1-0.3-0.2-0.4-0.3c-0.3-0.2-0.5-0.3-0.8-0.3
			c-0.2,0-0.5,0.1-0.6,0.4c-0.4,0.6-0.5,1.2-0.5,1.4l-0.2,0.7c-0.5,0.9-0.9,1.7-1.1,2.9c-0.2,0.9-0.1,1.7-0.1,2.4c0,0.2,0,0.4,0,0.5
			c0,0.2,0,0.4,0,0.6c0,0.6-0.1,1.3,0.5,1.4c0.1,0,0.2,0,0.3,0c0.2,0,0.4-0.1,0.4-0.2c0.2-0.2,0.2-0.6,0.1-1.3l0-0.1
			c-0.2-0.9-0.2-0.9,0.1-1.4l0.1-0.1l0-0.1c0.1-0.2,0.2-0.4,0.2-0.5c0,0,0,0.1,0,0.1c0.1,0.3,0.3,0.8,0.8,0.8c0.2,0,0.3,0,0.5-0.1
			c0.7-0.2,0.8-0.3,1-0.5c0.1,0,0.2-0.1,0.3-0.2c0.2-0.1,0.3-0.1,0.6-0.1c0.2,0,0.3,0,0.5,0c0.1,0,0.3,0,0.4,0c0,0,0,0,0,0
			c0,0.2,0,0.4,0,0.5c0.2,0.6,0.5,1.4,1.2,1.9c0.1,0.1,0.2,0.2,0.3,0.2c0.2,0.2,0.2,0.2,0.2,0.6c-0.1,0.9,0.2,1.7,0.7,1.8
			c0.2,0.1,0.3,0.5,0.3,0.8c0,0.3,0.4,0.6,0.8,0.9c0.2,0.1,0.4,0.3,0.5,0.4c0,0.1,0.1,0.1,0.2,0.2c0.1,0.2,0.2,0.2,0,0.4
			c-0.3,0.4-0.2,0.7-0.2,0.8c0.1,0.3,0.4,0.4,0.8,0.4c0.1,0,0.2,0,0.2,0c0,0,0,0-0.1,0.1c-0.2,0.3-0.2,0.6-0.1,0.8
			c0,0.2,0.1,0.4-0.1,0.5c-0.1,0.2-0.3,0.3-0.4,0.3c-0.2,0.1-0.4,0.2-0.6,0.7c-0.2,0.6-0.2,1,0,1.3c0.1,0.1,0.3,0.3,0.6,0.3
			c0.1,0,0.1,0,0.2,0c0.1,0,0.1,0,0.2,0c0.2,0,0.3,0,0.5,0.1c0.2,0,0.3,0,0.5,0c0.4,0,0.7-0.2,0.8-0.6c0.2-0.6,0.4-1.1,0.5-1.4
			c0,0.1,0.1,0.2,0.2,0.5c0.1,0.3,0.1,0.6-0.4,0.9c-0.6,0.3-0.7,0.6-1,1.1l-0.1,0.1c-0.1,0.2-0.2,0.3-0.2,0.3c0,0,0,0,0,0
			c0,0-0.1,0-0.1,0c-0.1,0-0.2,0-0.4,0c-0.3,0-0.6,0-0.9,0c-0.3,0-0.6,0-0.8,0.1c-0.2,0-0.4,0-0.6,0c-0.6,0-1.3,0-1.9,0.4l-0.7,0.5
			l-0.4,0.3l0.5,0.2c0.1,0,0.6,0.2,1,0.3c-0.1,0-0.1,0.1-0.2,0.1c-0.3,0.2-0.5,0.2-0.7,0.3c-0.2,0-0.4,0-0.7,0.3
			c-0.5,0.6,0.5,1.5,0.7,1.7l0,0l0,0l0.1,0.1c0.4,0.3,0.5,0.3,0.6,0.5c0.1,0.3,0.3,0.3,0.3,0.3c0.2,0,0.3-0.1,0.4-0.2
			c0.2-0.2,0.4-0.4,0.7-0.5c0.2-0.1,0.4-0.1,0.7-0.1c0.4,0,0.8,0.1,1,0.1c0.1,0.1,0.2,0.4,0.1,1c-0.1,0.6-0.1,0.7-0.2,0.8
			c-0.1,0.1-0.2,0.2-0.3,0.4c-0.3,0.7-0.4,1,0,1.6c0.1,0.2,0.1,0.2,0.1,0.3c0,0.1,0,0.2,0.1,0.5c0.2,0.3,0.5,0.5,0.8,0.5
			c0.3,0,0.5-0.1,0.8-0.3c0.1-0.1,0.2-0.1,0.2-0.1c0,0,0.1,0.2,0.2,0.3c0,0.1,0.1,0.1,0.1,0.2c0.1,0.1,0.2,0.3,0.2,0.4
			c0.2,0.3,0.3,0.5,0.4,0.8c0.1,0.5,0.1,0.9,0,1c0,0,0,0,0,0c0,0-0.1,0-0.2,0c-0.2-0.1-0.3-0.1-0.4-0.2c-0.4-0.2-0.7-0.3-0.9-0.3
			c-0.2,0-0.3,0-0.5,0.1c-0.1,0-0.2,0.1-0.3,0.1c-0.2,0.1-0.5,0.2-0.6,0.4c-0.1,0.2,0.1,0.5,0.2,0.6c0.4,0.5,0.7,0.9,1,1.6
			c0.1,0.2,0.1,0.3,0.2,0.4c0.2,0.5,0.4,0.9,0.7,1.3c0.4,0.4,0.8,0.7,1.3,0.7c0.2,0,0.3,0,0.5-0.1c0.1,0,0.2,0,0.3,0
			c0.2,0,0.5,0,0.8,0.1c0.3,0,0.6,0.1,0.9,0.1c0.1,0,0.2,0,0.3,0c0.6,0,1.7,0.1,2.1,0.3c0.2,0.1,0.3,0.2,0.5,0.2
			c0.4,0.2,0.8,0.3,1,1c0.1,0.4,0.2,0.7,0.3,1c-0.3-0.3-0.6-0.7-1-0.9c-0.7-0.5-1.5-1-2.3-0.8c-0.8,0.1-1.7,0-2.4,0.5
			c-0.7,0.5-1.7,0.7-2.9,0.5c-1.2-0.2-1.9,0.3-2.5-0.4c-0.6-0.7-1.6-2.1-2.3-1.3c-0.7,0.8-1.3,1.5-1.4,2.1c-0.1,0.6-0.5,2.4-1,3.2
			c-0.4,0.7-0.1,2.2,0.3,2.9c0.4,0.6,0.6,0.8,0.6,1.7c0,0.8,0,1.7,0,1.7s-0.3-0.8-0.7-1.3c-0.4-0.4,0,0-0.8-0.2
			c-0.8-0.2-0.8,0-1.4-0.7c-0.5-0.7-1-1.8-1.7-1.3c-0.7,0.5-1.1,0.4-1.1,1.2c0,0.7,0,1.3-0.2,1.8c-0.2,0.5,0.4,1.1,0.8,0.4
			c0.4-0.6,0.6-0.1,0.7,0.8c0.1,1,0,1.4-0.5,2c-0.5,0.6-1.1,1.1-1.8,0.3c-0.7-0.7-0.5-1.5-1.5-1.5c-1,0-1.5-1.3-0.8-1.5
			c0.6-0.2,1.4,0.4,1.7-0.2c0.3-0.6,0.4-1.1,0-1.8c-0.4-0.7-0.6-1.7-1-2.1c-0.3-0.4-1.2,0-1.2-1c0-1,0.2-1.2-0.5-1.4
			c0,0-0.8-0.3-1.5-0.3c-0.6,0-1.3-0.3-1.7,0.1c-0.4,0.4-1.9,0.2-2.5,0.5c-0.6,0.3-2.6,1.2-3.3,0.8c-0.6-0.3-1.8-0.6-2.5-0.4
			c-0.7,0.2-2.3,0-3,0.6c-0.6,0.6-1.8,1.5-2.2,2.1c-0.4,0.6-0.3,1,0.3,1.4c0.6,0.4,0.4,0.8-0.5,0.7c-1-0.1-1,0-1.2,0.8
			c-0.2,0.8-0.2,1.7-0.5,2.5c-0.3,0.8-0.5,2.2,0.6,2.4c1.2,0.2,3-0.1,3.5,0.1c0.5,0.2,0.1,0,0,0.8c-0.1,0.8,0,1.5-0.4,1.9
			C91,80,91.7,80.1,91.6,81c-0.1,0.8-0.4,0.3-0.6,1.1c-0.2,0.7-0.1,1.1,0.1,2.1c0.2,1.1,0.5,2.6,0,3.6c-0.5,1-1.3,2.8-1.9,3.5
			c-0.6,0.7-1,2.1-0.8,3.1c0.1,1-0.3,2.4-0.3,2.9c0,0.4,0,1.7-0.7,1.3c-0.7-0.4-1.3-0.2-2-0.4c-0.7-0.2-1.3-0.6-1.8-0.4
			c-0.5,0.2-1.9-0.1-1.9,0.6c0,0.7-0.1,1.4,0.2,1.6c0.3,0.2,0.7,0.4,0.1,0.7c-0.6,0.3-0.7,0.2-0.7,0.8c0,0.6,0,1.6,0.5,1.8
			c0.5,0.2,1.9,0.7,2.5,1c0.6,0.2,1.7,0.5,1.8,0.1c0.1-0.4,0.7-1.4,0.8-0.5c0.1,0.8,0.7,1.9,1.1,2.1c0.3,0.2,0.4,1.3,0,1.8
			c-0.4,0.5-1,2-0.7,2.3c0.1,0.2,0.3,0.4,0.5,0.5l0,0c-0.2,0.2-0.5,0.3-1,0.4c-0.8,0.1-0.9,0.5-1.1,0.9c0,0.1-0.1,0.1-0.1,0.2
			c0,0.1,0,0.1-0.3,0.1c-0.2,0-0.5,0-0.7,0.2c-0.3,0.2-0.5,0.6-0.6,1c-0.1,0.2-0.2,0.5-0.3,0.6c-0.2,0.2-0.4,0.2-1.1,0.2
			c-0.9,0-1.3,0.8-1.4,1.1c0,0-0.1,0-0.1,0c-0.3,0-0.4,0.2-0.5,0.3c-0.2,0.2-0.2,0.4-0.2,0.6c0.1,0.3,0.4,0.6,0.8,0.9l0.2,0.1
			c0.5,0.3,0.9,0.6,1.2,1c0.1,0.1,0.1,0.2,0.2,0.2c0,0.1,0.1,0.1,0.1,0.1c0,0,0,0.1-0.1,0.3c-0.1,0.2-0.2,0.3-0.3,0.4
			c-0.2,0.2-0.3,0.4-0.5,0.9c-0.2,0.4-0.7,0.8-1,0.9c-0.2-0.7-0.6-0.8-0.9-0.8c-0.2,0-0.3,0-0.5,0.1c-0.5,0.2-2.3,0.8-2.7,1.2
			c-0.2,0.2-0.6,0.5-0.9,0.5c-0.1,0-0.2,0-0.3-0.1c-0.3-0.4-0.8-0.7-1.1-0.7c-0.2,0-0.4,0.1-0.5,0.3c-0.1,0.3,0.1,0.6,0.3,0.7
			c0.1,0.1,0.2,0.3,0.2,0.3c0,0,0,0,0,0c-0.1,0-0.2-0.1-0.5-0.3c-0.5-0.4-1.1-0.8-1.8-0.8c-0.1,0-0.2,0-0.2,0
			c-0.2,0-0.4,0.1-0.6,0.1c-0.3,0-0.5-0.1-0.6-0.2c-0.1-0.1-0.1-0.2-0.2-0.4c-0.1-0.4-0.3-0.8-0.7-0.8c-0.2,0-0.8,0-1,0.4
			c-0.1,0.1-0.1,0.3,0.1,0.6c0.1,0.1,0.1,0.2,0.2,0.3c0.1,0.2,0.4,0.5,0.5,0.6c-0.7,0-0.8-0.1-1-0.4c-0.1-0.2-0.3-0.4-0.6-0.4
			c-0.3,0-0.6,0.2-0.8,0.6c-0.1,0.3-0.4,0.4-1.1,0.5c-0.4,0.1-0.6,0.3-0.7,0.5c-0.1,0.3,0.1,0.7,0.5,1c0.3,0.3,0.4,0.5,0.4,0.6
			c0,0-0.1,0.1-0.1,0.1c-0.6,0.2-0.8,0.6-0.9,0.6l-0.4,0.6l0.7-0.1c0,0,0.1,0,0.3,0c0.2,0,0.4,0,0.6,0.1c0.3,0.1,0.4,0.3,0.4,1
			c0,0.7,0.1,1,0.8,1.3l0.2,0.1c0.2,0.1,0.4,0.2,0.5,0.2c0,0,0,0-0.1,0c-0.3,0.2-0.5,0.4-0.5,0.7c0,0.3,0.2,0.5,0.5,0.9
			c0.6,0.6,0.9,1,1,1.4c0.1,0.3,0.2,0.5,0.3,0.7c0.1,0.2,0.3,0.4,0.4,0.8c0,0.2,0.1,0.4,0.2,0.6c0.2,0.6,0.4,1.1,0.1,1.7
			c-0.3,0.6-0.2,1.1-0.2,1.4c0,0.3,0,0.5,0,0.7c-0.1,0.2-0.2,0.3-0.3,0.4c-0.2,0.1-0.4,0.3-0.8,0.8c-0.3,0.5-0.6,0.9-0.8,1.3
			c-0.2,0.3-0.4,0.6-0.5,0.8c-0.2,0.2-0.9,1.2-0.8,1.8c0,0.2,0.1,0.4,0.3,0.5c0.2,0.1,0.5,0.2,0.7,0.2c0.2,0,0.4,0,0.6-0.1l-0.1,0.1
			l0.2,0.2c0,0,0.1,0.1,0.1,0.3c-0.1,0-0.3,0-0.6,0.1l-0.2,0.1c-0.5,0.2-0.9,0.4-1.3,1c-0.1,0.3-0.2,0.3-0.3,0.3
			c-0.1,0-0.3,0.1-0.5,0.3c-0.4,0.3-0.7,0.8-0.8,1.2c-0.1,0.1-0.1,0.2-0.2,0.3c-0.1,0-0.3-0.3-0.3-0.4c0-0.6-0.4-0.6-0.5-0.6
			c-0.2,0-0.4,0.1-0.6,0.3c-0.4,0.3-0.3,0.7-0.2,1c0.1,0.2,0.1,0.4,0.1,0.7c0,0.2,0,0.3,0,0.5c0,0.4-0.1,0.7,0.1,0.9
			c0.1,0.1,0.3,0.2,0.5,0.2c0.1,0,0.2,0,0.3,0c0.5-0.1,0.8-0.1,1-0.1c0.2,0,0.3,0,0.5-0.1c0,0,0,0,0.1,0c0,0,0.1,0,0.1,0
			c0,0,0,0.1-0.1,0.3c-0.3,0.4-0.2,0.7-0.1,0.9c0.2,0.3,0.5,0.5,1,0.5c0.2,0,0.2,0,0.2,0c0,0.1,0,0.3,0,0.5c0,0.2,0,0.4,0.1,0.6
			c0,0.2,0.1,0.5,0,0.5c0,0,0,0-0.1,0c-0.1,0-0.1,0-0.2,0c-0.1,0-0.3,0-0.4,0c-0.1,0-0.2,0-0.3,0c-0.1,0-0.3,0-0.4,0.1
			c-0.1,0.1-0.2,0.3-0.2,0.5c0,0.7,0,0.8-0.3,0.9c-0.4,0.1-0.5,0.3-0.5,0.4c0,0.3,0.3,0.6,0.6,0.8c0.1,0.1,0.2,0.1,0.3,0.1
			c0.1,0,0.1,0.1,0.2,0.1c0,0,0,0.1-0.1,0.3c-0.2,0.5-0.2,0.9,0,1.1c0.1,0.2,0.3,0.3,0.6,0.4c0.1,0,0.1,0,0.2,0c0.2,0,0.4,0,0.5-0.1
			c0.1,0,0.2-0.1,0.3-0.1c0.1,0,0.1,0,0.2,0.1c0.2,0.3,0.2,0.4,0.3,0.6c0,0.1,0.1,0.3,0.2,0.6c0.1,0.3,0.1,0.4,0.1,0.6
			c0,0.4,0.1,0.6,0.7,0.8c0.2,0.1,0.4,0.1,0.6,0.1c0.2,0,0.3,0,0.4-0.1c0,0,0,0,0.1,0c0,0,0,0,0,0.1c0.1,0.2,0.2,0.3,0.2,0.4
			c-0.1,0.1-0.3,0.2-0.4,0.3c-0.3,0.3-0.5,0.4-0.7,0.4c-0.3,0.1-0.5,0.3-0.6,0.8c-0.2,0.8,0,1.1,0.3,1.4c0.1,0.1,0.1,0.1,0.2,0.2
			c0.1,0.1,0.1,0.2,0.1,0.2c0.1,0.2,0.2,0.4,0.6,0.4c0.1,0,0.3,0,0.6-0.1c0.1,0,0.2,0,0.3,0c0.5,0,0.8,0.4,1.1,0.9
			c0.1,0.2,0.3,0.4,0.4,0.5c0.2,0.2,0.3,0.3,0.1,0.7c-0.4,0.8-0.6,1.3-0.2,2c0,0.1,0.1,0.1,0.2,0.2l0,0l0.1,0.1l0,0l0.4,0.3l0,0
			c0.1,0.1,0.1,0.1,0.2,0.1c0,0,0,0-0.1,0.1l0,0c-0.3,0.3-0.5,0.6-0.7,0.6c-0.1,0-0.1,0-0.2-0.1c-0.2-0.1-0.4-0.2-0.6-0.2
			c-0.4,0-0.8,0.3-1.1,1c-0.2,0.4-0.5,0.5-0.9,0.6c-0.2,0.1-0.5,0.2-0.7,0.3c-0.5,0.4-0.9,1.2-0.5,1.9c0,0,0,0.1,0.1,0.1
			c-0.1,0-0.2,0.1-0.4,0.3c-0.4,0.3-0.4,0.4-0.5,0.7c0,0.1,0,0.3-0.2,0.7c-0.1,0.2-0.2,0.5-0.3,0.7c-0.3,0.7-0.6,1.4-0.2,2.1
			c0.2,0.3,0.3,0.7,0.4,1c0.2,0.5,0.4,1,0.7,1.3c0.1,0.1,0.2,0.2,0.3,0.3c0.3,0.3,0.5,0.4,0.6,1c0.1,0.9,0.5,1.6,1.2,2
			c0.1,0.1,0.3,0.2,0.4,0.3c0.3,0.3,0.6,0.6,1.1,0.6c0.1,0,0.1,0,0.2,0c0.2,0,0.4-0.1,0.5-0.1c0,0,0,0,0,0c0,0,0,0.1,0,0.3
			c0,0.7,0.7,1.1,1.7,1.1c0.3,0,0.6,0.1,0.7,0.3c0.1,0.1,0.1,0.2,0,0.4c-0.2,0.4-0.1,0.7-0.1,1.1c0,0.5,0,0.8-0.3,0.9
			c-0.1,0.1-0.3,0.1-0.4,0.2c-0.5,0.3-0.8,0.4-0.9,1.2c0,0.2,0,0.3,0,0.4c0,0.4-0.1,0.6-0.4,1c-0.5,0.5-0.9,1-1,1.6
			c0,0.2-0.1,0.3-0.2,0.5c-0.1,0.2-0.1,0.3-0.2,0.5l-0.2,0.7l0.4-0.3c0,0.1,0,0.2,0.1,0.2c0.2,0.5,0.2,2.1,1.2,1.6
			c1-0.5,1,0.3,1.4,0.5c0.4,0.2,1.5,0.6,1.3,1.2c-0.2,0.5,0.1,1,0.5,1.2c0.4,0.2,0.3,0.3,0,0.6c-0.3,0.3-0.1,0.6,0.4,1.3
			c0.5,0.6,1.5,1.3,1.5,1.9c0,0.6,0.3,1.4,0.8,1.2c0.5-0.2,0,0.2-0.1,0.8c-0.1,0.6,0.2,0.8,1,1c0.7,0.1,0.6,0.5,1.1,0.5
			c0.4,0,1-0.7,0.8-1.2c-0.1-0.4-0.6-0.8-0.2-1c0.4-0.1,1.3-0.4,1.8-0.1c0.5,0.3,1.3,0.1,1.6,0.8c0.3,0.7,0.3,1.1,0.5,1.7
			c0.2,0.6,1,0.6,1,0.1c0-0.5,0.4-0.4,1,0c0.5,0.4,1.8,1,2.3,0.6c0.5-0.3,0.6,0.3,1.2-0.2c0.2-0.2,0.4-0.4,0.6-0.6l0.1,0.4l0.4-0.5
			c0.1-0.1,0.1-0.2,0.2-0.2c0.2-0.1,0.7-0.2,1-0.2c0.1,0,0.1,0,0.1,0c0.2,0.1,0.4,0.1,0.6,0.2c0.4,0.1,0.6,0.1,0.6,0.3
			c0,0.2,0,0.3,0,0.5c0,0.4,0,1,0.5,1.4c0.2,0.1,0.4,0.3,0.5,0.4c0.3,0.3,0.5,0.4,0.7,0.4c0.2,0,0.3-0.1,0.4-0.2
			c0,0,0.1-0.1,0.1-0.1c0,0,0.1,0,0.1,0.1c0.1,0.2,0.6,1.2,1.3,1.2c0.2,0,0.3-0.1,0.4-0.2c0.1-0.1,0.3-0.2,0.3-0.2
			c0,0,0.1,0,0.1,0.1c0.1,0,0.2,0.1,0.3,0.1c0.1,0.1,0.3,0.1,0.4,0.1c0.3,0,0.6-0.2,0.8-0.3c0.1-0.1,0.2-0.1,0.3-0.2c0,0,0,0,0,0
			c0,0,0.1,0.1,0.1,0.1c0.1,0.2,0.3,0.4,0.6,0.5c0.1,0,0.1,0,0.2,0.1c0.2,0.1,0.5,0.2,0.7,0.2c0.3,0,0.5-0.1,0.8-0.3
			c0.2-0.1,0.3-0.2,0.4-0.2c0.1,0,0.3,0.1,0.5,0.3c0.3,0.3,0.8,0.5,1.2,0.7c0.3,0.1,0.6,0.3,0.8,0.4c0.1,0,0.1,0.1,0.2,0.1
			c0.4,0.3,0.8,0.7,1.5,0.7c0.3,0,0.7,0.3,1.1,0.6l-0.1,0.1c-0.5,0.6-1.3,1.5-1.6,2.2c-0.1,0.3-0.2,0.5-0.2,0.8
			c-0.2,0.6-0.4,1.4-0.7,1.5c-0.8,0.2-1.2,0.5-1.6,1c-0.3,0.4-0.6,0.9-0.8,1.3c-0.1,0.2-0.2,0.4-0.3,0.5c-0.2,0.3-0.9,1-1.4,1.4
			c-0.6,0.5-1.5,1.7-1.5,3c0,1-0.3,1.7-0.9,2.2c-0.5,0.4-0.5,0.9-0.5,1.3c0,0.2,0,0.5,0,0.7c-0.1,0.3-0.1,0.9-0.1,1.6
			c0,0.6,0,1.6-0.2,1.8l0,0c-0.4,0.3-0.8,0.6-1,1.5c-0.1,0.5-0.3,0.9-0.6,1.3c-0.1,0.2-0.3,0.5-0.5,0.8c-0.3,0.5-0.4,0.9-0.6,1.2
			c-0.1,0.3-0.2,0.6-0.4,0.7c-0.4,0.5-0.7,1.6-0.5,2.6c0.2,0.8,0.5,1.4,0.8,1.9c0.1,0.1,0.1,0.2,0.2,0.3c0.2,0.3,0.1,0.7-0.3,1.1
			c-0.4,0.4-0.7,1.1-0.6,1.6c-0.2,0.3-0.6,0.9-0.4,1.6c0.1,0.5,0.1,0.5-0.1,0.9c0,0.1-0.1,0.1-0.1,0.2c-0.4,0.7-0.5,1.3-0.2,2
			c0.1,0.3,0.1,0.3-0.1,0.7c-0.1,0.1-0.1,0.2-0.2,0.4c-0.2,0.5-0.5,1.4,0.7,2.5c0.6,0.5,0.6,0.9,0.6,1.2c0,0.1,0,0.2,0.1,0.4
			c0.1,0.3,0.5,0.6,0.8,0.6c0.3,0,0.6-0.2,0.8-0.5c0.2-0.2,0.3-0.3,0.3-0.4c0,0.1-0.2,0.3-0.3,0.4c-0.1,0.2-0.3,0.3-0.3,0.5
			c-0.1,0.2-0.1,0.5,0,0.7c0.2,0.3,0.6,0.5,1,0.5c0.2,0,0.5-0.1,0.7-0.2c0.4-0.2,0.9-0.5,1.4-0.7c0.6-0.4,1.5-0.8,1.7-0.8
			c0.1,0,0.2,0.4,0.2,0.5c0.1,0.4,0.2,0.8,0.6,0.9c0.2,0.1,0.6,0.1,0.8,0.1c0.4,0,2.7,0,3.5-0.9c0.6-0.6,2-1.3,2.8-1.3
			c0.3,0,0.4,0.1,0.5,0.2c0.5,1.2,1.5,1.3,2.2,1.3c0.4,0,0.9-0.1,1.6-0.2l0.3-0.1l-0.1-0.3c0-0.1-0.1-0.7,0.6-1.1
			c0.2-0.1,0.3-0.1,0.5-0.1c0.5,0,0.8,0.3,0.9,0.4v0.2h0.3c0.3,0,0.9-0.2,1-1c0-0.2,0.1-0.3,0.2-0.5c0.1-0.2,0.3-0.4,0.2-0.7
			c-0.1-0.2-0.3-0.4-0.8-0.6c-0.3-0.1-0.6-0.2-0.8-0.2c-0.4,0-0.6,0.3-0.8,0.5c-0.1,0.1-0.2,0.2-0.3,0.3c-0.2,0.1-0.5,0.2-0.8,0.2
			c-0.3,0-0.6-0.1-0.9-0.4c-0.2-0.2-0.3-0.6-0.2-0.9c0.1-0.3,0.2-0.5,0.4-0.5c0.6-0.2,0.7-0.8,0.8-1.2c0-0.1,0-0.2,0-0.2
			c0.1-0.1,0.4-0.1,0.6-0.2c0.4-0.1,0.8-0.2,1.2-0.4c0.2-0.1,0.3-0.2,0.4-0.2c0.2,0,0.3,0.3,0.3,0.5c0.1,0.5,0.3,0.6,0.6,0.6
			c0.3,0,0.7-0.3,0.8-0.8c0.8,0.3,1.3,0.7,1.3,0.8c-0.2,0.2-0.4,0.4-0.6,0.5c-0.3,0.1-0.6,0.3-0.8,0.8c-0.1,0.3,0,0.5,0.1,0.6
			c0.3,0.4,0.9,0.4,1.1,0.4c0.2,0,0.3,0,0.4,0c0,0,0,0,0,0c0.1,0,0.3,0.1,0.4,0.2c0.2,0.1,0.4,0.2,0.6,0.2c0.2,0,0.4-0.1,0.5-0.3
			c0.1-0.3,0-0.7-0.3-1.1c0.1,0,0.2,0.1,0.3,0.2c0.8,0.5,0.8,0.8,0.7,1.2c0,0.2,0,0.5,0.1,0.6c0.2,0.2,0.4,0.3,0.7,0.3
			c0.3,0,0.6-0.1,1-0.3c0.7-0.4,1.4-0.7,2-0.7c0.2,0,0.4,0,0.5,0.1c1,0.2,2.3,0.8,2.9,1c0.2,0.1,0.6,0.2,1,0.4
			c0.8,0.3,2.4,0.8,2.5,1.2c0.8,1.9,1.5,2.8,2.1,2.9c0.1,0,0.2,0,0.3,0c0.7,0,1.2-0.3,1.8-0.7c0.1,0,0.1-0.1,0.2-0.1
			c0.3,0,0.7,0.3,0.8,0.4l0.2,0.2l0.2-0.1l0.7-0.5c0.2,0.1,0.7,0.2,1,0.2c0.3,0,0.5-0.1,0.6-0.2c0.1-0.2,0.2-0.4,0.2-0.6l0,0l0-0.4
			c0,0,0,0,0,0l0,0c0.1-0.4,0.3-1.1,0.5-1.3c0.1-0.1,0.2-0.1,0.3-0.1c0.2,0,0.3,0.1,0.4,0.2c0,0,0.1,0.1,0,0.3
			c-0.2,0.6,0,0.9,0.1,1.1c0.2,0.2,0.4,0.3,0.7,0.3c0.1,0,0.1,0,0.2,0c0.1,0,0.2,0,0.4-0.1c0.4-0.1,0.9-0.2,1.2-0.2
			c0.2,0,0.2,0,0.2,0c0.1,0.1,0.1,0.2,0.2,0.4c0.1,0.3,0.3,0.7,0.6,1c0.4,0.4,1.1,0.6,1.5,0.6c0.1,0,0.2,0,0.2,0
			c0.1,0.1,0.4,0.5,0.5,0.9c0,0.1,0,0.3-0.1,0.4c-0.4,0.4-0.5,0.8-0.5,1.2c0,0.3,0.2,0.6,0.5,0.8c0.2,0.1,0.5,0.2,0.9,0.2
			c0.7,0,1.2-0.3,1.4-0.8c0-0.1,0.1-0.1,0.1-0.1c0,0,0.1,0,0.2,0.1c0.1,0.1,0.2,0.3,0.1,0.6c-0.1,0.2-0.1,0.5-0.1,0.6
			c-0.1,0.6-0.2,0.9-0.4,1.1c-0.3,0.2-0.4,0.6-0.3,0.9c0.1,0.3,0.3,0.4,0.7,0.4c0.1,0,0.2,0,0.3-0.1c0.1,0,0.2,0,0.2-0.1
			c0.8-0.2,2.3-0.6,2.7-1.7c0.4-1,1.2-1.7,1.5-1.7c0.4-0.1,0.6-0.5,0.8-1c0.1-0.2,0.2-0.4,0.3-0.5c0.3-0.4,0.3-1.3,0.2-1.9
			c-0.1-0.3-0.2-0.5-0.4-0.6c-0.3-0.2-0.5-0.2-0.3-0.8c0-0.2,0.1-0.3,0.1-0.5c0.1,0.2,0.3,0.3,0.5,0.3c0.2,0,0.4,0.1,0.7,0.1
			c0.5,0,1.5-0.1,1.7-0.8c0-0.1,0.1-0.3,0.4-0.3c0.2,0,0.4,0.1,0.7,0.2c0.3,0.2,0.7,0.3,1,0.5c0.4,0.2,0.9,0.3,1,0.5
			c0.2,0.2,0.5,0.3,0.8,0.3c0.3,0,0.7-0.1,1.2-0.4c0.1-0.1,0.2-0.1,0.3-0.1c0.2,0,0.4,0.1,0.4,0.2c0,0.1-0.1,0.3-0.2,0.3
			c-0.1,0.1-0.5,0.4-0.4,0.7c0.1,0.3,0.5,0.3,1,0.3c0.1,0,0.2,0,0.3,0c0.1,0,0.2,0,0.2,0c0.4,0,0.8,0.8,0.9,1.2c0,0,0,0.1,0,0.1
			c0.1,0.4,0.2,1.2,1.5,1.2c0.1,0,0.2,0,0.3,0c0.9-0.1,2-0.5,2.9-0.8c0.2-0.1,0.4-0.1,0.5-0.2c0,0.1-0.1,0.2,0,0.3
			c0,0.2,0.1,0.4,0.4,0.5l0.2,0.1c0.2,0.1,0.4,0.2,0.5,0.2c0.3,0,0.5-0.2,0.8-0.7l0.1-0.1c0.4-0.6,0.7-0.9,1.1-0.9c0,0,0.1,0,0.1,0
			c0.7,0.1,1.1,0.2,1.1,0.2l0.4,0.1v-0.4v-0.6v-0.8l-0.4,0.5c0,0,0,0,0,0c0.1-0.9,0.2-1,0.8-1c0.2,0,0.4,0,0.6,0c0.2,0,0.5,0,0.7,0
			c0.4,0,0.9,0,1.3-0.3c0.4-0.3,0.3-0.6,0.2-0.8c-0.1-0.2-0.1-0.3,0.1-0.6c0.5-0.7,1-0.7,1.7-0.8l0.2,0c0.1,0,0.2,0,0.2,0
			c0.2,0,0.5,0,0.8,0.1c0.3,0,0.7,0.1,1,0.1c0.6,0,1-0.1,1.3-0.4c0.6-0.5,2.4-1.1,3.1-1.1c0,0,0.1,0,0.1,0c0.3,0.1,0.7,0.1,1,0.2
			c0.4,0.1,0.7,0.1,1.1,0.2c0.3,0.1,0.5,0.1,0.8,0.1c0.2,0,0.5,0,0.8-0.1l0,0c0.4-0.1,0.6-0.1,0.7-0.3c0.1-0.3,0-0.5-0.3-1l-0.1-0.2
			c-0.5-0.8-0.6-1.1-0.2-1.5c0.2-0.2,0.4-0.5,0.6-0.7c0.2-0.2,0.4-0.5,0.5-0.5c0,0.2-0.1,0.8-0.2,1c0,0.1-0.2,0.3,0,0.5
			c0.1,0.1,0.2,0.2,0.4,0.2c0.2,0,0.6-0.1,1.2-0.3c0.5-0.2,1.1-0.3,1.6-0.3c0.5,0,0.7,0.1,0.8,0.2c0.1,0.1,0.1,0.3,0.2,0.4
			c0.3,0.5,0.6,1.2,1.2,1.4c0.1,0,0.2,0.1,0.3,0.1c0.2,0.1,0.4,0.2,0.6,0.2c0.3,0,0.6-0.2,1-0.6c0.1-0.1,0.2-0.3,0.3-0.4
			c0.4-0.5,0.6-0.8,1.3-0.9l0.2,0c0.3,0,0.6-0.1,0.8-0.1c0.3,0,0.5,0.1,0.6,0.2c0.1,0.1,0.2,0.3,0.3,0.5c0.1,0.3,0.3,0.7,0.9,1
			c0.1,0,0.2,0.1,0.2,0.1c0,0.1-0.1,0.1-0.2,0.2c-0.1,0.1-0.1,0.1-0.2,0.2c-0.2,0.2-0.3,0.4-0.2,0.7c0.1,0.5,0.7,1.1,1.4,1.3
			c0.3,0.1,0.6,0.4,1,0.8c0.4,0.4,0.8,0.8,1.3,0.9c0.9,0.2,0.9,0.2,1.4,0.3c0.1,0,0.1,0,0.2,0c0.4,0,0.6-0.3,0.7-0.5
			c0.1-0.1,0.2-0.2,0.3-0.3c0.4-0.4,0.2-0.8,0-1.1c-0.1-0.1-0.2-0.3-0.2-0.4c0-0.2,0-0.3-0.1-0.5c-0.1-0.4-0.2-0.7,0.2-1.1
			c0.1-0.1,0.1-0.1,0.2-0.2c0.5-0.6,1.1-1.2,0.5-2.1c-0.1-0.2-0.2-0.4-0.3-0.6c-0.4-0.7-0.8-1.7-1.7-1.7c-0.2,0-0.5,0.1-0.8,0.3
			c-0.2,0.1-0.7,0.5-0.9,0.5c-0.1,0-0.1-0.3-0.2-0.5l0-0.1c-0.1-0.4-0.1-0.5,0.1-0.8c0.1-0.2,0.3-0.4,0.4-0.7
			c0.1-0.2,0.2-0.5,0.4-0.7c0.5-0.7,1-1.5,0.4-2.5c-0.3-0.4-0.5-0.8-0.6-1.2c-0.3-0.7-0.6-1.2-1.1-1.4c-0.5-0.2-1-0.7-1.1-1.4
			c-0.1-0.7-0.6-0.9-1.1-1.1c-0.2-0.1-0.4-0.2-0.6-0.3c-0.3-0.2-0.6-0.4-0.7-0.7c-0.1-0.3,0-0.5,0.1-0.8c0.2-0.3,0.4-0.4,0.7-0.6
			c0.3-0.2,0.7-0.4,1-0.9c0.3-0.4,0.3-0.8,0.4-1c0.1-0.3,0.1-0.4,0.3-0.5c0.1,0,0.3-0.1,0.5-0.1c0.1,0,0.2,0,0.3,0
			c0.1,0,0.2,0,0.2,0c0.1,0,0.5,0,0.6-0.3c0.2-0.3,1.3-1.5,2.1-1.8c0.6-0.2,1.3-0.4,2-0.5c0.3-0.1,0.6-0.1,0.9-0.2
			c0.8-0.2,3.9-1.9,4.1-3.1c0.1-0.5,0.1-0.9,0.1-1.3c0-0.3,0-0.6,0.1-1c0.2-0.7,0.4-1.4,0.4-1.4l0-0.1l0-0.1
			c-0.1-0.3-0.4-1.2-0.4-1.6c0,0,0-0.1,0-0.1c0.1,0,0.3-0.1,0.5-0.3c0.4-0.3,0.5-0.4,0.6-0.6c0-0.1,0.1-0.1,0.2-0.3c0,0,0,0,0,0
			c0.1,0.1,0.3,0.3,0.7,0.5c0.4,0.1,0.7,0.2,1.1,0.3c0.4,0.1,0.7,0.2,0.9,0.3c0.1,0.1,0.2,0.2,0.4,0.4c0.3,0.3,0.6,0.7,1,0.7
			c0.1,0,0.2,0,0.4-0.1c0.3-0.2,0.4-0.5,0.5-0.8c0.1-0.2,0.1-0.4,0.3-0.7c0.1-0.2,0.2-0.3,0.4-0.4c0.3-0.2,0.5-0.4,0.6-1.1
			c0.1-0.3,0.1-0.6,0.2-0.9c0.2-0.6,0.3-1.2,0.1-1.7c-0.1-0.2-0.2-0.3-0.2-0.3c-0.2-0.2-0.2-0.3-0.1-0.9c0-0.2,0.1-0.5,0.1-0.6
			c0.1-0.5,0.2-0.9-0.1-1.4c-0.1-0.2-0.2-0.3-0.2-0.5c-0.2-0.4-0.3-0.6-0.5-1c-0.3-0.4-0.8-1.2-0.9-1.5c-0.1-0.2-0.2-0.3-0.5-0.3
			c-0.1,0-0.2,0-0.4,0.1c-0.2,0-0.3,0.1-0.5,0.1c-0.1,0-0.1,0-0.2,0c-0.5-0.1-0.7-0.4-1.1-1.1c-0.4-0.9-1.2-1.1-2-1.3
			c-0.1,0-0.1,0-0.2,0c-0.4,0-0.6,0.4-0.7,0.6c0,0,0,0.1-0.1,0.2c0,0,0,0-0.1-0.1c-0.7-0.6-1.4-0.9-1.8-1c0-0.1,0.1-0.3,0.1-0.4
			c0.1-0.4,0.2-0.8,0.1-1.2c-0.2-0.6-1.7-2.3-2.3-2.4c-0.5-0.1-1.7-0.1-2.1-0.1c-0.2-0.2-0.5-0.5-0.6-0.8c-0.1-0.7-1-1.4-1.5-1.7
			c-0.3-0.2-0.4-0.4-0.5-0.6c-0.1-0.2-0.2-0.4-0.3-0.6c-0.4-0.6-0.9-1.1-1.3-1.5l-0.1-0.1c-0.5-0.5-1.4-1.4-2.5-1.4
			c-0.2,0-0.3,0-0.5,0.1l-0.2,0c-0.5,0.1-0.9,0.2-1.2,0.2c-0.2,0-0.4-0.1-0.5-0.4c-0.4-1-1.5-2.1-2.5-2.1c-0.1,0-0.1,0-0.1,0
			c-0.2-0.2-0.2-0.9-0.2-1.4c0-0.3,0-0.6,0-0.7c-0.1-0.6-0.7-0.9-1-1c-0.2-0.6-0.7-2.2-0.9-2.5c-0.1-0.2-0.3-0.3-0.5-0.4
			c-0.3-0.1-0.3-0.2-0.3-0.3c0.1-0.4,0.3-1.5-0.4-1.7c-0.6-0.1-1.3-0.5-1.5-0.7c-0.3-0.4-0.4-0.6-0.1-0.9c0.4-0.5,1.1-0.9,1.1-0.9
			l0.9-0.5h-1.1c0,0-0.1,0-0.1,0c0,0,0-0.2,0-0.4l0-0.1c0.3-0.8,0.4-1,0.9-1.6c0.3-0.4,0.6-0.8,0.5-1.3c-0.1-0.3-0.3-0.5-0.7-0.7
			c-0.7-0.3-0.7-0.4-0.7-0.4c0,0,0-0.1,0.1-0.2c0.2-0.2,0.3-0.5,0.2-0.7c-0.1-0.4-0.7-0.7-1.3-0.8c-0.5-0.1-0.6-0.2-1.1-0.5
			c-0.1-0.1-0.3-0.2-0.5-0.4c-0.3-0.3-0.7-0.4-1-0.6c-0.4-0.2-0.7-0.3-0.9-0.7c-0.3-0.6-0.7-0.8-1-1c-0.1-0.1-0.3-0.1-0.4-0.2
			c-0.1-0.1-0.1-0.2-0.2-0.4c0-0.3,0.1-0.6,0.2-0.8c0.3-0.3,0.4-0.8,0.3-1.2c-0.1-0.3-0.4-0.6-0.7-0.6c-0.4,0-0.5-0.1-0.7-0.3
			c-0.2-0.1-0.3-0.2-0.7-0.3c-0.2-0.1-0.3-0.2-0.3-0.4c0-0.2,0.1-0.3,0.3-0.4c0.2-0.1,0.3-0.3,0.4-0.5c0.1-0.5-0.1-1-0.3-1.3l0-0.1
			c0.2-0.1,0.5-0.3,0.7-0.3c0.4,0,0.3,0.8,0.6,1.3c0.3,0.4,1,0.2,1.3,0.5c0.3,0.3,0.1,0.5,0,0.8c-0.1,0.3,0.3,0.1,0.4,0.5
			c0.1,0.4,0.5,2,1.1,0.4c0.5-1.6,0.6-2.4,1-2.7c0.3-0.2,0.5-0.8,0.5-1.3c0-0.4,0.8-0.7,1.2-0.8c0.3-0.1,0.5-0.7,0.7-1.2
			c0.2-0.4,2.9-1,3.3-0.8c0.4,0.1,0.4,0,1.3-0.6c0.8-0.6,1.7-0.7,2.9-0.1c1.2,0.6,0.9,0.7,0.9,0.7s1.2-0.2,1.5-1.2
			c0.3-1-0.1-1.2,0.1-1.8c0.2-0.6,0.6,0,1.2-0.2c0.5-0.2,0.8-0.4,1.5-0.2c0.6,0.2,1.2-0.1,1.2-1.1c0-1,0.4-1.9,0.8-1.7
			c0.4,0.2,1.1,0.8,1.2,0.3c0.1-0.5,0.1-0.8,0.5-1.4c0.4-0.5,0.5-1.2,0.5-1.2s-0.1,0.6,0.4,1.1c0.5,0.4,0.8,0.7,1.2,0.4
			c0.3-0.3,0.4-0.2,0.8-0.8c0.4-0.6,0.4-0.8,0.4-1.4c0-0.5-0.3-1.3,0.2-1.2c0.5,0.1,0.8,0.2,1.6-0.2c0.7-0.4,1.1-0.1,1.6-0.1
			c0.5,0,0.6-0.3,1.4-0.5c0.7-0.2,0.8,0.2,1.5,0c0.6-0.2,1.1-0.2,0.8-0.7c-0.2-0.5,0-1.5,1.3-1.8c1.3-0.3,1.4,0.2,2.3-0.4
			c1-0.6,1.8-1.2,2.4-1.5c0.6-0.3-0.2-0.2,0.5-0.8c0.7-0.6,1-0.4,1.8-0.6c0.8-0.2,1.7-0.8,0.5-1.3c-1.2-0.4-1.4-0.5-1.4-1
			c0-0.4-0.6-0.3-0.8-0.6c-0.2-0.3-0.2-0.3,0-1.1c0.2-0.7,0.1-0.7,1-0.6c0.8,0.1,0.8,0.1,1.3,0.5c0.4,0.4,0.6,0.5,1.1-0.1
			c0.4-0.6,0.8-0.6,1.3-0.2c0.4,0.4,1.5,0.7,1.7,1.2c0.2,0.4,0.2,1.1-0.1,1.5c-0.3,0.4,0,1.1,0.7,0.6c0.7-0.4,1,0.5,0.5,1.1
			c-0.4,0.5-0.2,1,0.5,1.1c0.7,0.1,1.7,0.4,1.9,0.7c0.2,0.3,1.3,0.1,1.4-0.8c0.1-1,0.1-1.6,0.7-2.3c0.6-0.7,0.5-2,0.9-2.8
			c0.3-0.7,1.5-4.2,1.2-4.9c-0.3-0.6,0-1.5,0.2-2.2C242.4,136.9,241.7,135.8,241.3,134.9z M163.3,196.5h-24v-63.2h24V196.5z
			 M163.3,114.9h-24V91.7h24V114.9z"/>
	</g>
</g>
</svg>
