<?xml version="1.0" encoding="utf-8"?>
<!-- Generator: Adobe Illustrator 19.2.1, SVG Export Plug-In . SVG Version: 6.00 Build 0)  -->
<svg version="1.1" id="Layer_1" xmlns="http://www.w3.org/2000/svg" xmlns:xlink="http://www.w3.org/1999/xlink" x="0px" y="0px"
	 viewBox="0 0 1474 87" style="enable-background:new 0 0 1474 87;" xml:space="preserve">
<style type="text/css">
	.st0{fill:#D9D9D9;}
	.st1{fill:#F05A22;}
	.st2{fill:#FFFFFF;}
	.st3{fill:#414042;}
</style>
<g>
	<polyline class="st0" points="81.6,35.5 102.9,57.3 55.6,63.2 30.7,35.5 81.2,35.6 31,35.6 	"/>
	<g>
		<polygon class="st0" points="90.7,35.6 124.3,35.6 143.3,52.5 111.2,56.5 		"/>
	</g>
</g>
<g>
	<polyline class="st1" points="82.9,23.1 104.2,44.9 56.9,50.8 32,23.1 82.5,23.2 32.4,23.2 	"/>
	<g>
		<polygon class="st1" points="92,23.2 125.6,23.2 144.7,40.1 112.5,44.1 		"/>
	</g>
</g>
<path class="st1" d="M500.7,61.2h945.6c2.7,0,4.9-2.2,4.9-4.9V26.4c0-2.7-2.2-4.9-4.9-4.9H500.7c-2.7,0-4.9,2.2-4.9,4.9v29.9
	C495.8,59,498,61.2,500.7,61.2z"/>
<g>
	<path class="st2" d="M1066.5,32.6h8.6v1.2h-7v5.9h6.6V41h-6.6v6.7h7.3v1.2h-8.8V32.6z"/>
	<path class="st2" d="M1077.4,32.6h1.5v2.3h-1.5V32.6z M1077.4,36.8h1.5v12.1h-1.5V36.8z"/>
	<path class="st2" d="M1081.8,36.8h1.3v1.7h0c0.7-1.3,2-2,3.3-2c2,0,3.3,1,3.3,3.2v9.1h-1.5v-8.7c0-1.7-0.7-2.5-2.2-2.5
		c-1.7,0-2.8,1.2-2.8,3.1v8.1h-1.5V36.8z"/>
	<path class="st2" d="M1098.1,32.6h1.6v11.7c0,2.4,1.1,3.6,3.4,3.6s3.4-1.2,3.4-3.6V32.6h1.6v11.7c0,3.4-1.8,4.8-5,4.8
		c-3.2,0-5-1.4-5-4.8V32.6z"/>
	<path class="st2" d="M1110.5,36.8h1.3v1.7h0c0.7-1.3,2-2,3.3-2c2,0,3.3,1,3.3,3.2v9.1h-1.5v-8.7c0-1.7-0.7-2.5-2.2-2.5
		c-1.7,0-2.8,1.2-2.8,3.1v8.1h-1.5V36.8z"/>
	<path class="st2" d="M1121.8,37.9h-1.8v-1.1h1.8v-3.3h1.5v3.3h2.3v1.1h-2.3v8.7c0,1,0.4,1.3,1.4,1.3c0.3,0,0.6,0,0.9-0.1v1.1
		c-0.2,0.1-0.5,0.1-1,0.1c-2,0-2.7-0.5-2.7-2.1V37.9z"/>
	<path class="st2" d="M1135.1,44.8c-0.2,2.6-1.7,4.3-4.2,4.3c-2.7,0-4.3-1.8-4.3-6.3c0-4.2,1.6-6.3,4.4-6.3c2.9,0,4.2,1.8,4.2,5.9
		v0.5h-7v0.6c0,3.5,1.3,4.6,2.7,4.6c1.5,0,2.5-1,2.7-3.1H1135.1z M1133.6,41.7c0-3-0.9-4.1-2.7-4.1c-1.8,0-2.7,1.1-2.7,4.1H1133.6z"
		/>
	<path class="st2" d="M1137.5,36.8h1.5v1.9h0c0.6-1.3,1.7-2.2,3.3-2.2c0.2,0,0.3,0,0.5,0.1v1.4c-0.2,0-0.5-0.1-0.7-0.1
		c-1.6,0-3.1,1.1-3.1,3.4v7.6h-1.5V36.8z"/>
	<path class="st2" d="M1144.2,36.8h1.3v1.7h0c0.7-1.3,2-2,3.3-2c2,0,3.3,1,3.3,3.2v9.1h-1.5v-8.7c0-1.7-0.7-2.5-2.2-2.5
		c-1.7,0-2.8,1.2-2.8,3.1v8.1h-1.5V36.8z"/>
	<path class="st2" d="M1163,44.8c-0.2,2.6-1.7,4.3-4.2,4.3c-2.7,0-4.3-1.8-4.3-6.3c0-4.2,1.6-6.3,4.4-6.3c2.9,0,4.2,1.8,4.2,5.9v0.5
		h-7v0.6c0,3.5,1.3,4.6,2.7,4.6c1.5,0,2.5-1,2.7-3.1H1163z M1161.5,41.7c0-3-0.9-4.1-2.7-4.1c-1.8,0-2.7,1.1-2.7,4.1H1161.5z"/>
	<path class="st2" d="M1165.4,32.6h1.5v5.9h0c0.4-1.2,1.6-2,3.2-2c2,0,3.3,1,3.3,3.2v9.1h-1.5v-8.7c0-1.7-0.7-2.5-2.2-2.5
		c-1.7,0-2.8,1.2-2.8,3.1v8.1h-1.5V32.6z"/>
	<path class="st2" d="M1176.2,36.8h1.3v1.7h0c0.7-1.3,1.8-2,3.3-2c1.6,0,2.5,0.9,2.7,2.1h0c0.6-1.3,1.6-2.1,3.3-2.1c1.8,0,3,1,3,3.1
		v9.2h-1.5v-9c0-1.4-0.7-2.2-2-2.2c-1.5,0-2.6,1.2-2.6,3.1v8.1h-1.5v-9c0-1.4-0.7-2.2-2-2.2c-1.5,0-2.6,1.2-2.6,3.1v8.1h-1.5V36.8z"
		/>
	<path class="st2" d="M1200.7,44.8c-0.2,2.6-1.7,4.3-4.2,4.3c-2.7,0-4.3-1.8-4.3-6.3c0-4.2,1.6-6.3,4.4-6.3c2.9,0,4.2,1.8,4.2,5.9
		v0.5h-7v0.6c0,3.5,1.3,4.6,2.7,4.6c1.5,0,2.5-1,2.7-3.1H1200.7z M1199.3,41.7c0-3-0.9-4.1-2.7-4.1c-1.8,0-2.7,1.1-2.7,4.1H1199.3z"
		/>
	<path class="st2" d="M1203.2,36.8h1.3v1.7h0c0.7-1.3,2-2,3.3-2c2,0,3.3,1,3.3,3.2v9.1h-1.5v-8.7c0-1.7-0.7-2.5-2.2-2.5
		c-1.7,0-2.8,1.2-2.8,3.1v8.1h-1.5V36.8z"/>
	<path class="st2" d="M1226.6,46.8L1226.6,46.8c-0.4,1.4-1.7,2.3-3.2,2.3c-2.8,0-4.1-2.1-4.1-6.3c0-4.2,1.3-6.3,4.1-6.3
		c1.6,0,2.7,0.8,3,2.1h0v-6h1.5v16.3h-1.3V46.8z M1223.6,48c1.5,0,2.8-0.7,2.8-5.2c0-4.5-1.3-5.2-2.8-5.2c-1.5,0-2.8,0.7-2.8,5.2
		C1220.8,47.3,1222.1,48,1223.6,48z"/>
	<path class="st2" d="M1238.5,44.8c-0.2,2.6-1.7,4.3-4.2,4.3c-2.7,0-4.3-1.8-4.3-6.3c0-4.2,1.6-6.3,4.4-6.3c2.9,0,4.2,1.8,4.2,5.9
		v0.5h-7v0.6c0,3.5,1.3,4.6,2.7,4.6c1.5,0,2.5-1,2.7-3.1H1238.5z M1237.1,41.7c0-3-0.9-4.1-2.7-4.1c-1.8,0-2.7,1.1-2.7,4.1H1237.1z"
		/>
	<path class="st2" d="M1240.9,36.8h1.5v1.9h0c0.6-1.3,1.7-2.2,3.3-2.2c0.2,0,0.3,0,0.5,0.1v1.4c-0.2,0-0.5-0.1-0.7-0.1
		c-1.6,0-3.1,1.1-3.1,3.4v7.6h-1.5V36.8z"/>
	<path class="st2" d="M1253.4,32.6h4.7c3.4,0,4.8,1.8,4.8,4.6c0,2.5-1.3,4.6-5.3,4.6h-2.6v7.1h-1.6V32.6z M1255,40.6h2.6
		c2.1,0,3.7-0.9,3.7-3.4c0-2.4-1.3-3.4-3.7-3.4h-2.6V40.6z"/>
	<path class="st2" d="M1265.7,37.9h-1.8v-1.1h1.8v-1.4c0-1.7,0.4-2.9,2.8-2.9c0.4,0,0.7,0,0.9,0.1v1.1c-0.2,0-0.4-0.1-0.7-0.1
		c-1.1,0-1.6,0.4-1.6,1.8v1.4h2.3v1.1h-2.3v11h-1.5V37.9z"/>
	<path class="st2" d="M1270.7,40.4c0-2.5,1.3-3.9,4-3.9c2.7,0,3.6,1.3,3.6,3.2v7.2c0,0.7,0.2,1,0.8,1h0.4v1
		c-0.3,0.1-0.5,0.1-0.7,0.1c-1.1,0-1.9-0.3-1.9-1.5v-0.4h0c-0.6,1.6-1.9,2.1-3.3,2.1c-2.3,0-3.3-1.3-3.3-3.4c0-1.6,0.8-2.9,2.6-3.3
		l2.7-0.7c1-0.3,1.2-0.5,1.2-1.9c0-1.5-0.9-2.1-2.2-2.1c-1.7,0-2.5,1-2.5,2.7H1270.7z M1276.9,42L1276.9,42c-0.2,0.4-1,0.7-1.6,0.8
		l-1.2,0.3c-1.5,0.4-2.2,1.1-2.2,2.5c0,1.4,0.8,2.4,2,2.4c1.8,0,3-1.3,3-3.4V42z"/>
	<path class="st2" d="M1281.4,32.6h1.5v16.3h-1.5V32.6z"/>
	<path class="st2" d="M1284.8,47.7l6.1-9.8h-5.8v-1.1h7.4v1.1l-6.1,9.8h6.1v1.1h-7.7V47.7z"/>
	<path class="st2" d="M1293.2,36.8h1.6l2.2,10.7h0l2.3-10.7h1.8l2.2,10.7h0l2.2-10.7h1.6l-2.9,12.1h-1.7l-2.3-10.7h0l-2.3,10.7h-1.7
		L1293.2,36.8z"/>
	<path class="st2" d="M1316.7,44.8c-0.2,2.6-1.7,4.3-4.2,4.3c-2.7,0-4.3-1.8-4.3-6.3c0-4.2,1.6-6.3,4.4-6.3c2.9,0,4.2,1.8,4.2,5.9
		v0.5h-7v0.6c0,3.5,1.3,4.6,2.7,4.6c1.5,0,2.5-1,2.7-3.1H1316.7z M1315.2,41.7c0-3-0.9-4.1-2.7-4.1c-1.8,0-2.7,1.1-2.7,4.1H1315.2z"
		/>
	<path class="st2" d="M1319.1,36.8h1.5v1.9h0c0.6-1.3,1.7-2.2,3.3-2.2c0.2,0,0.3,0,0.5,0.1v1.4c-0.2,0-0.5-0.1-0.7-0.1
		c-1.6,0-3.1,1.1-3.1,3.4v7.6h-1.5V36.8z"/>
	<path class="st2" d="M1325.7,32.6h1.5v10.2h0l5-6h1.8l-3.9,4.5l4.6,7.6h-1.8l-3.8-6.4l-1.9,2.1v4.2h-1.5V32.6z"/>
	<path class="st2" d="M1343.6,44.8c-0.2,2.6-1.7,4.3-4.2,4.3c-2.7,0-4.3-1.8-4.3-6.3c0-4.2,1.6-6.3,4.4-6.3c2.9,0,4.2,1.8,4.2,5.9
		v0.5h-7v0.6c0,3.5,1.3,4.6,2.7,4.6c1.5,0,2.5-1,2.7-3.1H1343.6z M1342.2,41.7c0-3-0.9-4.1-2.7-4.1c-1.8,0-2.7,1.1-2.7,4.1H1342.2z"
		/>
	<path class="st2" d="M1351.3,41.8V43h-5.3v-1.2H1351.3z"/>
	<path class="st2" d="M1359,41.8v-1.2h5.6v8.3h-1.2v-2.7h0c-0.5,1.8-2.1,3-3.8,3c-3.5,0-5.5-2.6-5.5-8.4s2-8.4,5.5-8.4
		c3.3,0,4.8,2,5,4.8h-1.6c0-2-1.1-3.6-3.4-3.6c-2.5,0-4,1.9-4,7.2c0,5.3,1.5,7.2,4,7.2c2.3,0,3.6-2,3.6-5.8v-0.3H1359z"/>
	<path class="st2" d="M1367.2,36.8h1.5v1.9h0c0.6-1.3,1.7-2.2,3.3-2.2c0.2,0,0.3,0,0.5,0.1v1.4c-0.2,0-0.5-0.1-0.7-0.1
		c-1.6,0-3.1,1.1-3.1,3.4v7.6h-1.5V36.8z"/>
	<path class="st2" d="M1373.9,36.8h1.5v8.5c0,2,0.7,2.7,2.2,2.7c1.7,0,2.8-1.2,2.8-3.1v-8.1h1.5v12.1h-1.3v-1.7h0
		c-0.7,1.3-2,2-3.3,2c-2,0-3.3-1-3.3-3.2V36.8z"/>
	<path class="st2" d="M1384.6,36.8h1.3v1.7h0c0.5-1.1,1.5-2,3.2-2c2.9,0,4.1,2.1,4.1,6.3c0,4.2-1.3,6.3-4.1,6.3
		c-1.6,0-2.7-0.8-3-2.1h0v5.8h-1.5V36.8z M1388.9,37.6c-0.8,0-1.6,0.4-2,1.1c-0.6,0.8-0.8,2-0.8,4.1c0,4.5,1.3,5.2,2.8,5.2
		c1.5,0,2.8-0.7,2.8-5.2C1391.7,38.4,1390.3,37.6,1388.9,37.6z"/>
	<path class="st2" d="M1395.3,36.8h1.3v1.7h0c0.5-1.1,1.5-2,3.2-2c2.9,0,4.1,2.1,4.1,6.3c0,4.2-1.3,6.3-4.1,6.3
		c-1.6,0-2.7-0.8-3-2.1h0v5.8h-1.5V36.8z M1399.7,37.6c-0.8,0-1.6,0.4-2,1.1c-0.6,0.8-0.8,2-0.8,4.1c0,4.5,1.3,5.2,2.8,5.2
		c1.5,0,2.8-0.7,2.8-5.2C1402.4,38.4,1401.1,37.6,1399.7,37.6z"/>
	<path class="st2" d="M1414.2,44.8c-0.2,2.6-1.7,4.3-4.2,4.3c-2.7,0-4.3-1.8-4.3-6.3c0-4.2,1.6-6.3,4.4-6.3c2.9,0,4.2,1.8,4.2,5.9
		v0.5h-7v0.6c0,3.5,1.3,4.6,2.7,4.6c1.5,0,2.5-1,2.7-3.1H1414.2z M1412.8,41.7c0-3-0.9-4.1-2.7-4.1c-1.8,0-2.7,1.1-2.7,4.1H1412.8z"
		/>
	<path class="st2" d="M1417.3,46.5h1.7v2.3h-1.7V46.5z"/>
</g>
<g>
	<path class="st3" d="M156.4,24.5h14.3c6.1,0,9.3,2.8,9.3,8c0,5.2-3.2,8.7-9,8.7h-10.5v11.1h-4.1V24.5z M170.4,37.5
		c4.1,0,5.4-2.2,5.4-5c0-2.6-1.6-4.5-4.7-4.5h-10.6v9.5H170.4z"/>
	<path class="st3" d="M184.1,24.5h21.5v3.6h-17.4v8.2h16.5v3.6h-16.5v12.4h-4.1V24.5z"/>
	<path class="st3" d="M226.9,44.1h-13.6l-3.5,8.1h-4.4l12.5-27.7h4.7l12.6,27.7h-4.7L226.9,44.1z M220.1,28.3l-5.2,12.3h10.5
		L220.1,28.3z"/>
	<path class="st3" d="M238.8,24.5h4.1v24.2h16.9v3.6h-21V24.5z"/>
	<path class="st3" d="M262.1,48.5l19.8-20.5h-18.4v-3.6h23.8v3.6l-19.9,20.6h20.2v3.6h-25.5V48.5z"/>
	<path class="st1" d="M310.8,32.6c-0.3-1.9-1.8-3.2-6-3.2c-3.1,0-4.8,0.9-4.8,2.7c0,0.9,0.7,1.5,2.1,1.7c2.3,0.4,9.4,1.4,12.2,1.9
		c5.2,0.9,8.3,3,8.3,7.9c0,9.4-12.2,9.5-16,9.5c-9.4,0-16.2-1.7-16.7-9.4h11c0.2,2.1,1.4,3.4,6.2,3.4c2.3,0,4.9-0.5,4.9-2.9
		c0-1.5-1.2-2-4.4-2.5l-9.2-1.4c-5.7-0.9-7.9-3.7-7.9-7.8c0-3.7,2.3-8.8,14.4-8.8c10.1,0,16.1,2.4,16.7,9H310.8z"/>
	<path class="st1" d="M343.5,23.6c9.8,0,18.1,3.2,18.1,14.7c0,11.5-8.3,14.7-18.1,14.7c-9.8,0-18.1-3.2-18.1-14.7
		C325.4,26.9,333.7,23.6,343.5,23.6z M343.5,46.9c5,0,8.3-2.7,8.3-8.5c0-5.8-3.3-8.5-8.3-8.5c-4.9,0-8.3,2.7-8.3,8.5
		C335.2,44.2,338.5,46.9,343.5,46.9z"/>
	<path class="st1" d="M366.4,24.5h9.2v21.3h16.9v6.4h-26.1V24.5z"/>
	<path class="st1" d="M406.3,24.5h11.3l11.9,27.7h-9.9l-1.7-4.5h-12.1l-1.7,4.5h-9.9L406.3,24.5z M411.9,31.5L411.9,31.5L408,42h7.8
		L411.9,31.5z"/>
	<path class="st1" d="M432.6,24.5h22.2c6.8,0,9.3,3.1,9.3,7.7c0,3.7-1.9,5.7-4.4,6.3v0.1c1.7,0.6,3.1,2,3.3,5
		c0.4,5.5,0.6,7.2,1.7,8.6h-10.1c-0.5-1.2-0.5-2.8-0.5-4.1c0-4.4-1.4-5.1-3.8-5.1h-8.5v9.2h-9.2V24.5z M441.9,36.8h8.9
		c2.3,0,3.5-1.2,3.5-3.1c0-1.8-1.2-3-3.5-3h-8.9V36.8z"/>
</g>
</svg>
