<?xml version="1.0" encoding="utf-8"?>
<!-- Generator: Adobe Illustrator 16.0.0, SVG Export Plug-In . SVG Version: 6.00 Build 0)  -->
<!DOCTYPE svg PUBLIC "-//W3C//DTD SVG 1.1//EN" "http://www.w3.org/Graphics/SVG/1.1/DTD/svg11.dtd">
<svg version="1.1" id="Layer_1" xmlns="http://www.w3.org/2000/svg" xmlns:xlink="http://www.w3.org/1999/xlink" x="0px" y="0px"
	 width="205.854px" height="41px" viewBox="0 5.5 205.854 41" enable-background="new 0 5.5 205.854 41" xml:space="preserve">
<g>
	<polyline fill="#D9D9D9" points="33.88,25.678 42.724,34.729 23.085,37.179 12.746,25.678 33.714,25.719 12.871,25.719 	"/>
	<g>
		<polygon fill="#D9D9D9" points="37.658,25.719 51.609,25.719 59.497,32.737 46.17,34.397 		"/>
	</g>
</g>
<g>
	<polyline fill="#F05A22" points="34.42,20.53 43.264,29.581 23.624,32.031 13.286,20.53 34.254,20.571 13.452,20.571 	"/>
	<g>
		<polygon fill="#F05A22" points="38.198,20.571 52.149,20.571 60.079,27.589 46.709,29.249 		"/>
	</g>
</g>
<path fill="#F05A22" d="M207.889,36.349h392.61c1.12,0,2.034-0.914,2.034-2.035V21.9c0-1.121-0.914-2.034-2.034-2.034h-392.61
	c-1.121,0-2.034,0.913-2.034,2.034v12.414C205.855,35.435,206.768,36.349,207.889,36.349z"/>
<g>
	<path fill="#FFFFFF" d="M442.807,24.474h3.571v0.498h-2.907v2.45h2.74v0.539h-2.74v2.782h3.031v0.498h-3.653v-6.768H442.807z"/>
	<path fill="#FFFFFF" d="M447.332,24.474h0.623v0.955h-0.623V24.474z M447.332,26.219h0.623v5.023h-0.623V26.219z"/>
	<path fill="#FFFFFF" d="M449.159,26.219h0.54v0.705l0,0c0.291-0.539,0.83-0.83,1.37-0.83c0.83,0,1.37,0.415,1.37,1.329v3.778
		h-0.623v-3.612c0-0.706-0.29-1.038-0.913-1.038c-0.706,0-1.163,0.498-1.163,1.287v3.363h-0.622v-4.982H449.159z"/>
	<path fill="#FFFFFF" d="M455.927,24.474h0.665v4.857c0,0.997,0.456,1.495,1.411,1.495s1.412-0.498,1.412-1.495v-4.857h0.664v4.857
		c0,1.412-0.747,1.993-2.076,1.993c-1.328,0-2.076-0.581-2.076-1.993V24.474z"/>
	<path fill="#FFFFFF" d="M461.075,26.219h0.54v0.705l0,0c0.291-0.539,0.83-0.83,1.37-0.83c0.83,0,1.37,0.415,1.37,1.329v3.778
		h-0.623v-3.612c0-0.706-0.29-1.038-0.913-1.038c-0.706,0-1.162,0.498-1.162,1.287v3.363h-0.623v-4.982H461.075z"/>
	<path fill="#FFFFFF" d="M465.768,26.675h-0.748v-0.456h0.748v-1.37h0.622v1.37h0.955v0.456h-0.955v3.612
		c0,0.415,0.166,0.54,0.582,0.54c0.124,0,0.249,0,0.373-0.042v0.457c-0.083,0.042-0.207,0.042-0.415,0.042
		c-0.83,0-1.121-0.208-1.121-0.872v-3.737H465.768z"/>
	<path fill="#FFFFFF" d="M471.289,29.54c-0.083,1.079-0.705,1.785-1.743,1.785c-1.121,0-1.786-0.747-1.786-2.615
		c0-1.744,0.665-2.616,1.827-2.616c1.204,0,1.744,0.747,1.744,2.45v0.207h-2.906V29c0,1.453,0.539,1.91,1.121,1.91
		c0.622,0,1.037-0.415,1.12-1.287h0.623V29.54z M470.667,28.253c0-1.246-0.374-1.702-1.121-1.702c-0.748,0-1.121,0.456-1.121,1.702
		H470.667z"/>
	<path fill="#FFFFFF" d="M472.286,26.219h0.622v0.788l0,0c0.25-0.539,0.706-0.913,1.37-0.913c0.083,0,0.125,0,0.208,0.042v0.581
		c-0.083,0-0.208-0.042-0.291-0.042c-0.664,0-1.287,0.457-1.287,1.412v3.155h-0.622V26.219L472.286,26.219z"/>
	<path fill="#FFFFFF" d="M475.068,26.219h0.54v0.705l0,0c0.291-0.539,0.83-0.83,1.37-0.83c0.83,0,1.37,0.415,1.37,1.329v3.778
		h-0.623v-3.612c0-0.706-0.29-1.038-0.913-1.038c-0.706,0-1.162,0.498-1.162,1.287v3.363h-0.623v-4.982H475.068z"/>
	<path fill="#FFFFFF" d="M482.873,29.54c-0.083,1.079-0.705,1.785-1.743,1.785c-1.121,0-1.786-0.747-1.786-2.615
		c0-1.744,0.665-2.616,1.827-2.616c1.204,0,1.744,0.747,1.744,2.45v0.207h-2.906V29c0,1.453,0.539,1.91,1.121,1.91
		c0.622,0,1.037-0.415,1.12-1.287h0.623V29.54z M482.251,28.253c0-1.246-0.374-1.702-1.121-1.702c-0.748,0-1.121,0.456-1.121,1.702
		H482.251z"/>
	<path fill="#FFFFFF" d="M483.87,24.474h0.622v2.449l0,0c0.166-0.498,0.665-0.83,1.329-0.83c0.83,0,1.37,0.415,1.37,1.329v3.778
		h-0.623v-3.612c0-0.706-0.29-1.038-0.913-1.038c-0.706,0-1.163,0.498-1.163,1.287v3.363h-0.622V24.474z"/>
	<path fill="#FFFFFF" d="M488.354,26.219h0.54v0.705l0,0c0.291-0.539,0.747-0.83,1.37-0.83c0.664,0,1.038,0.374,1.121,0.872l0,0
		c0.249-0.54,0.664-0.872,1.37-0.872c0.747,0,1.246,0.415,1.246,1.287v3.82h-0.623v-3.737c0-0.581-0.291-0.913-0.83-0.913
		c-0.623,0-1.08,0.498-1.08,1.287v3.363h-0.623v-3.737c0-0.581-0.29-0.913-0.83-0.913c-0.623,0-1.079,0.498-1.079,1.287v3.363
		h-0.623v-4.982H488.354z"/>
	<path fill="#FFFFFF" d="M498.527,29.54c-0.083,1.079-0.706,1.785-1.744,1.785c-1.121,0-1.785-0.747-1.785-2.615
		c0-1.744,0.664-2.616,1.827-2.616c1.204,0,1.743,0.747,1.743,2.45v0.207h-2.906V29c0,1.453,0.54,1.91,1.121,1.91
		c0.623,0,1.038-0.415,1.121-1.287h0.623V29.54z M497.946,28.253c0-1.246-0.374-1.702-1.121-1.702c-0.748,0-1.121,0.456-1.121,1.702
		H497.946z"/>
	<path fill="#FFFFFF" d="M499.565,26.219h0.539v0.705l0,0c0.291-0.539,0.831-0.83,1.371-0.83c0.83,0,1.37,0.415,1.37,1.329v3.778
		h-0.623v-3.612c0-0.706-0.291-1.038-0.913-1.038c-0.706,0-1.163,0.498-1.163,1.287v3.363h-0.623v-4.982H499.565z"/>
	<path fill="#FFFFFF" d="M509.281,30.37L509.281,30.37c-0.167,0.582-0.706,0.955-1.329,0.955c-1.162,0-1.702-0.872-1.702-2.615
		c0-1.744,0.54-2.616,1.702-2.616c0.664,0,1.121,0.332,1.246,0.872l0,0v-2.491h0.622v6.768h-0.539V30.37z M508.034,30.868
		c0.623,0,1.163-0.29,1.163-2.158c0-1.869-0.54-2.159-1.163-2.159s-1.162,0.29-1.162,2.159
		C506.872,30.578,507.411,30.868,508.034,30.868z"/>
	<path fill="#FFFFFF" d="M514.221,29.54c-0.083,1.079-0.706,1.785-1.744,1.785c-1.121,0-1.785-0.747-1.785-2.615
		c0-1.744,0.664-2.616,1.827-2.616c1.204,0,1.743,0.747,1.743,2.45v0.207h-2.906V29c0,1.453,0.54,1.91,1.121,1.91
		c0.623,0,1.038-0.415,1.121-1.287h0.623V29.54z M513.64,28.253c0-1.246-0.374-1.702-1.121-1.702s-1.121,0.456-1.121,1.702H513.64z"
		/>
	<path fill="#FFFFFF" d="M515.217,26.219h0.623v0.788l0,0c0.249-0.539,0.706-0.913,1.37-0.913c0.083,0,0.125,0,0.208,0.042v0.581
		c-0.083,0-0.208-0.042-0.291-0.042c-0.664,0-1.287,0.457-1.287,1.412v3.155h-0.623V26.219L515.217,26.219z"/>
	<path fill="#FFFFFF" d="M520.407,24.474h1.951c1.412,0,1.993,0.747,1.993,1.91c0,1.038-0.54,1.909-2.2,1.909h-1.08v2.948h-0.664
		V24.474z M521.072,27.796h1.08c0.871,0,1.536-0.373,1.536-1.411c0-0.997-0.54-1.412-1.536-1.412h-1.08V27.796z"/>
	<path fill="#FFFFFF" d="M525.514,26.675h-0.747v-0.456h0.747v-0.582c0-0.705,0.166-1.204,1.163-1.204c0.166,0,0.29,0,0.374,0.042
		v0.457c-0.084,0-0.167-0.042-0.291-0.042c-0.457,0-0.664,0.166-0.664,0.747v0.582h0.955v0.456h-0.955v4.567h-0.623v-4.567H525.514z
		"/>
	<path fill="#FFFFFF" d="M527.59,27.713c0-1.038,0.54-1.619,1.661-1.619s1.494,0.54,1.494,1.329v2.989
		c0,0.29,0.083,0.415,0.333,0.415h0.166v0.415c-0.125,0.042-0.208,0.042-0.291,0.042c-0.457,0-0.789-0.125-0.789-0.623v-0.166l0,0
		c-0.249,0.664-0.789,0.872-1.37,0.872c-0.955,0-1.37-0.54-1.37-1.412c0-0.664,0.332-1.204,1.08-1.37l1.12-0.291
		c0.416-0.124,0.499-0.207,0.499-0.788c0-0.623-0.374-0.872-0.914-0.872c-0.705,0-1.038,0.415-1.038,1.121h-0.581V27.713z
		 M530.164,28.378L530.164,28.378c-0.083,0.166-0.415,0.29-0.664,0.332l-0.498,0.124c-0.623,0.166-0.914,0.457-0.914,1.038
		s0.333,0.996,0.831,0.996c0.747,0,1.245-0.539,1.245-1.411V28.378L530.164,28.378z"/>
	<path fill="#FFFFFF" d="M532.032,24.474h0.623v6.768h-0.623V24.474z"/>
	<path fill="#FFFFFF" d="M533.445,30.744l2.532-4.069h-2.408v-0.456h3.073v0.456l-2.533,4.069h2.533v0.457h-3.197V30.744z"/>
	<path fill="#FFFFFF" d="M536.932,26.219h0.665l0.913,4.442l0,0l0.955-4.442h0.747l0.913,4.442l0,0l0.914-4.442h0.664l-1.204,5.023
		h-0.706l-0.955-4.442l0,0l-0.955,4.442h-0.705L536.932,26.219z"/>
	<path fill="#FFFFFF" d="M546.69,29.54c-0.083,1.079-0.706,1.785-1.744,1.785c-1.121,0-1.785-0.747-1.785-2.615
		c0-1.744,0.664-2.616,1.826-2.616c1.204,0,1.744,0.747,1.744,2.45v0.207h-2.906V29c0,1.453,0.54,1.91,1.121,1.91
		c0.623,0,1.038-0.415,1.121-1.287h0.623V29.54z M546.067,28.253c0-1.246-0.374-1.702-1.121-1.702s-1.121,0.456-1.121,1.702H546.067
		z"/>
	<path fill="#FFFFFF" d="M547.686,26.219h0.623v0.788l0,0c0.249-0.539,0.705-0.913,1.37-0.913c0.083,0,0.124,0,0.207,0.042v0.581
		c-0.083,0-0.207-0.042-0.29-0.042c-0.664,0-1.287,0.457-1.287,1.412v3.155h-0.623V26.219L547.686,26.219z"/>
	<path fill="#FFFFFF" d="M550.426,24.474h0.623v4.235l0,0l2.076-2.491h0.747l-1.619,1.868l1.909,3.155h-0.747l-1.577-2.657
		l-0.789,0.872v1.744h-0.623V24.474L550.426,24.474z"/>
	<path fill="#FFFFFF" d="M557.858,29.54c-0.083,1.079-0.705,1.785-1.743,1.785c-1.121,0-1.785-0.747-1.785-2.615
		c0-1.744,0.664-2.616,1.826-2.616c1.204,0,1.744,0.747,1.744,2.45v0.207h-2.906V29c0,1.453,0.54,1.91,1.121,1.91
		c0.622,0,1.038-0.415,1.121-1.287h0.622V29.54z M557.277,28.253c0-1.246-0.373-1.702-1.121-1.702c-0.747,0-1.121,0.456-1.121,1.702
		H557.277z"/>
	<path fill="#FFFFFF" d="M561.055,28.294v0.499h-2.2v-0.499H561.055z"/>
	<path fill="#FFFFFF" d="M564.252,28.294v-0.498h2.325v3.446h-0.498v-1.121l0,0c-0.208,0.747-0.872,1.246-1.578,1.246
		c-1.453,0-2.283-1.08-2.283-3.488s0.83-3.487,2.283-3.487c1.37,0,1.993,0.83,2.076,1.993h-0.664c0-0.831-0.457-1.495-1.412-1.495
		c-1.038,0-1.661,0.789-1.661,2.989c0,2.201,0.623,2.989,1.661,2.989c0.955,0,1.495-0.83,1.495-2.407v-0.125h-1.744V28.294z"/>
	<path fill="#FFFFFF" d="M567.656,26.219h0.623v0.788l0,0c0.249-0.539,0.706-0.913,1.37-0.913c0.083,0,0.125,0,0.208,0.042v0.581
		c-0.083,0-0.208-0.042-0.291-0.042c-0.664,0-1.287,0.457-1.287,1.412v3.155h-0.623V26.219L567.656,26.219z"/>
	<path fill="#FFFFFF" d="M570.439,26.219h0.623v3.529c0,0.83,0.29,1.12,0.913,1.12c0.706,0,1.162-0.498,1.162-1.287v-3.362h0.623
		v5.023h-0.54v-0.706l0,0c-0.29,0.54-0.83,0.831-1.37,0.831c-0.83,0-1.37-0.415-1.37-1.329v-3.819H570.439z"/>
	<path fill="#FFFFFF" d="M574.881,26.219h0.54v0.705l0,0c0.207-0.456,0.623-0.83,1.328-0.83c1.204,0,1.702,0.872,1.702,2.616
		c0,1.743-0.539,2.615-1.702,2.615c-0.664,0-1.121-0.332-1.245-0.872l0,0v2.408h-0.623V26.219z M576.666,26.551
		c-0.332,0-0.664,0.166-0.83,0.456c-0.249,0.333-0.332,0.831-0.332,1.703c0,1.868,0.54,2.158,1.162,2.158
		c0.623,0,1.163-0.29,1.163-2.158C577.829,26.883,577.248,26.551,576.666,26.551z"/>
	<path fill="#FFFFFF" d="M579.323,26.219h0.54v0.705l0,0c0.208-0.456,0.623-0.83,1.329-0.83c1.204,0,1.702,0.872,1.702,2.616
		c0,1.743-0.54,2.615-1.702,2.615c-0.665,0-1.121-0.332-1.246-0.872l0,0v2.408h-0.623V26.219z M581.151,26.551
		c-0.332,0-0.664,0.166-0.83,0.456c-0.249,0.333-0.332,0.831-0.332,1.703c0,1.868,0.539,2.158,1.162,2.158s1.162-0.29,1.162-2.158
		C582.272,26.883,581.732,26.551,581.151,26.551z"/>
	<path fill="#FFFFFF" d="M587.171,29.54c-0.083,1.079-0.706,1.785-1.744,1.785c-1.121,0-1.785-0.747-1.785-2.615
		c0-1.744,0.664-2.616,1.827-2.616c1.204,0,1.743,0.747,1.743,2.45v0.207h-2.906V29c0,1.453,0.54,1.91,1.121,1.91
		c0.623,0,1.038-0.415,1.121-1.287h0.623V29.54z M586.59,28.253c0-1.246-0.374-1.702-1.121-1.702c-0.748,0-1.121,0.456-1.121,1.702
		H586.59z"/>
	<path fill="#FFFFFF" d="M588.458,30.246h0.706v0.955h-0.706V30.246z"/>
</g>
<g>
	<path fill="#414042" d="M64.937,21.111h5.938c2.532,0,3.861,1.163,3.861,3.321c0,2.159-1.329,3.612-3.737,3.612h-4.359v4.609
		h-1.702V21.111z M70.749,26.509c1.702,0,2.242-0.913,2.242-2.076c0-1.079-0.664-1.868-1.951-1.868h-4.401v3.944H70.749z"/>
	<path fill="#414042" d="M76.438,21.111h8.927v1.495H78.14v3.404h6.851v1.495H78.14v5.148h-1.702V21.111z"/>
	<path fill="#414042" d="M94.208,29.249h-5.646l-1.453,3.363h-1.827l5.189-11.501h1.952l5.231,11.501h-1.952L94.208,29.249z
		 M91.385,22.689l-2.159,5.106h4.359L91.385,22.689z"/>
	<path fill="#414042" d="M99.149,21.111h1.702v10.048h7.018v1.495h-8.72V21.111z"/>
	<path fill="#414042" d="M108.823,31.076l8.221-8.512h-7.64V21.07h9.882v1.494l-8.263,8.554h8.387v1.494h-10.587V31.076z"/>
	<path fill="#F05A22" d="M129.043,24.474c-0.125-0.789-0.747-1.329-2.491-1.329c-1.287,0-1.993,0.374-1.993,1.121
		c0,0.374,0.291,0.623,0.872,0.706c0.955,0.166,3.903,0.581,5.065,0.789c2.159,0.374,3.446,1.245,3.446,3.28
		c0,3.902-5.065,3.944-6.644,3.944c-3.902,0-6.726-0.706-6.934-3.903h4.567c0.083,0.872,0.581,1.412,2.574,1.412
		c0.955,0,2.034-0.208,2.034-1.204c0-0.623-0.498-0.83-1.827-1.038l-3.819-0.581c-2.367-0.374-3.28-1.536-3.28-3.239
		c0-1.536,0.955-3.653,5.979-3.653c4.194,0,6.686,0.996,6.935,3.737h-4.484V24.474z"/>
	<path fill="#F05A22" d="M142.62,20.738c4.068,0,7.515,1.328,7.515,6.103c0,4.775-3.446,6.104-7.515,6.104
		c-4.069,0-7.516-1.328-7.516-6.104C135.105,22.108,138.551,20.738,142.62,20.738z M142.62,30.412c2.076,0,3.446-1.121,3.446-3.529
		s-1.37-3.529-3.446-3.529c-2.035,0-3.446,1.121-3.446,3.529S140.544,30.412,142.62,30.412z"/>
	<path fill="#F05A22" d="M152.128,21.111h3.819v8.844h7.018v2.657h-10.837V21.111z"/>
	<path fill="#F05A22" d="M168.695,21.111h4.691l4.941,11.501h-4.111l-0.705-1.868h-5.024l-0.706,1.868h-4.11L168.695,21.111z
		 M171.02,24.017L171.02,24.017l-1.619,4.36h3.238L171.02,24.017z"/>
	<path fill="#F05A22" d="M179.615,21.111h9.217c2.823,0,3.861,1.287,3.861,3.197c0,1.536-0.789,2.366-1.827,2.615v0.042
		c0.706,0.249,1.287,0.83,1.371,2.076c0.166,2.283,0.249,2.989,0.705,3.57h-4.193c-0.207-0.498-0.207-1.162-0.207-1.702
		c0-1.827-0.582-2.117-1.578-2.117h-3.529v3.819h-3.819V21.111z M183.476,26.219h3.695c0.954,0,1.453-0.499,1.453-1.287
		c0-0.748-0.499-1.246-1.453-1.246h-3.695V26.219z"/>
</g>
</svg>
