<?xml version="1.0" encoding="utf-8"?>
<!-- Generator: Adobe Illustrator 19.2.1, SVG Export Plug-In . SVG Version: 6.00 Build 0)  -->
<svg version="1.1" id="Ebene_1" xmlns="http://www.w3.org/2000/svg" xmlns:xlink="http://www.w3.org/1999/xlink" x="0px" y="0px"
	 viewBox="0 0 300 300" style="enable-background:new 0 0 300 300;" xml:space="preserve">
<style type="text/css">
	.st0{fill:#E84E0F;}
</style>
<g>
	<path class="st0" d="M151.6,61.3h-4.7c-2.5,0-4.5-2.1-4.5-4.5v-0.1c0-5.9-4.7-10.6-10.6-10.6h-0.2c-5.9,0-10.6,4.7-10.6,10.6v0.1
		c0,2.5-2.1,4.5-4.5,4.5h-4.7c-5,0-9.1,4-9.1,9.1v0.2c0,5,4,9.1,9.1,9.1h39.8c5,0,9.1-4,9.1-9.1v-0.2
		C160.7,65.4,156.6,61.3,151.6,61.3L151.6,61.3z M131.7,61.3c-2.6,0-4.6-2.1-4.6-4.6s2.1-4.6,4.6-4.6s4.6,2.1,4.6,4.6
		C136.2,59.2,134.3,61.3,131.7,61.3L131.7,61.3z M152.1,238.5H75.2c-6.8,0-12.2-5.5-12.2-12.2V79.7c0-6.8,5.5-12.2,9.2-12.2h24.7
		c-0.2,1-0.3,2.1-0.3,3.2c0,8.3,6.8,15.1,15.1,15.1h39.8c8.3,0,15.1-6.8,15.1-15.3c0-1-0.1-2-0.3-3h18.6c9.8,0,15.2,5.5,15.2,12.2
		v91.8c-1-0.1-2.1-0.2-3.1-0.2c-4.2,0-8.3,0.6-12.2,1.6v-71.8H78.3v122.2h70.4C149,228.5,150.1,233.7,152.1,238.5L152.1,238.5z
		 M197.3,180.3c-21.9,0-39.7,17.8-39.7,39.7s17.8,39.7,39.7,39.7s39.7-17.8,39.7-39.7C237,198.1,219.3,180.3,197.3,180.3
		L197.3,180.3z M223.3,212l-24.4,27.5c-1.2,1.3-2.9,2.1-4.5,2.1c-1.3,0-2.7-0.4-3.8-1.3L175.3,228c-2.7-2.1-3.1-6-0.9-8.5
		c2.1-2.7,6-3.1,8.5-0.9l10.7,8.5l20.6-23.2c2.3-2.5,6.1-2.8,8.6-0.5C225.2,205.6,225.5,209.5,223.3,212L223.3,212z M169.9,152.9
		H121c-1.6,0-3.1-1.3-3.1-3.1v-3.1c0-1.6,1.3-3.1,3.1-3.1h48.9c1.6,0,3.1,1.3,3.1,3.1v3.1C172.8,151.5,171.5,152.9,169.9,152.9
		L169.9,152.9z M169.9,125.5H121c-1.6,0-3.1-1.3-3.1-3.1v-3.1c0-1.6,1.3-3.1,3.1-3.1h48.9c1.6,0,3.1,1.3,3.1,3.1v3.1
		C172.8,124,171.5,125.5,169.9,125.5L169.9,125.5z M154.5,177.5H121c-1.6,0-3.1-1.3-3.1-3.1v-3.1c0-1.6,1.3-3.1,3.1-3.1h33.6
		c1.6,0,3.1,1.3,3.1,3.1v3.1C157.6,176,156.3,177.5,154.5,177.5L154.5,177.5z M148.5,204.8H121c-1.6,0-3.1-1.3-3.1-3.1v-3.1
		c0-1.6,1.3-3.1,3.1-3.1h27.5c1.6,0,3.1,1.3,3.1,3.1v3.1C151.5,203.5,150.1,204.8,148.5,204.8L148.5,204.8z M112.1,114.2l-11.2,12.7
		c-0.5,0.6-1.3,0.9-2.1,0.9c-0.6,0-1.2-0.2-1.7-0.6l-7-5.7c-1.2-0.9-1.4-2.8-0.4-3.9c0.9-1.2,2.8-1.4,3.9-0.4l4.9,3.9l9.5-10.7
		c1-1.1,2.8-1.2,4-0.2C113.1,111.2,113.2,112.9,112.1,114.2L112.1,114.2z M112.1,141.2l-11.2,12.7c-0.5,0.6-1.3,0.9-2.1,0.9
		c-0.6,0-1.2-0.2-1.7-0.6l-7-5.7c-1.2-0.9-1.4-2.8-0.4-3.9c0.9-1.2,2.8-1.4,3.9-0.4l4.9,3.9l9.5-10.7c1-1.1,2.8-1.2,4-0.2
		C113.1,138.5,113.2,140.2,112.1,141.2L112.1,141.2z M112.1,167.3l-11.3,12.7c-0.5,0.6-1.3,0.9-2.1,0.9c-0.6,0-1.2-0.2-1.7-0.6
		l-7-5.7c-1.2-0.9-1.4-2.8-0.4-3.9c0.9-1.2,2.8-1.4,3.9-0.4l4.9,3.9l9.5-10.7c1-1.1,2.8-1.2,4-0.2
		C113.1,164.4,113.2,166.2,112.1,167.3L112.1,167.3z M112.1,193.5l-11.2,12.7c-0.5,0.6-1.3,0.9-2.1,0.9c-0.6,0-1.2-0.2-1.7-0.6
		l-7-5.7c-1.2-0.9-1.4-2.8-0.4-3.9c0.9-1.2,2.8-1.4,3.9-0.4l4.9,3.9l9.5-10.7c1-1.1,2.8-1.2,4-0.2
		C113.1,190.4,113.2,192.4,112.1,193.5L112.1,193.5z"/>
</g>
</svg>
