<?xml version="1.0" encoding="utf-8"?>
<!-- Generator: Adobe Illustrator 19.2.1, SVG Export Plug-In . SVG Version: 6.00 Build 0)  -->
<svg version="1.1" id="Ebene_1" xmlns="http://www.w3.org/2000/svg" xmlns:xlink="http://www.w3.org/1999/xlink" x="0px" y="0px"
	 viewBox="0 0 300 300" style="enable-background:new 0 0 300 300;" xml:space="preserve">
<style type="text/css">
	.st0{fill:#FFFFFF;}
</style>
<g>
	<path class="st0" d="M151.7,61.9h-4.9c-2.6,0-4.7-2.1-4.7-4.7v-0.1c0-6.1-4.9-11.1-11.1-11.1h-0.2c-6.1,0-11.1,4.9-11.1,11.1v0.1
		c0,2.6-2.1,4.7-4.7,4.7h-4.9c-5.3,0-9.4,4.2-9.4,9.4v0.2c0,5.3,4.2,9.4,9.4,9.4h41.5c5.3,0,9.4-4.2,9.4-9.4v-0.2
		C161.2,66.2,156.9,61.9,151.7,61.9L151.7,61.9z M130.9,61.9c-2.7,0-4.8-2.1-4.8-4.8s2.1-4.8,4.8-4.8s4.8,2.1,4.8,4.8
		C135.6,59.8,133.6,61.9,130.9,61.9L130.9,61.9z M152.1,246.8H72c-7.1,0-12.8-5.7-12.8-12.8V81.1c0-7.1,5.7-12.8,9.6-12.8h25.8
		c-0.2,1.1-0.3,2.1-0.3,3.3c0,8.7,7.1,15.8,15.8,15.8h41.5c8.7,0,15.8-7.1,15.8-16c0-1.1-0.1-2-0.3-3.1h19.4
		c10.2,0,15.9,5.7,15.9,12.8v95.8c-1.1-0.1-2.1-0.2-3.2-0.2c-4.4,0-8.7,0.6-12.8,1.7v-74.9H75.2v127.4h73.4
		C148.9,236.4,150.1,241.7,152.1,246.8L152.1,246.8z M199.4,186.1c-22.9,0-41.4,18.6-41.4,41.4s18.6,41.4,41.4,41.4
		s41.4-18.6,41.4-41.4C240.7,204.7,222.2,186.1,199.4,186.1L199.4,186.1z M226.4,219.2L201,247.8c-1.3,1.4-3,2.1-4.7,2.1
		c-1.4,0-2.8-0.4-4-1.4l-15.9-12.8c-2.8-2.1-3.2-6.2-1-8.9c2.1-2.8,6.2-3.2,8.9-1l11.2,8.9l21.5-24.2c2.4-2.6,6.3-2.9,9-0.5
		C228.5,212.4,228.8,216.5,226.4,219.2L226.4,219.2z M170.7,157.5h-51c-1.7,0-3.2-1.4-3.2-3.2V151c0-1.7,1.4-3.2,3.2-3.2h51
		c1.7,0,3.2,1.4,3.2,3.2v3.2C173.8,156.1,172.4,157.5,170.7,157.5L170.7,157.5z M170.7,128.9h-51c-1.7,0-3.2-1.4-3.2-3.2v-3.2
		c0-1.7,1.4-3.2,3.2-3.2h51c1.7,0,3.2,1.4,3.2,3.2v3.2C173.8,127.4,172.4,128.9,170.7,128.9L170.7,128.9z M154.7,183.1h-35
		c-1.7,0-3.2-1.4-3.2-3.2v-3.2c0-1.7,1.4-3.2,3.2-3.2h35c1.7,0,3.2,1.4,3.2,3.2v3.2C157.9,181.6,156.5,183.1,154.7,183.1
		L154.7,183.1z M148.4,211.7h-28.7c-1.7,0-3.2-1.4-3.2-3.2v-3.2c0-1.7,1.4-3.2,3.2-3.2h28.7c1.7,0,3.2,1.4,3.2,3.2v3.2
		C151.6,210.3,150.1,211.7,148.4,211.7L148.4,211.7z M110.5,117.1l-11.7,13.2c-0.5,0.6-1.4,1-2.1,1c-0.6,0-1.3-0.2-1.8-0.6l-7.3-5.9
		c-1.3-1-1.5-2.9-0.4-4.1c1-1.3,2.9-1.5,4.1-0.4l5.2,4.1l9.9-11.2c1.1-1.2,2.9-1.3,4.2-0.2C111.5,114,111.6,115.8,110.5,117.1
		L110.5,117.1z M110.5,145.3l-11.7,13.2c-0.5,0.6-1.4,1-2.1,1c-0.6,0-1.3-0.2-1.8-0.6l-7.3-5.9c-1.3-1-1.5-2.9-0.4-4.1
		c1-1.3,2.9-1.5,4.1-0.4l5.2,4.1l9.9-11.2c1.1-1.2,2.9-1.3,4.2-0.2C111.5,142.4,111.6,144.3,110.5,145.3L110.5,145.3z M110.5,172.5
		l-11.8,13.2c-0.5,0.6-1.4,1-2.1,1c-0.6,0-1.3-0.2-1.8-0.6l-7.3-5.9c-1.3-1-1.5-2.9-0.4-4.1c1-1.3,2.9-1.5,4.1-0.4l5.2,4.1l9.9-11.2
		c1.1-1.2,2.9-1.3,4.2-0.2C111.5,169.5,111.6,171.4,110.5,172.5L110.5,172.5z M110.5,199.9l-11.7,13.2c-0.5,0.6-1.4,1-2.1,1
		c-0.6,0-1.3-0.2-1.8-0.6l-7.3-5.9c-1.3-1-1.5-2.9-0.4-4.1c1-1.3,2.9-1.5,4.1-0.4l5.2,4.1l9.9-11.2c1.1-1.2,2.9-1.3,4.2-0.2
		C111.5,196.6,111.6,198.7,110.5,199.9L110.5,199.9z"/>
</g>
</svg>
