<?xml version="1.0" encoding="utf-8"?>
<!-- Generator: Adobe Illustrator 19.2.1, SVG Export Plug-In . SVG Version: 6.00 Build 0)  -->
<svg version="1.1" id="Layer_1" xmlns="http://www.w3.org/2000/svg" xmlns:xlink="http://www.w3.org/1999/xlink" x="0px" y="0px"
	 viewBox="0 0 451.3 440.7" style="enable-background:new 0 0 451.3 440.7;" xml:space="preserve">
<style type="text/css">
	.st0{fill:#F15A22;}
</style>
<g>
	<path class="st0" d="M227.2,120.2c-14.5,0.1-27,2.3-39.2,6.8c-57.7,21.5-83.9,87.8-56.1,142.1c25.2,49.2,86.1,70.2,137,47.3
		c45.8-20.6,69.8-69.1,58.4-117.6C316.6,153.3,273.8,120.3,227.2,120.2z M309.5,101.6c11.2-21.1,22.3-41.9,33.5-62.9
		c-5.9-3-11.5-5.9-17.2-8.8c-4.4,8.2-8.6,16.1-12.8,24c-6.5,12.2-12.9,24.3-19.4,36.5c-0.6,1.1-1.6,2.2,0.4,3.2
		C299,96.2,304,98.8,309.5,101.6z M299.5,346.2c-5.6,3.6-10.9,6.9-16.4,10.3c13.1,20.1,26,39.8,39,59.7c5.7-3.6,11-6.9,16.4-10.3
		C325.4,385.9,312.6,366.2,299.5,346.2z M111.9,35.2c13.1,20,26,39.8,39,59.8c5.6-3.5,10.9-6.8,16.4-10.3
		c-13.1-20.1-26-39.8-39-59.7C122.7,28.4,117.4,31.7,111.9,35.2z M93.4,279c-20.5,12.9-40.6,25.5-60.9,38.2
		c3.6,5.5,7,10.7,10.5,16.1c20.4-12.8,40.6-25.5,61-38.3C100.3,289.6,96.9,284.5,93.4,279z M357,162.1c20.4-12.8,40.6-25.5,61-38.3
		c-3.7-5.6-7.1-10.8-10.5-16c-20.5,12.9-40.6,25.5-60.9,38.2C350.1,151.5,353.4,156.6,357,162.1z M418,325.7
		c-21.6-11-42.8-21.9-64.2-32.8c-3.1,5.8-6,11.3-9,16.9c21.6,11,42.8,21.9,64.2,32.8C412,336.9,414.9,331.5,418,325.7z M141,339.5
		c-11.2,21-22.3,41.9-33.5,62.9c5.9,3,11.4,5.8,17.2,8.8c11.2-21,22.3-41.9,33.5-62.9C152.3,345.3,146.8,342.5,141,339.5z
		 M96.6,148.2c3.1-5.8,5.9-11.2,9-16.9c-21.5-11-42.8-21.9-64.2-32.8c-3.1,5.8-6,11.3-9,16.9C54,126.4,75.1,137.2,96.6,148.2z"/>
	<path class="st0" d="M4.1,207.6c1.2,0.1,2.5,0.2,3.7,0.2c21.7,0,43.4,0,65.1,0c3.6,0,3.6,0,3.6,3.7c0,4,0,7.9,0,11.9
		c0,3.7,0,3.7-3.6,3.7c-21.7,0-43.4,0-65.1,0c-1.2,0-2.5,0.1-3.7,0.1C4.1,220.6,4.1,214.1,4.1,207.6z"/>
	<path class="st0" d="M447.1,227.1c-3.1,0-6.1-0.1-9.2-0.1c-19.9,0-39.7,0-59.6,0c-3.6,0-3.6,0-3.6-3.7c0-4,0-7.9,0-11.9
		c0-3.7,0-3.7,3.6-3.7c21.7,0,43.4,0,65.1,0c1.2,0,2.5-0.1,3.7-0.2C447.1,214.1,447.1,220.6,447.1,227.1z"/>
	<path class="st0" d="M235.1,4.1c0.1,1,0.2,1.9,0.2,2.9c0,21.5,0,43,0,64.6c0,3.6,0,3.6-3.6,3.6c-4.2,0-8.4-0.1-12.6,0.1
		c-2.5,0.1-3.1-0.8-3.1-3.2c0.1-17.7,0-35.5,0-53.2c0-4.9,0.1-9.8,0.2-14.7C222.4,4.1,228.8,4.1,235.1,4.1z"/>
	<path class="st0" d="M216.1,436.5c-0.1-1-0.2-1.9-0.2-2.9c0-21.5,0-43,0-64.6c0-3.6,0-3.6,3.6-3.6c4.2,0,8.4,0.1,12.6-0.1
		c2.5-0.1,3.1,0.8,3.1,3.2c-0.1,17.7,0,35.5,0,53.2c0,4.9-0.1,9.8-0.2,14.7C228.8,436.5,222.4,436.5,216.1,436.5z"/>
	<path class="st0" d="M227.2,120.2c46.6,0,89.3,33,100.1,78.6c11.5,48.5-12.6,97-58.4,117.6c-50.9,22.9-111.8,1.9-137-47.3
		c-27.8-54.3-1.6-120.7,56.1-142.1C200.2,122.5,212.8,120.4,227.2,120.2z"/>
	<path class="st0" d="M309.5,101.6c-5.5-2.8-10.5-5.4-15.6-8c-1.9-1-1-2.1-0.4-3.2c6.5-12.2,12.9-24.3,19.4-36.5
		c4.2-7.9,8.4-15.8,12.8-24c5.7,2.9,11.3,5.8,17.2,8.8C331.8,59.8,320.7,80.6,309.5,101.6z"/>
	<path class="st0" d="M299.5,346.2c13.1,20,25.9,39.7,39,59.8c-5.4,3.4-10.7,6.7-16.4,10.3c-13-19.9-25.9-39.7-39-59.7
		C288.6,353.1,293.9,349.7,299.5,346.2z"/>
	<path class="st0" d="M111.9,35.2c5.5-3.5,10.8-6.8,16.4-10.3c13,19.9,25.9,39.7,39,59.7c-5.5,3.4-10.8,6.8-16.4,10.3
		C137.9,75,125,55.2,111.9,35.2z"/>
	<path class="st0" d="M93.4,279c3.6,5.4,6.9,10.6,10.5,16c-20.3,12.8-40.5,25.4-61,38.3c-3.5-5.4-6.9-10.6-10.5-16.1
		C52.8,304.5,72.9,291.9,93.4,279z"/>
	<path class="st0" d="M357,162.1c-3.6-5.5-6.9-10.6-10.5-16.1c20.3-12.7,40.4-25.4,60.9-38.2c3.5,5.3,6.9,10.4,10.5,16
		C397.6,136.7,377.5,149.3,357,162.1z"/>
	<path class="st0" d="M418,325.7c-3.1,5.8-6,11.2-9,16.9c-21.4-10.9-42.6-21.8-64.2-32.8c3-5.6,5.9-11.1,9-16.9
		C375.2,303.9,396.5,314.7,418,325.7z"/>
	<path class="st0" d="M141,339.5c5.8,3,11.3,5.8,17.2,8.8c-11.2,21-22.3,41.9-33.5,62.9c-5.8-3-11.3-5.8-17.2-8.8
		C118.7,381.4,129.8,360.5,141,339.5z"/>
	<path class="st0" d="M96.6,148.2c-21.5-11-42.7-21.8-64.1-32.8c3-5.6,5.9-11.1,9-16.9c21.4,11,42.7,21.8,64.2,32.8
		C102.5,137.1,99.7,142.5,96.6,148.2z"/>
</g>
</svg>
